<?xml version="1.0" encoding="UTF-8" standalone="no"?>
<!-- Generator: Adobe Illustrator 15.1.0, SVG Export Plug-In . SVG Version: 6.00 Build 0)  -->

<svg
   version="1.1"
   id="Layer_1"
   x="0px"
   y="0px"
   width="100px"
   height="100px"
   viewBox="0 0 100 100"
   enable-background="new 0 0 100 100"
   xml:space="preserve"
   sodipodi:docname="01d.svg"
   inkscape:version="1.3 (0e150ed6c4, 2023-07-21)"
   xmlns:inkscape="http://www.inkscape.org/namespaces/inkscape"
   xmlns:sodipodi="http://sodipodi.sourceforge.net/DTD/sodipodi-0.dtd"
   xmlns="http://www.w3.org/2000/svg"
   xmlns:svg="http://www.w3.org/2000/svg"><defs
   id="defs1" /><sodipodi:namedview
   id="namedview1"
   pagecolor="#ffffff"
   bordercolor="#000000"
   borderopacity="0.25"
   inkscape:showpageshadow="2"
   inkscape:pageopacity="0.0"
   inkscape:pagecheckerboard="0"
   inkscape:deskcolor="#d1d1d1"
   inkscape:zoom="8.13"
   inkscape:cx="50"
   inkscape:cy="50"
   inkscape:window-width="1920"
   inkscape:window-height="1009"
   inkscape:window-x="-8"
   inkscape:window-y="-8"
   inkscape:window-maximized="1"
   inkscape:current-layer="Layer_1" />&#10;<path
   fill-rule="evenodd"
   clip-rule="evenodd"
   d="m 93.994,53.998 h -7.996 c -2.21,0 -4,-1.79 -4,-3.998 0,-2.208 1.79,-4 4,-4 h 7.996 c 2.21,0 4,1.792 4,4 0,2.208 -1.788,3.998 -4,3.998 z M 78.284,27.376 c -1.562,1.562 -4.098,1.562 -5.656,0 -1.562,-1.562 -1.562,-4.094 0,-5.656 l 5.656,-5.656 c 1.558,-1.562 4.094,-1.562 5.656,0 1.558,1.562 1.558,4.094 0,5.656 z m -28.282,46.62 c -13.254,0 -24,-10.744 -24,-23.996 0,-13.254 10.744,-23.998 24,-23.998 13.254,0 23.996,10.744 23.996,23.998 0,13.252 -10.742,23.996 -23.996,23.996 z m 0,-39.994 c -8.836,0 -16,7.162 -16,15.998 0,8.834 7.166,15.998 16,15.998 8.834,0 15.996,-7.164 15.996,-15.998 0,-8.836 -7.16,-15.998 -15.996,-15.998 z m 0,-15.998 c -2.21,0 -4,-1.792 -4,-4 V 6.006 c 0,-2.208 1.79,-4 4,-4 2.208,0 4,1.792 4,4 v 7.998 c 0,2.208 -1.794,4 -4,4 z M 21.72,27.376 16.064,21.72 c -1.562,-1.562 -1.562,-4.094 0,-5.656 1.562,-1.562 4.094,-1.562 5.656,0 l 5.656,5.656 c 1.562,1.562 1.562,4.094 0,5.656 -1.562,1.562 -4.094,1.562 -5.656,0 z M 18.004,50 c 0,2.208 -1.792,3.998 -4,3.998 h -8 c -2.208,0 -3.998,-1.79 -3.998,-3.998 0,-2.208 1.792,-4 3.998,-4 h 8 c 2.21,0 4,1.792 4,4 z m 3.716,22.624 c 1.562,-1.56 4.094,-1.56 5.656,0 1.562,1.562 1.562,4.096 0,5.656 l -5.656,5.656 c -1.562,1.562 -4.094,1.562 -5.656,0 -1.562,-1.56 -1.562,-4.094 0,-5.656 z m 28.282,9.372 c 2.208,0 4,1.79 4,3.998 v 8 c 0,2.208 -1.792,4 -4,4 -2.21,0 -4,-1.792 -4,-4 v -8 c 0,-2.208 1.79,-3.998 4,-3.998 z m 28.282,-9.372 5.656,5.656 c 1.558,1.562 1.558,4.096 0,5.656 -1.562,1.562 -4.098,1.562 -5.656,0 L 72.628,78.28 c -1.562,-1.56 -1.562,-4.094 0,-5.656 1.558,-1.562 4.092,-1.562 5.656,0 z"
   id="path1"
   style="stroke-width:2" />&#10;</svg>
