<?xml version="1.0" encoding="UTF-8" standalone="no"?>
<!-- Generator: Adobe Illustrator 15.1.0, SVG Export Plug-In . SVG Version: 6.00 Build 0)  -->

<svg
   version="1.1"
   id="Layer_1"
   x="0px"
   y="0px"
   width="258.6412"
   height="258.6412"
   viewBox="0 0 359.95502 359.95502"
   enable-background="new 0 0 100 100"
   xml:space="preserve"
   sodipodi:docname="01d.svg"
   inkscape:version="1.3 (0e150ed6c4, 2023-07-21)"
   xmlns:inkscape="http://www.inkscape.org/namespaces/inkscape"
   xmlns:sodipodi="http://sodipodi.sourceforge.net/DTD/sodipodi-0.dtd"
   xmlns="http://www.w3.org/2000/svg"
   xmlns:svg="http://www.w3.org/2000/svg"><defs
   id="defs1" /><sodipodi:namedview
   id="namedview1"
   pagecolor="#ffffff"
   bordercolor="#000000"
   borderopacity="0.25"
   inkscape:showpageshadow="2"
   inkscape:pageopacity="0.0"
   inkscape:pagecheckerboard="0"
   inkscape:deskcolor="#d1d1d1"
   inkscape:zoom="1.4371945"
   inkscape:cx="128.37511"
   inkscape:cy="126.98351"
   inkscape:window-width="1920"
   inkscape:window-height="1009"
   inkscape:window-x="-8"
   inkscape:window-y="-8"
   inkscape:window-maximized="1"
   inkscape:current-layer="Layer_1" />&#10;<path
   fill-rule="evenodd"
   clip-rule="evenodd"
   d="M 344.955,194.97 H 314.97 c -8.2875,0 -15,-6.7125 -15,-14.9925 0,-8.28 6.7125,-15 15,-15 h 29.985 c 8.2875,0 15,6.72 15,15 0,8.28 -6.705,14.9925 -15,14.9925 z M 286.0425,95.1375 c -5.8575,5.8575 -15.3675,5.8575 -21.21,0 -5.8575,-5.8575 -5.8575,-15.3525 0,-21.21 l 21.21,-21.21 c 5.8425,-5.8575 15.3525,-5.8575 21.21,0 5.8425,5.8575 5.8425,15.3525 0,21.21 z M 179.985,269.9625 c -49.7025,0 -90,-40.29 -90,-89.985 0,-49.7025 40.29,-89.9925 90,-89.9925 49.7025,0 89.985,40.29 89.985,89.9925 0,49.695 -40.2825,89.985 -89.985,89.985 z m 0,-149.9775 c -33.135,0 -60,26.8575 -60,59.9925 0,33.1275 26.8725,59.9925 60,59.9925 33.1275,0 59.985,-26.865 59.985,-59.9925 0,-33.135 -26.85,-59.9925 -59.985,-59.9925 z m 0,-59.9925 c -8.2875,0 -15,-6.72 -15,-15 V 15 c 0,-8.28 6.7125,-15 15,-15 8.28,0 15,6.72 15,15 v 29.9925 c 0,8.28 -6.7275,15 -15,15 z m -106.0575,35.145 -21.21,-21.21 c -5.8575,-5.8575 -5.8575,-15.3525 0,-21.21 5.8575,-5.8575 15.3525,-5.8575 21.21,0 l 21.21,21.21 c 5.8575,5.8575 5.8575,15.3525 0,21.21 -5.8575,5.8575 -15.3525,5.8575 -21.21,0 z m -13.935,84.84 c 0,8.28 -6.72,14.9925 -15,14.9925 h -30 C 6.7125,194.97 0,188.2575 0,179.9775 c 0,-8.28 6.72,-15 14.9925,-15 h 30 c 8.2875,0 15,6.72 15,15 z m 13.935,84.84 c 5.8575,-5.85 15.3525,-5.85 21.21,0 5.8575,5.8575 5.8575,15.36 0,21.21 l -21.21,21.21 c -5.8575,5.8575 -15.3525,5.8575 -21.21,0 -5.8575,-5.85 -5.8575,-15.3525 0,-21.21 z m 106.0575,35.145 c 8.28,0 15,6.7125 15,14.9925 v 30 c 0,8.28 -6.72,15 -15,15 -8.2875,0 -15,-6.72 -15,-15 v -30 c 0,-8.28 6.7125,-14.9925 15,-14.9925 z m 106.0575,-35.145 21.21,21.21 c 5.8425,5.8575 5.8425,15.36 0,21.21 -5.8575,5.8575 -15.3675,5.8575 -21.21,0 l -21.21,-21.21 c -5.8575,-5.85 -5.8575,-15.3525 0,-21.21 5.8425,-5.8575 15.345,-5.8575 21.21,0 z"
   id="path1"
   style="stroke-width:7.5" />&#10;</svg>
