<?xml version="1.0" encoding="UTF-8" standalone="no"?>
<!-- Generator: Adobe Illustrator 15.1.0, SVG Export Plug-In . SVG Version: 6.00 Build 0)  -->

<svg
   version="1.1"
   id="Layer_1"
   x="0px"
   y="0px"
   width="84.234955"
   height="84.238464"
   viewBox="0 0 167.97901 167.98601"
   enable-background="new 0 0 100 100"
   xml:space="preserve"
   sodipodi:docname="01n-1.svg"
   inkscape:version="1.3 (0e150ed6c4, 2023-07-21)"
   xmlns:inkscape="http://www.inkscape.org/namespaces/inkscape"
   xmlns:sodipodi="http://sodipodi.sourceforge.net/DTD/sodipodi-0.dtd"
   xmlns="http://www.w3.org/2000/svg"
   xmlns:svg="http://www.w3.org/2000/svg"><defs
   id="defs1" /><sodipodi:namedview
   id="namedview1"
   pagecolor="#ffffff"
   bordercolor="#000000"
   borderopacity="0.25"
   inkscape:showpageshadow="2"
   inkscape:pageopacity="0.0"
   inkscape:pagecheckerboard="0"
   inkscape:deskcolor="#d1d1d1"
   inkscape:zoom="2.8743891"
   inkscape:cx="42.269851"
   inkscape:cy="42.269851"
   inkscape:window-width="1920"
   inkscape:window-height="1009"
   inkscape:window-x="-8"
   inkscape:window-y="-8"
   inkscape:window-maximized="1"
   inkscape:current-layer="Layer_1" />&#10;<path
   fill-rule="evenodd"
   clip-rule="evenodd"
   d="M 83.985999,167.986 C 130.375,167.986 167.979,130.375 167.979,84.000001 167.979,37.611001 130.375,0 83.985999,0 37.603999,0 0,37.611001 0,84.000001 0,130.375 37.603999,167.986 83.985999,167.986 Z m -13.993,-138.151999 c 4.48,-1.148 9.156,-1.834 13.993,-1.834 30.926001,0 55.993001,25.074 55.993001,56 0,30.911999 -25.067,55.985999 -55.993001,55.985999 -4.837,0 -9.513,-0.686 -13.993,-1.834 24.136,-6.216 41.993001,-28.077 41.993001,-54.151999 0,-26.089 -17.857001,-47.936 -41.993001,-54.166 z"
   id="path1"
   style="stroke-width:7" />&#10;</svg>
