<?xml version="1.0" encoding="UTF-8" standalone="no"?>
<!-- Generator: Adobe Illustrator 15.1.0, SVG Export Plug-In . SVG Version: 6.00 Build 0)  -->

<svg
   version="1.1"
   id="Layer_1"
   x="0px"
   y="0px"
   width="94.064163"
   height="94.060249"
   viewBox="0 0 167.986 167.97901"
   enable-background="new 0 0 100 100"
   xml:space="preserve"
   sodipodi:docname="01n-7.svg"
   inkscape:version="1.3 (0e150ed6c4, 2023-07-21)"
   xmlns:inkscape="http://www.inkscape.org/namespaces/inkscape"
   xmlns:sodipodi="http://sodipodi.sourceforge.net/DTD/sodipodi-0.dtd"
   xmlns="http://www.w3.org/2000/svg"
   xmlns:svg="http://www.w3.org/2000/svg"><defs
   id="defs1" /><sodipodi:namedview
   id="namedview1"
   pagecolor="#ffffff"
   bordercolor="#000000"
   borderopacity="0.25"
   inkscape:showpageshadow="2"
   inkscape:pageopacity="0.0"
   inkscape:pagecheckerboard="0"
   inkscape:deskcolor="#d1d1d1"
   inkscape:zoom="2.8743891"
   inkscape:cx="47.140452"
   inkscape:cy="47.140452"
   inkscape:window-width="1920"
   inkscape:window-height="1009"
   inkscape:window-x="-8"
   inkscape:window-y="-8"
   inkscape:window-maximized="1"
   inkscape:current-layer="Layer_1" />&#10;<path
   fill-rule="evenodd"
   clip-rule="evenodd"
   d="M 83.993,167.979 C 37.611,167.979 0,130.382 0,83.993 0,37.604 37.611,0 83.993,0 c 46.389,0 83.993,37.604 83.993,83.993 0,46.389 -37.604,83.986 -83.993,83.986 z m 14,-138.138 c -4.487,-1.162 -9.156,-1.834 -14,-1.834 C 53.074,28.007 28,53.067 28,83.993 c 0,30.926 25.074,55.986 55.993,55.986 4.844,0 9.513,-0.672 14,-1.834 C 73.857,131.922 56,110.075 56,83.993 56,57.911 73.857,36.057 97.993,29.841 Z"
   id="path1"
   style="stroke-width:7" />&#10;</svg>
