<?xml version="1.0" encoding="UTF-8" standalone="no"?>
<!-- Generator: Adobe Illustrator 15.1.0, SVG Export Plug-In . SVG Version: 6.00 Build 0)  -->

<svg
   version="1.1"
   id="Layer_1"
   x="0px"
   y="0px"
   width="100px"
   height="100px"
   viewBox="0 0 100 100"
   enable-background="new 0 0 100 100"
   xml:space="preserve"
   sodipodi:docname="01n-1.svg"
   inkscape:version="1.3 (0e150ed6c4, 2023-07-21)"
   xmlns:inkscape="http://www.inkscape.org/namespaces/inkscape"
   xmlns:sodipodi="http://sodipodi.sourceforge.net/DTD/sodipodi-0.dtd"
   xmlns="http://www.w3.org/2000/svg"
   xmlns:svg="http://www.w3.org/2000/svg"><defs
   id="defs1" /><sodipodi:namedview
   id="namedview1"
   pagecolor="#ffffff"
   bordercolor="#000000"
   borderopacity="0.25"
   inkscape:showpageshadow="2"
   inkscape:pageopacity="0.0"
   inkscape:pagecheckerboard="0"
   inkscape:deskcolor="#d1d1d1"
   inkscape:zoom="8.13"
   inkscape:cx="50"
   inkscape:cy="50"
   inkscape:window-width="1920"
   inkscape:window-height="1009"
   inkscape:window-x="-8"
   inkscape:window-y="-8"
   inkscape:window-maximized="1"
   inkscape:current-layer="Layer_1" />&#10;<path
   fill-rule="evenodd"
   clip-rule="evenodd"
   d="m 49.999,73.998 c 13.254,0 23.998,-10.746 23.998,-23.996 0,-13.254 -10.744,-24 -23.998,-24 -13.252,0 -23.996,10.746 -23.996,24 0,13.25 10.744,23.996 23.996,23.996 z M 46.001,34.526 c 1.28,-0.328 2.616,-0.524 3.998,-0.524 8.836,0 15.998,7.164 15.998,16 0,8.832 -7.162,15.996 -15.998,15.996 -1.382,0 -2.718,-0.196 -3.998,-0.524 6.896,-1.776 11.998,-8.022 11.998,-15.472 0,-7.454 -5.102,-13.696 -11.998,-15.476 z"
   id="path1"
   style="stroke-width:2" />&#10;</svg>
