<?xml version="1.0" encoding="UTF-8" standalone="no"?>
<!-- Generator: Adobe Illustrator 15.1.0, SVG Export Plug-In . SVG Version: 6.00 Build 0)  -->

<svg
   version="1.1"
   id="Layer_1"
   x="0px"
   y="0px"
   width="100px"
   height="100px"
   viewBox="0 0 100 100"
   enable-background="new 0 0 100 100"
   xml:space="preserve"
   sodipodi:docname="01n-3.svg"
   inkscape:version="1.3 (0e150ed6c4, 2023-07-21)"
   xmlns:inkscape="http://www.inkscape.org/namespaces/inkscape"
   xmlns:sodipodi="http://sodipodi.sourceforge.net/DTD/sodipodi-0.dtd"
   xmlns="http://www.w3.org/2000/svg"
   xmlns:svg="http://www.w3.org/2000/svg"><defs
   id="defs1" /><sodipodi:namedview
   id="namedview1"
   pagecolor="#ffffff"
   bordercolor="#000000"
   borderopacity="0.25"
   inkscape:showpageshadow="2"
   inkscape:pageopacity="0.0"
   inkscape:pagecheckerboard="0"
   inkscape:deskcolor="#d1d1d1"
   inkscape:zoom="8.13"
   inkscape:cx="50"
   inkscape:cy="50"
   inkscape:window-width="1920"
   inkscape:window-height="1009"
   inkscape:window-x="-8"
   inkscape:window-y="-8"
   inkscape:window-maximized="1"
   inkscape:current-layer="Layer_1" />&#10;<path
   fill-rule="evenodd"
   clip-rule="evenodd"
   d="m 50,73.997 c -13.252,0 -23.998,-10.742 -23.998,-23.996 0,-13.254 10.746,-23.998 23.998,-23.998 13.254,0 23.998,10.744 23.998,23.998 0,13.254 -10.744,23.996 -23.998,23.996 z m 4,-39.468 c -1.282,-0.332 -2.616,-0.524 -4,-0.524 -8.834,0 -15.998,7.16 -15.998,15.996 0,8.836 7.164,15.996 15.998,15.996 1.384,0 2.718,-0.192 4,-0.524 -6.896,-1.778 -11.998,-8.02 -11.998,-15.472 0,-7.452 5.102,-13.696 11.998,-15.472 z"
   id="path1"
   style="stroke-width:2" />&#10;</svg>
