<?xml version="1.0" encoding="UTF-8" standalone="no"?>
<!-- Generator: Adobe Illustrator 15.1.0, SVG Export Plug-In . SVG Version: 6.00 Build 0)  -->

<svg
   version="1.1"
   id="Layer_1"
   x="0px"
   y="0px"
   width="250.73599"
   height="250.73599"
   viewBox="0 0 283.4636 283.4636"
   enable-background="new 0 0 100 100"
   xml:space="preserve"
   sodipodi:docname="02d.svg"
   inkscape:version="1.3 (0e150ed6c4, 2023-07-21)"
   xmlns:inkscape="http://www.inkscape.org/namespaces/inkscape"
   xmlns:sodipodi="http://sodipodi.sourceforge.net/DTD/sodipodi-0.dtd"
   xmlns="http://www.w3.org/2000/svg"
   xmlns:svg="http://www.w3.org/2000/svg"><defs
   id="defs1" /><sodipodi:namedview
   id="namedview1"
   pagecolor="#ffffff"
   bordercolor="#000000"
   borderopacity="0.25"
   inkscape:showpageshadow="2"
   inkscape:pageopacity="0.0"
   inkscape:pagecheckerboard="0"
   inkscape:deskcolor="#d1d1d1"
   inkscape:zoom="2.8743891"
   inkscape:cx="125.76585"
   inkscape:cy="95.846453"
   inkscape:window-width="1920"
   inkscape:window-height="1009"
   inkscape:window-x="-8"
   inkscape:window-y="-8"
   inkscape:window-maximized="1"
   inkscape:current-layer="Layer_1" />&#10;<path
   fill-rule="evenodd"
   clip-rule="evenodd"
   d="m 272.96324,152.22655 h -21 c -5.79601,0 -10.5,-4.69875 -10.5,-10.5 0,-5.796 4.70399,-10.4895 10.5,-10.4895 h 21 c 5.796,0 10.5,4.69875 10.5,10.4895 0,5.80125 -4.704,10.5 -10.5,10.5 z m -41.24925,-69.888 c -4.10025,4.10025 -10.74675,4.10025 -14.847,0 -4.10025,-4.095 -4.10025,-10.74675 0,-14.84175 l 14.847,-14.847 c 4.10024,-4.10025 10.74674,-4.10025 14.847,0 4.10025,4.095 4.10025,10.74675 0,14.847 z m -15.47175,81.93675 v 0 c 9.18225,10.9515 14.7315,25.0425 14.7315,40.45125 0,34.78125 -28.203,62.9895 -62.99475,62.9895 -14.56875,0 -67.20525,0 -83.989495,0 C 37.60575,267.71605 0,230.11555 0,183.72655 c 0,-46.389 37.60575,-83.9895 83.989495,-83.9895 8.253,0 16.222495,1.218 23.745745,3.4335 11.52375,-14.84175 29.4945,-24.4335 49.74375,-24.4335 34.79175,0 62.99475,28.20825 62.99475,62.9895 -0.005,7.95375 -1.54349,15.54525 -4.2315,22.54875 z M 20.99475,183.72655 c 0,34.79175 28.19775,62.9895 62.989495,62.9895 18.983995,0 68.139745,0 83.989495,0 23.1945,0 41.99476,-18.8055 41.99476,-41.9895 0,-23.1945 -18.80026,-42 -41.99476,-42 -8.4,0 -16.18575,2.5305 -22.74825,6.77775 -6.46275,-27.909 -31.3635,-48.76725 -61.241245,-48.76725 -34.791745,0 -62.989495,28.19775 -62.989495,62.9895 z m 136.47899,-83.9895 c -11.613,0 -22.12875,4.7145 -29.7255,12.33225 12.285,7.539 22.49625,18.12825 29.55225,30.7335 3.486,-0.59325 7.01925,-1.07625 10.67325,-1.07625 11.15625,0 21.62475,2.93475 30.71251,8.01675 v 0 c 0.504,-2.5935 0.78749,-5.271 0.78749,-8.01675 0,-23.184 -18.8055,-41.9895 -42,-41.9895 z m 0,-42 c -5.796,0 -10.49475,-4.69875 -10.49475,-10.49475 V 26.24755 c 0,-5.80125 4.704,-10.5 10.49475,-10.5 5.80125,0 10.5,4.69875 10.5,10.5 V 47.2423 c 0,5.80125 -4.6935,10.49475 -10.5,10.49475 z M 83.238745,82.33855 68.397,67.4968 c -4.10025,-4.10025 -4.10025,-10.752 0,-14.847 4.095,-4.10025 10.74675,-4.10025 14.841745,0 l 14.847,14.847 c 4.100245,4.095 4.100245,10.74675 0,14.84175 -4.095,4.10025 -10.74675,4.10025 -14.847,0 z"
   id="path1"
   style="stroke-width:5.25" />&#10;</svg>
