<?xml version="1.0" encoding="UTF-8" standalone="no"?>
<!-- Generator: Adobe Illustrator 15.1.0, SVG Export Plug-In . SVG Version: 6.00 Build 0)  -->

<svg
   version="1.1"
   id="Layer_1"
   x="0px"
   y="0px"
   width="100px"
   height="100px"
   viewBox="0 0 100 100"
   enable-background="new 0 0 100 100"
   xml:space="preserve"
   sodipodi:docname="02d.svg"
   inkscape:version="1.3 (0e150ed6c4, 2023-07-21)"
   xmlns:inkscape="http://www.inkscape.org/namespaces/inkscape"
   xmlns:sodipodi="http://sodipodi.sourceforge.net/DTD/sodipodi-0.dtd"
   xmlns="http://www.w3.org/2000/svg"
   xmlns:svg="http://www.w3.org/2000/svg"><defs
   id="defs1" /><sodipodi:namedview
   id="namedview1"
   pagecolor="#ffffff"
   bordercolor="#000000"
   borderopacity="0.25"
   inkscape:showpageshadow="2"
   inkscape:pageopacity="0.0"
   inkscape:pagecheckerboard="0"
   inkscape:deskcolor="#d1d1d1"
   inkscape:zoom="8.13"
   inkscape:cx="50"
   inkscape:cy="50"
   inkscape:window-width="1920"
   inkscape:window-height="1009"
   inkscape:window-x="-8"
   inkscape:window-y="-8"
   inkscape:window-maximized="1"
   inkscape:current-layer="Layer_1" />&#10;<path
   fill-rule="evenodd"
   clip-rule="evenodd"
   d="m 87.49475,52.9985 h -6 c -1.656,0 -3,-1.3425 -3,-3 0,-1.656 1.344,-2.997 3,-2.997 h 6 c 1.656,0 3,1.3425 3,2.997 0,1.6575 -1.344,3 -3,3 z m -11.7855,-19.968 c -1.1715,1.1715 -3.0705,1.1715 -4.242,0 -1.1715,-1.17 -1.1715,-3.0705 0,-4.2405 l 4.242,-4.242 c 1.1715,-1.1715 3.0705,-1.1715 4.242,0 1.1715,1.17 1.1715,3.0705 0,4.242 z m -4.4205,23.4105 v 0 c 2.6235,3.129 4.209,7.155 4.209,11.5575 0,9.9375 -8.058,17.997 -17.9985,17.997 -4.1625,0 -19.2015,0 -23.997,0 -13.2525,0 -23.997,-10.743 -23.997,-23.997 0,-13.254 10.7445,-23.997 23.997,-23.997 2.358,0 4.635,0.348 6.7845,0.981 3.2925,-4.2405 8.427,-6.981 14.2125,-6.981 9.9405,0 17.9985,8.0595 17.9985,17.997 -0.0015,2.2725 -0.441,4.4415 -1.209,6.4425 z m -55.785,5.5575 c 0,9.9405 8.0565,17.997 17.997,17.997 5.424,0 19.4685,0 23.997,0 6.627,0 11.9985,-5.373 11.9985,-11.997 0,-6.627 -5.3715,-12 -11.9985,-12 -2.4,0 -4.6245,0.723 -6.4995,1.9365 -1.8465,-7.974 -8.961,-13.9335 -17.4975,-13.9335 -9.9405,0 -17.997,8.0565 -17.997,17.997 z m 38.994,-23.997 c -3.318,0 -6.3225,1.347 -8.493,3.5235 3.51,2.154 6.4275,5.1795 8.4435,8.781 0.996,-0.1695 2.0055,-0.3075 3.0495,-0.3075 3.1875,0 6.1785,0.8385 8.775,2.2905 v 0 c 0.144,-0.741 0.225,-1.506 0.225,-2.2905 0,-6.624 -5.373,-11.997 -12,-11.997 z m 0,-12 c -1.656,0 -2.9985,-1.3425 -2.9985,-2.9985 v -5.9985 c 0,-1.6575 1.344,-3 2.9985,-3 1.6575,0 3,1.3425 3,3 v 5.9985 c 0,1.6575 -1.341,2.9985 -3,2.9985 z m -21.21,7.029 -4.2405,-4.2405 c -1.1715,-1.1715 -1.1715,-3.072 0,-4.242 1.17,-1.1715 3.0705,-1.1715 4.2405,0 l 4.242,4.242 c 1.1715,1.17 1.1715,3.0705 0,4.2405 -1.17,1.1715 -3.0705,1.1715 -4.242,0 z"
   id="path1"
   style="stroke-width:1.5" />&#10;</svg>
