<?xml version="1.0" encoding="UTF-8" standalone="no"?>
<!-- Generator: Adobe Illustrator 15.1.0, SVG Export Plug-In . SVG Version: 6.00 Build 0)  -->

<svg
   version="1.1"
   id="Layer_1"
   x="0px"
   y="0px"
   width="100px"
   height="100px"
   viewBox="0 0 100 100"
   enable-background="new 0 0 100 100"
   xml:space="preserve"
   sodipodi:docname="02n.svg"
   inkscape:version="1.3 (0e150ed6c4, 2023-07-21)"
   xmlns:inkscape="http://www.inkscape.org/namespaces/inkscape"
   xmlns:sodipodi="http://sodipodi.sourceforge.net/DTD/sodipodi-0.dtd"
   xmlns="http://www.w3.org/2000/svg"
   xmlns:svg="http://www.w3.org/2000/svg"><defs
   id="defs1" /><sodipodi:namedview
   id="namedview1"
   pagecolor="#ffffff"
   bordercolor="#000000"
   borderopacity="0.25"
   inkscape:showpageshadow="2"
   inkscape:pageopacity="0.0"
   inkscape:pagecheckerboard="0"
   inkscape:deskcolor="#d1d1d1"
   inkscape:zoom="8.13"
   inkscape:cx="50"
   inkscape:cy="50"
   inkscape:window-width="1920"
   inkscape:window-height="1009"
   inkscape:window-x="-8"
   inkscape:window-y="-8"
   inkscape:window-maximized="1"
   inkscape:current-layer="Layer_1" />&#10;<path
   fill-rule="evenodd"
   clip-rule="evenodd"
   d="m 78.977,50.9255 v 0 c 2.052,2.9235 3.2685,6.477 3.2685,10.3245 0,9.9375 -8.0565,17.997 -17.997,17.997 -4.1625,0 -19.2015,0 -23.997,0 -13.254,0 -23.997,-10.743 -23.997,-23.997 0,-13.254 10.743,-23.997 23.997,-23.997 3.003,0 5.871,0.5625 8.52,1.5705 v 0 c 2.4525,-7.023 9.117,-12.0705 16.977,-12.0705 1.1325,0 2.2365,0.117 3.3105,0.318 -0.1965,0.8625 -0.3105,1.7595 -0.3105,2.682 0,6.627 5.3715,11.9985 11.997,11.9985 0.924,0 1.8195,-0.114 2.6835,-0.312 0.1995,1.0755 0.3165,2.1795 0.3165,3.312 -0.0015,4.6995 -1.818,8.9685 -4.7685,12.174 z M 22.253,55.25 c 0,9.9405 8.0565,17.997 17.997,17.997 5.424,0 19.4685,0 23.997,0 6.627,0 11.9985,-5.373 11.9985,-11.997 0,-6.627 -5.3715,-12 -11.9985,-12 -2.4,0 -4.6245,0.723 -6.501,1.9365 -1.8465,-7.974 -8.9595,-13.935 -17.496,-13.935 -9.9405,0 -17.997,8.058 -17.997,17.9985 z M 51.5765,34.106 c 0.0015,0 0.003,0 0.003,0 0,0 -0.0015,0 -0.003,0 z M 63.065,27.0635 c -4.35,0.996 -7.7625,4.365 -8.8875,8.6625 v 0 c 2.877,2.058 5.2845,4.728 7.02,7.83 0.996,-0.1695 2.0055,-0.3075 3.0495,-0.3075 3.927,0 7.5495,1.275 10.5075,3.4065 v 0 c 1.287,-1.4685 2.2275,-3.252 2.679,-5.223 C 70.154,40.076 64.421,34.3475 63.065,27.0635 Z"
   id="path1"
   style="stroke-width:1.5" />&#10;</svg>
