<?xml version="1.0" encoding="UTF-8" standalone="no"?>
<!-- Generator: Adobe Illustrator 15.1.0, SVG Export Plug-In . SVG Version: 6.00 Build 0)  -->

<svg
   version="1.1"
   id="Layer_1"
   x="0px"
   y="0px"
   width="185.99699"
   height="185.99699"
   viewBox="0 0 236.21815 236.21814"
   enable-background="new 0 0 100 100"
   xml:space="preserve"
   sodipodi:docname="02n.svg"
   inkscape:version="1.3 (0e150ed6c4, 2023-07-21)"
   xmlns:inkscape="http://www.inkscape.org/namespaces/inkscape"
   xmlns:sodipodi="http://sodipodi.sourceforge.net/DTD/sodipodi-0.dtd"
   xmlns="http://www.w3.org/2000/svg"
   xmlns:svg="http://www.w3.org/2000/svg"><defs
   id="defs1" /><sodipodi:namedview
   id="namedview1"
   pagecolor="#ffffff"
   bordercolor="#000000"
   borderopacity="0.25"
   inkscape:showpageshadow="2"
   inkscape:pageopacity="0.0"
   inkscape:pagecheckerboard="0"
   inkscape:deskcolor="#d1d1d1"
   inkscape:zoom="2.8743891"
   inkscape:cx="93.411153"
   inkscape:cy="64.535452"
   inkscape:window-width="1920"
   inkscape:window-height="1009"
   inkscape:window-x="-8"
   inkscape:window-y="-8"
   inkscape:window-maximized="1"
   inkscape:current-layer="Layer_1" />&#10;<path
   fill-rule="evenodd"
   clip-rule="evenodd"
   d="m 219.52857,121.34832 v 0 c 7.182,10.23225 11.43975,22.6695 11.43975,36.13575 0,34.78125 -28.19775,62.9895 -62.9895,62.9895 -14.56875,0 -67.20525,0 -83.989498,0 -46.389,0 -83.9894995,-37.6005 -83.9894995,-83.9895 0,-46.388998 37.6004995,-83.989498 83.9894995,-83.989498 10.5105,0 20.548498,1.96875 29.819998,5.49675 v 0 c 8.58375,-24.5805 31.9095,-42.24675 59.4195,-42.24675 3.96375,0 7.82775,0.4095 11.58675,1.113 -0.68775,3.01875 -1.08675,6.15825 -1.08675,9.387 0,23.1945 18.80025,41.99475 41.9895,41.99475 3.234,0 6.36825,-0.399 9.39225,-1.092 0.69825,3.76425 1.10775,7.62825 1.10775,11.592 -0.005,16.44825 -6.363,31.389748 -16.68975,42.608998 z M 20.994572,136.48407 c 0,34.79175 28.19775,62.9895 62.9895,62.9895 18.983998,0 68.139748,0 83.989498,0 23.1945,0 41.99475,-18.8055 41.99475,-41.9895 0,-23.1945 -18.80025,-42 -41.99475,-42 -8.4,0 -16.18575,2.5305 -22.7535,6.77775 -6.46275,-27.908998 -31.35825,-48.772498 -61.235998,-48.772498 -34.79175,0 -62.9895,28.202998 -62.9895,62.994748 z M 123.62682,62.480072 c 0.005,0 0.0105,0 0.0105,0 0,0 -0.005,0 -0.0105,0 z m 40.20975,-24.64875 c -15.225,3.486 -27.16875,15.2775 -31.10625,30.31875 v 0 c 10.0695,7.203 18.49575,16.548 24.57,27.405 3.486,-0.59325 7.01925,-1.07625 10.67325,-1.07625 13.7445,0 26.42325,4.4625 36.77625,11.922748 v 0 c 4.5045,-5.13975 7.79625,-11.381998 9.3765,-18.280498 -25.47825,-4.746 -45.54375,-24.79575 -50.28975,-50.28975 z"
   id="path1"
   style="stroke-width:5.25" />&#10;</svg>
