<?xml version="1.0" encoding="UTF-8" standalone="no"?>
<!-- Generator: Adobe Illustrator 15.1.0, SVG Export Plug-In . SVG Version: 6.00 Build 0)  -->

<svg
   version="1.1"
   id="Layer_1"
   x="0px"
   y="0px"
   width="177.254"
   height="177.254"
   viewBox="0 0 230.97395 230.97395"
   enable-background="new 0 0 100 100"
   xml:space="preserve"
   sodipodi:docname="03d.svg"
   inkscape:version="1.3 (0e150ed6c4, 2023-07-21)"
   xmlns:inkscape="http://www.inkscape.org/namespaces/inkscape"
   xmlns:sodipodi="http://sodipodi.sourceforge.net/DTD/sodipodi-0.dtd"
   xmlns="http://www.w3.org/2000/svg"
   xmlns:svg="http://www.w3.org/2000/svg"><defs
   id="defs1" /><sodipodi:namedview
   id="namedview1"
   pagecolor="#ffffff"
   bordercolor="#000000"
   borderopacity="0.25"
   inkscape:showpageshadow="2"
   inkscape:pageopacity="0.0"
   inkscape:pagecheckerboard="0"
   inkscape:deskcolor="#d1d1d1"
   inkscape:zoom="2.0325"
   inkscape:cx="88.314883"
   inkscape:cy="32.718327"
   inkscape:window-width="1920"
   inkscape:window-height="1009"
   inkscape:window-x="-8"
   inkscape:window-y="-8"
   inkscape:window-maximized="1"
   inkscape:current-layer="Layer_1" />&#10;&#10;<path
   fill-rule="evenodd"
   clip-rule="evenodd"
   d="m 83.989605,199.47647 c -46.38375,0 -83.9895,-37.6005 -83.9895,-83.98949 0,-46.389005 37.60575,-83.989505 83.9895,-83.989505 31.521005,0 58.952245,17.388 73.316245,43.06575 3.486,-0.59325 7.0245,-1.07625 10.67324,-1.07625 34.79176,0 62.99475,28.208245 62.99475,62.999995 0,34.78125 -28.20299,62.9895 -62.99475,62.9895 -14.56874,0 -67.19999,0 -83.989485,0 z m 83.989485,-21 c 23.1945,0 42.00001,-18.8055 42.00001,-41.9895 0,-23.1945 -18.80551,-41.999995 -42.00001,-41.999995 -8.39999,0 -16.18049,2.52525 -22.74824,6.777755 -6.46275,-27.909005 -31.36349,-48.772505 -61.241245,-48.772505 -34.7865,0 -62.9895,28.203 -62.9895,62.994755 0,34.78649 28.203,62.98949 62.9895,62.98949 18.989245,0 68.139745,0 83.989485,0 z"
   id="path1"
   style="fill:#000000;stroke-width:5.25" /></svg>
