<?xml version="1.0" encoding="UTF-8" standalone="no"?>
<!-- Generator: Adobe Illustrator 15.1.0, SVG Export Plug-In . SVG Version: 6.00 Build 0)  -->

<svg
   version="1.1"
   id="Layer_1"
   x="0px"
   y="0px"
   width="100px"
   height="100px"
   viewBox="0 0 100 100"
   enable-background="new 0 0 100 100"
   xml:space="preserve"
   sodipodi:docname="03n.svg"
   inkscape:version="1.3 (0e150ed6c4, 2023-07-21)"
   xmlns:inkscape="http://www.inkscape.org/namespaces/inkscape"
   xmlns:sodipodi="http://sodipodi.sourceforge.net/DTD/sodipodi-0.dtd"
   xmlns="http://www.w3.org/2000/svg"
   xmlns:svg="http://www.w3.org/2000/svg"><defs
   id="defs1" /><sodipodi:namedview
   id="namedview1"
   pagecolor="#ffffff"
   bordercolor="#000000"
   borderopacity="0.25"
   inkscape:showpageshadow="2"
   inkscape:pageopacity="0.0"
   inkscape:pagecheckerboard="0"
   inkscape:deskcolor="#d1d1d1"
   inkscape:zoom="8.13"
   inkscape:cx="50"
   inkscape:cy="50"
   inkscape:window-width="1920"
   inkscape:window-height="1009"
   inkscape:window-x="-8"
   inkscape:window-y="-8"
   inkscape:window-maximized="1"
   inkscape:current-layer="Layer_1" />&#10;&#10;<path
   fill-rule="evenodd"
   clip-rule="evenodd"
   d="m 41.00075,73.997 c -13.2525,0 -23.997,-10.743 -23.997,-23.997 0,-13.254 10.7445,-23.997 23.997,-23.997 9.006,0 16.8435,4.968 20.9475,12.3045 0.996,-0.1695 2.007,-0.3075 3.0495,-0.3075 9.9405,0 17.9985,8.0595 17.9985,18 0,9.9375 -8.058,17.997 -17.9985,17.997 -4.1625,0 -19.2,0 -23.997,0 z m 23.997,-6 c 6.627,0 12,-5.373 12,-11.997 0,-6.627 -5.373,-12 -12,-12 -2.4,0 -4.623,0.7215 -6.4995,1.9365 -1.8465,-7.974 -8.961,-13.935 -17.4975,-13.935 -9.939,0 -17.997,8.058 -17.997,17.9985 0,9.939 8.058,17.997 17.997,17.997 5.4255,0 19.4685,0 23.997,0 z"
   id="path1"
   style="fill:#000000;stroke-width:1.5" /></svg>
