<?xml version="1.0" encoding="UTF-8" standalone="no"?>
<!-- Generator: Adobe Illustrator 15.1.0, SVG Export Plug-In . SVG Version: 6.00 Build 0)  -->

<svg
   version="1.1"
   id="Layer_1"
   x="0px"
   y="0px"
   width="100px"
   height="100px"
   viewBox="0 0 100 100"
   enable-background="new 0 0 100 100"
   xml:space="preserve"
   sodipodi:docname="04d.svg"
   inkscape:version="1.3 (0e150ed6c4, 2023-07-21)"
   xmlns:inkscape="http://www.inkscape.org/namespaces/inkscape"
   xmlns:sodipodi="http://sodipodi.sourceforge.net/DTD/sodipodi-0.dtd"
   xmlns="http://www.w3.org/2000/svg"
   xmlns:svg="http://www.w3.org/2000/svg"><defs
   id="defs1" /><sodipodi:namedview
   id="namedview1"
   pagecolor="#ffffff"
   bordercolor="#000000"
   borderopacity="0.25"
   inkscape:showpageshadow="2"
   inkscape:pageopacity="0.0"
   inkscape:pagecheckerboard="0"
   inkscape:deskcolor="#d1d1d1"
   inkscape:zoom="8.13"
   inkscape:cx="50"
   inkscape:cy="50"
   inkscape:window-width="1920"
   inkscape:window-height="1009"
   inkscape:window-x="-8"
   inkscape:window-y="-8"
   inkscape:window-maximized="1"
   inkscape:current-layer="Layer_1" />&#10;&#10;<g
   id="g4"
   transform="matrix(1.5,0,0,1.5,-32.995256,-21.858134)"><path
     style="fill:#000000;stroke-width:4.1"
     d="m 66.937577,53.509498 c -0.927583,-0.679172 -2.634438,-1.534464 -3.911204,-1.959873 -1.934359,-0.644516 -2.98293,-0.806284 -5.215795,-0.80467 -2.151363,0.0016 -3.2275,0.160525 -4.974153,0.734801 -1.039498,0.341774 -1.03395,0.344078 -2.353337,-0.977434 -1.466111,-1.468472 -2.588935,-3.407638 -3.155083,-5.448966 -0.223164,-0.80465 -0.265221,-1.281245 -0.263577,-2.986935 0.0018,-1.852603 0.03114,-2.126021 0.33675,-3.136532 0.64052,-2.117902 1.460948,-3.528437 2.958949,-5.087225 4.040012,-4.20395 10.393809,-4.875564 15.21122,-1.607867 2.174011,1.474653 4.061242,4.056624 4.73414,6.476904 l 0.207022,0.744617 0.998358,-0.478755 c 4.27056,-2.047913 9.136787,-0.01941 10.879529,4.535162 0.282998,0.7396 0.317864,1.008681 0.32261,2.489735 0.0046,1.432546 -0.03548,1.785068 -0.291828,2.567738 -0.627116,1.914642 -2.157137,3.668253 -3.978382,4.559766 -1.709292,0.836713 -1.953284,0.868264 -6.666671,0.862104 l -4.186949,-0.0055 z"
     id="path2" /><g
     id="g3"><path
       fill-rule="evenodd"
       clip-rule="evenodd"
       d="m 43.945,65.639 c -8.835,0 -15.998,-7.162 -15.998,-15.998 0,-8.836 7.163,-15.998 15.998,-15.998 6.004,0 11.229,3.312 13.965,8.203 0.664,-0.113 1.338,-0.205 2.033,-0.205 6.627,0 11.999,5.373 11.999,12 0,6.625 -5.372,11.998 -11.999,11.998 -2.775,0 -12.8,0 -15.998,0 z m 15.998,-4 c 4.418,0 8,-3.582 8,-7.998 0,-4.418 -3.582,-8 -8,-8 -1.6,0 -3.082,0.481 -4.333,1.291 -1.231,-5.316 -5.974,-9.29 -11.665,-9.29 -6.626,0 -11.998,5.372 -11.998,11.999 0,6.626 5.372,11.998 11.998,11.998 3.617,0 12.979,0 15.998,0 z"
       id="path1"
       style="fill:#000000" /><path
       style="fill:#ffffff;stroke-width:4.1"
       d="m 42.927429,61.539712 c -5.096102,-0.527178 -9.243918,-4.05498 -10.53083,-8.956686 -0.438362,-1.669671 -0.467648,-4.016675 -0.07026,-5.630298 1.048654,-4.258089 4.114287,-7.482119 8.352398,-8.783952 0.992523,-0.304876 1.254847,-0.332373 3.232698,-0.338849 2.356696,-0.0077 3.124464,0.137429 4.870292,0.920729 2.971798,1.333356 5.429938,4.057634 6.44359,7.141225 0.142304,0.432897 0.281693,0.854664 0.309752,0.93726 0.03534,0.104035 0.326605,0.0202 0.948008,-0.272867 1.241468,-0.585503 2.17395,-0.799816 3.480019,-0.799816 3.449811,0 6.352643,2.113796 7.518338,5.474735 0.296815,0.855779 0.340525,1.165684 0.338127,2.397343 -0.0023,1.196759 -0.05321,1.567481 -0.330508,2.408169 -0.96717,2.932181 -3.477854,5.029951 -6.527718,5.454147 -0.879953,0.12239 -16.903448,0.165804 -18.03391,0.04886 z"
       id="path3" /></g></g></svg>
