<?xml version="1.0" encoding="UTF-8" standalone="no"?>
<!-- Generator: Adobe Illustrator 15.1.0, SVG Export Plug-In . SVG Version: 6.00 Build 0)  -->

<svg
   version="1.1"
   id="Layer_1"
   x="0px"
   y="0px"
   width="255.871"
   height="255.871"
   viewBox="0 0 286.26152 286.26151"
   enable-background="new 0 0 100 100"
   xml:space="preserve"
   sodipodi:docname="04n.svg"
   inkscape:version="1.3 (0e150ed6c4, 2023-07-21)"
   xmlns:inkscape="http://www.inkscape.org/namespaces/inkscape"
   xmlns:sodipodi="http://sodipodi.sourceforge.net/DTD/sodipodi-0.dtd"
   xmlns="http://www.w3.org/2000/svg"
   xmlns:svg="http://www.w3.org/2000/svg"><defs
   id="defs1" /><sodipodi:namedview
   id="namedview1"
   pagecolor="#ffffff"
   bordercolor="#000000"
   borderopacity="0.25"
   inkscape:showpageshadow="2"
   inkscape:pageopacity="0.0"
   inkscape:pagecheckerboard="0"
   inkscape:deskcolor="#d1d1d1"
   inkscape:zoom="2.8743891"
   inkscape:cx="121.24315"
   inkscape:cy="30.441251"
   inkscape:window-width="1920"
   inkscape:window-height="1009"
   inkscape:window-x="-8"
   inkscape:window-y="-8"
   inkscape:window-maximized="1"
   inkscape:current-layer="Layer_1" />&#10;&#10;<g
   id="g1"
   transform="translate(0,51.539774)"><g
     id="g3"
     transform="matrix(5.25,0,0,5.25,-91.43449,-176.62575)"><path
       fill-rule="evenodd"
       clip-rule="evenodd"
       d="m 43.945,65.639 c -8.835,0 -15.998,-7.162 -15.998,-15.998 0,-8.836 7.163,-15.998 15.998,-15.998 6.004,0 11.229,3.312 13.965,8.203 0.664,-0.113 1.338,-0.205 2.033,-0.205 6.627,0 11.999,5.373 11.999,12 0,6.625 -5.372,11.998 -11.999,11.998 -2.775,0 -12.8,0 -15.998,0 z m 15.998,-4 c 4.418,0 8,-3.582 8,-7.998 0,-4.418 -3.582,-8 -8,-8 -1.6,0 -3.082,0.481 -4.333,1.291 -1.231,-5.316 -5.974,-9.29 -11.665,-9.29 -6.626,0 -11.998,5.372 -11.998,11.999 0,6.626 5.372,11.998 11.998,11.998 3.617,0 12.979,0 15.998,0 z"
       id="path1"
       style="fill:#000000" /></g><path
     style="fill:#000000;stroke-width:11.5966"
     d="m 54.685085,182.82094 c -17.93996,-2.31053 -34.56651,-12.81856 -44.54991,-28.15568 -17.2327901,-26.47409 -12.0286601,-61.744409 12.10158,-82.0168 12.73358,-10.697785 29.41409,-16.143036 45.14003,-14.735688 15.95214,1.42759 29.128764,7.601537 39.944285,18.716017 7.51904,7.726879 12.65174,16.388139 15.46413,26.095231 0.54604,1.88467 1.02826,3.47798 1.0716,3.54068 0.0434,0.0627 2.01054,-0.83663 4.37154,-1.99852 2.361,-1.16189 5.64097,-2.49343 7.28883,-2.95898 21.16497,-5.979552 43.3411,5.65466 50.67833,26.58724 7.62017,21.7398 -4.28961,45.85159 -26.28839,53.22186 -6.46366,2.16552 -4.63285,2.09855 -56.04639,2.05024 -25.758685,-0.0242 -47.887715,-0.17972 -49.175635,-0.3456 z"
     id="path2" /></g></svg>
