<?xml version="1.0" encoding="UTF-8" standalone="no"?>
<!-- Generator: Adobe Illustrator 15.1.0, SVG Export Plug-In . SVG Version: 6.00 Build 0)  -->

<svg
   version="1.1"
   id="Layer_1"
   x="0px"
   y="0px"
   width="290.94101"
   height="290.94101"
   viewBox="0 0 314.95838 314.95839"
   enable-background="new 0 0 100 100"
   xml:space="preserve"
   sodipodi:docname="09d.svg"
   inkscape:version="1.3 (0e150ed6c4, 2023-07-21)"
   xmlns:inkscape="http://www.inkscape.org/namespaces/inkscape"
   xmlns:sodipodi="http://sodipodi.sourceforge.net/DTD/sodipodi-0.dtd"
   xmlns="http://www.w3.org/2000/svg"
   xmlns:svg="http://www.w3.org/2000/svg"><defs
   id="defs1" /><sodipodi:namedview
   id="namedview1"
   pagecolor="#ffffff"
   bordercolor="#000000"
   borderopacity="0.25"
   inkscape:showpageshadow="2"
   inkscape:pageopacity="0.0"
   inkscape:pagecheckerboard="0"
   inkscape:deskcolor="#d1d1d1"
   inkscape:zoom="2.0325"
   inkscape:cx="115.86716"
   inkscape:cy="145.87946"
   inkscape:window-width="1920"
   inkscape:window-height="1009"
   inkscape:window-x="-8"
   inkscape:window-y="-8"
   inkscape:window-maximized="1"
   inkscape:current-layer="Layer_1" />&#10;<path
   fill-rule="evenodd"
   clip-rule="evenodd"
   d="m 288.70819,136.479 h -20.99475 c -5.796,0 -10.5,-4.69875 -10.5,-10.5 0,-5.796 4.704,-10.49475 10.5,-10.49475 h 20.99475 c 5.796,0 10.5,4.69875 10.5,10.49475 0,5.80125 -4.69875,10.5 -10.5,10.5 z m -41.244,-69.888 c -4.10025,4.10025 -10.752,4.10025 -14.847,0 -4.10025,-4.095 -4.10025,-10.74675 0,-14.84175 l 14.847,-14.847 c 4.095,-4.10025 10.74675,-4.10025 14.847,0 4.095,4.095 4.095,10.74675 0,14.847 z m -15.47175,81.93675 v 0 c 9.18225,10.9515 14.72625,25.0425 14.72625,40.45125 0,27.41025 -17.5455,50.673 -41.99475,59.33025 V 225.309 c 12.54225,-7.27125 21,-20.79525 21,-36.33 0,-23.1945 -18.8055,-42 -41.99475,-42 -8.40525,0 -16.191,2.5305 -22.7535,6.77775 -6.46275,-27.909 -31.35825,-48.7725 -61.235998,-48.7725 -34.79175,0 -62.99475,28.203 -62.99475,62.99475 0,18.63225 8.14275,35.32725 21,46.8615 v 25.7985 c -25.07925,-14.532 -41.99475,-41.5905 -41.99475,-72.66 0,-46.389 37.6005,-83.9895 83.9895,-83.9895 8.252998,0 16.217248,1.218 23.745748,3.4335 11.52375,-14.84175 29.48925,-24.4335 49.74375,-24.4335 34.79175,0 62.9895,28.203 62.9895,62.9895 -0.005,7.95375 -1.53825,15.54525 -4.22625,22.54875 z M 173.22394,83.9895 c -11.61825,0 -22.12875,4.7145 -29.73075,12.3375 12.29025,7.539 22.5015,18.123 29.5575,30.72825 3.486,-0.59325 7.014,-1.07625 10.67325,-1.07625 11.15625,0 21.6195,2.93475 30.7125,8.01675 v 0 c 0.504,-2.5935 0.78225,-5.271 0.78225,-8.01675 0,-23.18925 -18.80025,-41.9895 -41.99475,-41.9895 z m 0,-42 c -5.796,0 -10.5,-4.69875 -10.5,-10.49475 V 10.5 c 0,-5.80125 4.704,-10.5 10.5,-10.5 5.796,0 10.5,4.69875 10.5,10.5 v 20.99475 c 0,5.80125 -4.69875,10.49475 -10.5,10.49475 z M 98.988942,66.591 84.141942,51.74925 c -4.095,-4.10025 -4.095,-10.752 0,-14.847 4.10025,-4.10025 10.74675,-4.10025 14.847,0 l 14.846998,14.847 c 4.10025,4.095 4.10025,10.74675 0,14.84175 -4.10025,4.10025 -10.74675,4.10025 -14.846998,0 z m -9.7545,122.388 c 5.796,0 10.5,4.69875 10.5,10.5 v 20.9895 c 0,5.80125 -4.704,10.5 -10.5,10.5 -5.796,0 -10.5,-4.69875 -10.5,-10.5 V 199.479 c 0,-5.8065 4.704,-10.5 10.5,-10.5 z m 0,62.9895 c 5.796,0 10.5,4.69875 10.5,10.5 v 20.9895 c 0,5.80125 -4.704,10.5 -10.5,10.5 -5.796,0 -10.5,-4.69875 -10.5,-10.5 v -20.9895 c 0,-5.8065 4.704,-10.5 10.5,-10.5 z m 41.994748,-42 c 5.796,0 10.5,4.704 10.5,10.5 v 21 c 0,5.796 -4.704,10.5 -10.5,10.5 -5.796,0 -10.5,-4.704 -10.5,-10.5 v -21 c 0,-5.796 4.704,-10.5 10.5,-10.5 z m 0,63 c 5.796,0 10.5,4.69875 10.5,10.4895 v 21 c 0,5.80125 -4.704,10.5 -10.5,10.5 -5.796,0 -10.5,-4.69875 -10.5,-10.5 v -21 c 0,-5.796 4.704,-10.4895 10.5,-10.4895 z m 41.99475,-83.9895 c 5.796,0 10.5,4.69875 10.5,10.5 v 20.9895 c 0,5.80125 -4.704,10.5 -10.5,10.5 -5.796,0 -10.5,-4.69875 -10.5,-10.5 V 199.479 c 0,-5.8065 4.704,-10.5 10.5,-10.5 z m 0,62.9895 c 5.796,0 10.5,4.69875 10.5,10.5 v 20.9895 c 0,5.80125 -4.704,10.5 -10.5,10.5 -5.796,0 -10.5,-4.69875 -10.5,-10.5 v -20.9895 c 0,-5.8065 4.704,-10.5 10.5,-10.5 z"
   id="path1"
   style="stroke-width:5.25" />&#10;</svg>
