<?xml version="1.0" encoding="UTF-8" standalone="no"?>
<!-- Generator: Adobe Illustrator 15.1.0, SVG Export Plug-In . SVG Version: 6.00 Build 0)  -->

<svg
   version="1.1"
   id="Layer_1"
   x="0px"
   y="0px"
   width="100px"
   height="100px"
   viewBox="0 0 100 100"
   enable-background="new 0 0 100 100"
   xml:space="preserve"
   sodipodi:docname="09d.svg"
   inkscape:version="1.3 (0e150ed6c4, 2023-07-21)"
   xmlns:inkscape="http://www.inkscape.org/namespaces/inkscape"
   xmlns:sodipodi="http://sodipodi.sourceforge.net/DTD/sodipodi-0.dtd"
   xmlns="http://www.w3.org/2000/svg"
   xmlns:svg="http://www.w3.org/2000/svg"><defs
   id="defs1" /><sodipodi:namedview
   id="namedview1"
   pagecolor="#ffffff"
   bordercolor="#000000"
   borderopacity="0.25"
   inkscape:showpageshadow="2"
   inkscape:pageopacity="0.0"
   inkscape:pagecheckerboard="0"
   inkscape:deskcolor="#d1d1d1"
   inkscape:zoom="8.13"
   inkscape:cx="50"
   inkscape:cy="50"
   inkscape:window-width="1920"
   inkscape:window-height="1009"
   inkscape:window-x="-8"
   inkscape:window-y="-8"
   inkscape:window-maximized="1"
   inkscape:current-layer="Layer_1" />&#10;<path
   fill-rule="evenodd"
   clip-rule="evenodd"
   d="m 87.494,44 h -5.9985 c -1.656,0 -3,-1.3425 -3,-3 0,-1.656 1.344,-2.9985 3,-2.9985 h 5.9985 c 1.656,0 3,1.3425 3,2.9985 0,1.6575 -1.3425,3 -3,3 z M 75.71,24.032 c -1.1715,1.1715 -3.072,1.1715 -4.242,0 -1.1715,-1.17 -1.1715,-3.0705 0,-4.2405 l 4.242,-4.242 c 1.17,-1.1715 3.0705,-1.1715 4.242,0 1.17,1.17 1.17,3.0705 0,4.242 z m -4.4205,23.4105 v 0 c 2.6235,3.129 4.2075,7.155 4.2075,11.5575 0,7.8315 -5.013,14.478 -11.9985,16.9515 V 69.38 c 3.5835,-2.0775 6,-5.9415 6,-10.38 0,-6.627 -5.373,-12 -11.9985,-12 -2.4015,0 -4.626,0.723 -6.501,1.9365 -1.8465,-7.974 -8.9595,-13.935 -17.496,-13.935 -9.9405,0 -17.9985,8.058 -17.9985,17.9985 0,5.3235 2.3265,10.0935 6,13.389 V 73.76 C 14.339,69.608 9.506,61.877 9.506,53 c 0,-13.254 10.743,-23.997 23.997,-23.997 2.358,0 4.6335,0.348 6.7845,0.981 3.2925,-4.2405 8.4255,-6.981 14.2125,-6.981 9.9405,0 17.997,8.058 17.997,17.997 -0.0015,2.2725 -0.4395,4.4415 -1.2075,6.4425 z M 54.4985,29.003 c -3.3195,0 -6.3225,1.347 -8.4945,3.525 3.5115,2.154 6.429,5.178 8.445,8.7795 C 55.445,41.138 56.453,41 57.4985,41 c 3.1875,0 6.177,0.8385 8.775,2.2905 v 0 c 0.144,-0.741 0.2235,-1.506 0.2235,-2.2905 0,-6.6255 -5.3715,-11.997 -11.9985,-11.997 z m 0,-12 c -1.656,0 -3,-1.3425 -3,-2.9985 V 8.006 c 0,-1.6575 1.344,-3 3,-3 1.656,0 3,1.3425 3,3 v 5.9985 c 0,1.6575 -1.3425,2.9985 -3,2.9985 z m -21.21,7.029 -4.242,-4.2405 c -1.17,-1.1715 -1.17,-3.072 0,-4.242 1.1715,-1.1715 3.0705,-1.1715 4.242,0 l 4.242,4.242 c 1.1715,1.17 1.1715,3.0705 0,4.2405 -1.1715,1.1715 -3.0705,1.1715 -4.242,0 z M 30.5015,59 c 1.656,0 3,1.3425 3,3 v 5.997 c 0,1.6575 -1.344,3 -3,3 -1.656,0 -3,-1.3425 -3,-3 V 62 c 0,-1.659 1.344,-3 3,-3 z m 0,17.997 c 1.656,0 3,1.3425 3,3 v 5.997 c 0,1.6575 -1.344,3 -3,3 -1.656,0 -3,-1.3425 -3,-3 v -5.997 c 0,-1.659 1.344,-3 3,-3 z m 11.9985,-12 c 1.656,0 3,1.344 3,3 v 6 c 0,1.656 -1.344,3 -3,3 -1.656,0 -3,-1.344 -3,-3 v -6 c 0,-1.656 1.344,-3 3,-3 z m 0,18 c 1.656,0 3,1.3425 3,2.997 v 6 c 0,1.6575 -1.344,3 -3,3 -1.656,0 -3,-1.3425 -3,-3 v -6 c 0,-1.656 1.344,-2.997 3,-2.997 z M 54.4985,59 c 1.656,0 3,1.3425 3,3 v 5.997 c 0,1.6575 -1.344,3 -3,3 -1.656,0 -3,-1.3425 -3,-3 V 62 c 0,-1.659 1.344,-3 3,-3 z m 0,17.997 c 1.656,0 3,1.3425 3,3 v 5.997 c 0,1.6575 -1.344,3 -3,3 -1.656,0 -3,-1.3425 -3,-3 v -5.997 c 0,-1.659 1.344,-3 3,-3 z"
   id="path1"
   style="stroke-width:1.5" />&#10;</svg>
