<?xml version="1.0" encoding="UTF-8" standalone="no"?>
<!-- Generator: Adobe Illustrator 15.1.0, SVG Export Plug-In . SVG Version: 6.00 Build 0)  -->

<svg
   version="1.1"
   id="Layer_1"
   x="0px"
   y="0px"
   width="210.646"
   height="210.646"
   viewBox="0 0 267.7183 267.7183"
   enable-background="new 0 0 100 100"
   xml:space="preserve"
   sodipodi:docname="09n.svg"
   inkscape:version="1.3 (0e150ed6c4, 2023-07-21)"
   xmlns:inkscape="http://www.inkscape.org/namespaces/inkscape"
   xmlns:sodipodi="http://sodipodi.sourceforge.net/DTD/sodipodi-0.dtd"
   xmlns="http://www.w3.org/2000/svg"
   xmlns:svg="http://www.w3.org/2000/svg"><defs
   id="defs1" /><sodipodi:namedview
   id="namedview1"
   pagecolor="#ffffff"
   bordercolor="#000000"
   borderopacity="0.25"
   inkscape:showpageshadow="2"
   inkscape:pageopacity="0.0"
   inkscape:pagecheckerboard="0"
   inkscape:deskcolor="#d1d1d1"
   inkscape:zoom="2.0325"
   inkscape:cx="76.99877"
   inkscape:cy="105.04305"
   inkscape:window-width="1920"
   inkscape:window-height="1009"
   inkscape:window-x="-8"
   inkscape:window-y="-8"
   inkscape:window-maximized="1"
   inkscape:current-layer="Layer_1" />&#10;<path
   fill-rule="evenodd"
   clip-rule="evenodd"
   d="m 235.2734,105.60375 v 0 c 7.18725,10.23225 11.445,22.6695 11.445,36.13575 0,27.41025 -17.5455,50.673 -41.9895,59.33025 V 178.0695 c 12.54225,-7.27125 20.9895,-20.79525 20.9895,-36.33 0,-23.1945 -18.795,-42 -41.9895,-42 -8.4,0 -16.191,2.5305 -22.7535,6.77775 -6.4575,-27.909 -31.35825,-48.7725 -61.236,-48.7725 -34.79175,0 -62.9895,28.203 -62.9895,62.99475 0,18.63225 8.13225,35.32725 20.9895,46.8615 v 25.7985 c -25.06875,-14.532 -41.9895,-41.5905 -41.9895,-72.66 0,-46.389 37.6005,-83.9895 83.9895,-83.9895 10.5105,0 20.5485,1.96875 29.82,5.49675 v 0 C 138.14315,17.66625 161.4689,0 188.9789,0 c 3.969,0 7.8225,0.4095 11.58675,1.113 -0.68775,3.01875 -1.08675,6.15825 -1.08675,9.387 0,23.1945 18.795,41.99475 41.9895,41.99475 3.22875,0 6.36825,-0.399 9.39225,-1.092 0.69825,3.76425 1.10775,7.62825 1.10775,11.592 -0.005,16.44825 -6.363,31.3845 -16.695,42.609 z m -55.692,-83.517 c -15.225,3.486 -27.1635,15.2775 -31.101,30.31875 v 0 c 10.0695,7.203 18.49575,16.548 24.57,27.41025 3.486,-0.59325 7.014,-1.07625 10.67325,-1.07625 13.73925,0 26.42325,4.45725 36.7815,11.92275 v 0 c 4.49925,-5.13975 7.791,-11.382 9.37125,-18.2805 -25.47825,-4.75125 -45.54375,-24.80625 -50.295,-50.295 z M 89.23415,141.7395 c 5.80125,0 10.5,4.69875 10.5,10.5 v 20.9895 c 0,5.80125 -4.69875,10.5 -10.5,10.5 -5.796,0 -10.5,-4.69875 -10.5,-10.5 v -20.9895 c 0,-5.8065 4.70925,-10.5 10.5,-10.5 z m 0,62.9895 c 5.80125,0 10.5,4.69875 10.5,10.5 v 20.9895 c 0,5.80125 -4.69875,10.5 -10.5,10.5 -5.796,0 -10.5,-4.69875 -10.5,-10.5 V 215.229 c 0,-5.8065 4.70925,-10.5 10.5,-10.5 z m 42,-42 c 5.796,0 10.4895,4.704 10.4895,10.5 v 21 c 0,5.796 -4.69875,10.5 -10.4895,10.5 -5.80125,0 -10.5,-4.704 -10.5,-10.5 v -21 c 0,-5.796 4.69875,-10.5 10.5,-10.5 z m 0,63 c 5.796,0 10.4895,4.69875 10.4895,10.4895 v 21 c 0,5.80125 -4.69875,10.5 -10.4895,10.5 -5.80125,0 -10.5,-4.69875 -10.5,-10.5 v -21 c 0,-5.796 4.69875,-10.4895 10.5,-10.4895 z m 41.9895,-83.9895 c 5.80125,0 10.5,4.69875 10.5,10.5 v 20.9895 c 0,5.80125 -4.69875,10.5 -10.5,10.5 -5.796,0 -10.5,-4.69875 -10.5,-10.5 v -20.9895 c 0,-5.8065 4.70925,-10.5 10.5,-10.5 z m 0,62.9895 c 5.80125,0 10.5,4.69875 10.5,10.5 v 20.9895 c 0,5.80125 -4.69875,10.5 -10.5,10.5 -5.796,0 -10.5,-4.69875 -10.5,-10.5 V 215.229 c 0,-5.8065 4.70925,-10.5 10.5,-10.5 z"
   id="path1"
   style="stroke-width:5.25" />&#10;</svg>
