<?xml version="1.0" encoding="UTF-8" standalone="no"?>
<!-- Generator: Adobe Illustrator 15.1.0, SVG Export Plug-In . SVG Version: 6.00 Build 0)  -->

<svg
   version="1.1"
   id="Layer_1"
   x="0px"
   y="0px"
   width="100px"
   height="100px"
   viewBox="0 0 100 100"
   enable-background="new 0 0 100 100"
   xml:space="preserve"
   sodipodi:docname="09n.svg"
   inkscape:version="1.3 (0e150ed6c4, 2023-07-21)"
   xmlns:inkscape="http://www.inkscape.org/namespaces/inkscape"
   xmlns:sodipodi="http://sodipodi.sourceforge.net/DTD/sodipodi-0.dtd"
   xmlns="http://www.w3.org/2000/svg"
   xmlns:svg="http://www.w3.org/2000/svg"><defs
   id="defs1" /><sodipodi:namedview
   id="namedview1"
   pagecolor="#ffffff"
   bordercolor="#000000"
   borderopacity="0.25"
   inkscape:showpageshadow="2"
   inkscape:pageopacity="0.0"
   inkscape:pagecheckerboard="0"
   inkscape:deskcolor="#d1d1d1"
   inkscape:zoom="8.13"
   inkscape:cx="50"
   inkscape:cy="50"
   inkscape:window-width="1920"
   inkscape:window-height="1009"
   inkscape:window-x="-8"
   inkscape:window-y="-8"
   inkscape:window-maximized="1"
   inkscape:current-layer="Layer_1" />&#10;<path
   fill-rule="evenodd"
   clip-rule="evenodd"
   d="m 78.9755,41.927 v 0 c 2.0535,2.9235 3.27,6.477 3.27,10.3245 0,7.8315 -5.013,14.478 -11.997,16.9515 v -6.5715 c 3.5835,-2.0775 5.997,-5.9415 5.997,-10.38 0,-6.627 -5.37,-12 -11.997,-12 -2.4,0 -4.626,0.723 -6.501,1.9365 -1.845,-7.974 -8.9595,-13.935 -17.496,-13.935 -9.9405,0 -17.997,8.058 -17.997,17.9985 0,5.3235 2.3235,10.0935 5.997,13.389 v 7.371 c -7.1625,-4.152 -11.997,-11.883 -11.997,-20.76 0,-13.254 10.743,-23.997 23.997,-23.997 3.003,0 5.871,0.5625 8.52,1.5705 v 0 c 2.4525,-7.023 9.117,-12.0705 16.977,-12.0705 1.134,0 2.235,0.117 3.3105,0.318 -0.1965,0.8625 -0.3105,1.7595 -0.3105,2.682 0,6.627 5.37,11.9985 11.997,11.9985 0.9225,0 1.8195,-0.114 2.6835,-0.312 0.1995,1.0755 0.3165,2.1795 0.3165,3.312 -0.0015,4.6995 -1.818,8.967 -4.77,12.174 z M 63.0635,18.065 c -4.35,0.996 -7.761,4.365 -8.886,8.6625 v 0 c 2.877,2.058 5.2845,4.728 7.02,7.8315 0.996,-0.1695 2.004,-0.3075 3.0495,-0.3075 3.9255,0 7.5495,1.2735 10.509,3.4065 v 0 c 1.2855,-1.4685 2.226,-3.252 2.6775,-5.223 C 70.154,31.0775 64.421,25.3475 63.0635,18.065 Z M 37.25,52.2515 c 1.6575,0 3,1.3425 3,3 v 5.997 c 0,1.6575 -1.3425,3 -3,3 -1.656,0 -3,-1.3425 -3,-3 v -5.997 c 0,-1.659 1.3455,-3 3,-3 z m 0,17.997 c 1.6575,0 3,1.3425 3,3 v 5.997 c 0,1.6575 -1.3425,3 -3,3 -1.656,0 -3,-1.3425 -3,-3 v -5.997 c 0,-1.659 1.3455,-3 3,-3 z m 12,-12 c 1.656,0 2.997,1.344 2.997,3 v 6 c 0,1.656 -1.3425,3 -2.997,3 -1.6575,0 -3,-1.344 -3,-3 v -6 c 0,-1.656 1.3425,-3 3,-3 z m 0,18 c 1.656,0 2.997,1.3425 2.997,2.997 v 6 c 0,1.6575 -1.3425,3 -2.997,3 -1.6575,0 -3,-1.3425 -3,-3 v -6 c 0,-1.656 1.3425,-2.997 3,-2.997 z m 11.997,-23.997 c 1.6575,0 3,1.3425 3,3 v 5.997 c 0,1.6575 -1.3425,3 -3,3 -1.656,0 -3,-1.3425 -3,-3 v -5.997 c 0,-1.659 1.3455,-3 3,-3 z m 0,17.997 c 1.6575,0 3,1.3425 3,3 v 5.997 c 0,1.6575 -1.3425,3 -3,3 -1.656,0 -3,-1.3425 -3,-3 v -5.997 c 0,-1.659 1.3455,-3 3,-3 z"
   id="path1"
   style="stroke-width:1.5" />&#10;</svg>
