<?xml version="1.0" encoding="UTF-8" standalone="no"?>
<!-- Generator: Adobe Illustrator 15.1.0, SVG Export Plug-In . SVG Version: 6.00 Build 0)  -->

<svg
   version="1.1"
   id="Layer_1"
   x="0px"
   y="0px"
   width="278.59799"
   height="278.59799"
   viewBox="0 0 314.96299 314.96299"
   enable-background="new 0 0 100 100"
   xml:space="preserve"
   sodipodi:docname="10d.svg"
   inkscape:version="1.3 (0e150ed6c4, 2023-07-21)"
   xmlns:inkscape="http://www.inkscape.org/namespaces/inkscape"
   xmlns:sodipodi="http://sodipodi.sourceforge.net/DTD/sodipodi-0.dtd"
   xmlns="http://www.w3.org/2000/svg"
   xmlns:svg="http://www.w3.org/2000/svg"><defs
   id="defs1" /><sodipodi:namedview
   id="namedview1"
   pagecolor="#ffffff"
   bordercolor="#000000"
   borderopacity="0.25"
   inkscape:showpageshadow="2"
   inkscape:pageopacity="0.0"
   inkscape:pagecheckerboard="0"
   inkscape:deskcolor="#d1d1d1"
   inkscape:zoom="2.0325"
   inkscape:cx="109.9631"
   inkscape:cy="139.48339"
   inkscape:window-width="1920"
   inkscape:window-height="1009"
   inkscape:window-x="-8"
   inkscape:window-y="-8"
   inkscape:window-maximized="1"
   inkscape:current-layer="Layer_1" />&#10;<path
   fill-rule="evenodd"
   clip-rule="evenodd"
   d="m 288.71312,136.47899 h -21 c -5.796,0 -10.5,-4.69875 -10.5,-10.5 0,-5.796 4.704,-10.5 10.5,-10.5 h 21 c 5.796,0 10.5,4.704 10.5,10.5 0,5.8065 -4.704,10.5 -10.5,10.5 z M 247.46387,66.590995 c -4.10024,4.10025 -10.74674,4.10025 -14.847,0 -4.10025,-4.095 -4.10025,-10.74675 0,-14.847 l 14.847,-14.847 c 4.10025,-4.095 10.74674,-4.095 14.84701,0 4.10024,4.10025 4.10024,10.752 0,14.847 z m -15.47175,81.936745 v 0 c 9.1875,10.94101 14.72625,25.0425 14.72625,40.446 0,27.42076 -17.5455,50.67301 -41.9895,59.33025 v -23.00024 c 12.54225,-7.26076 21,-20.79526 21,-36.33001 0,-23.18925 -18.8055,-41.99475 -42,-41.99475 -8.4,0 -16.191,2.52 -22.7535,6.77775 -6.4575,-27.91425 -31.35825,-48.7725 -61.236004,-48.7725 -34.791746,0 -62.989496,28.203 -62.989496,62.9895 0,18.6375 8.14275,35.322 21,46.85625 v 25.809 c -25.07925,-14.532 -42,-41.5905 -42,-72.66525 0,-46.38375 37.6005,-83.984246 83.989496,-83.984246 8.253004,0 16.222504,1.21275 23.745754,3.4335 11.52375,-14.841749 29.48925,-24.433499 49.74375,-24.433499 34.79174,0 62.9895,28.197749 62.9895,62.989495 -0.005,7.959 -1.53301,15.54 -4.22625,22.54875 z m -58.7685,-64.538246 c -11.60775,0 -22.12875,4.7145 -29.7255,12.3375 12.285,7.533746 22.49625,18.122996 29.55225,30.733496 3.486,-0.59325 7.0245,-1.07625 10.67325,-1.07625 11.15625,0 21.62475,2.93475 30.71251,8.01675 v 0 c 0.50399,-2.5935 0.78749,-5.271 0.78749,-8.01675 0,-23.19975 -18.8055,-41.994746 -42,-41.994746 z m 0,-41.999999 c -5.796,0 -10.5,-4.69875 -10.5,-10.5 V 10.494745 C 162.72362,4.69875 167.42762,0 173.22362,0 c 5.80125,0 10.5,4.69875 10.5,10.494745 v 20.99475 c 0,5.8065 -4.6935,10.5 -10.5,10.5 z m -74.235004,24.6015 -14.847,-14.847 c -4.08975,-4.095 -4.08975,-10.74675 0,-14.847 4.10025,-4.095 10.75725,-4.095 14.847,0 l 14.847004,14.847 c 4.10025,4.10025 4.10025,10.752 0,14.847 -4.10025,4.10025 -10.74675,4.10025 -14.847004,0 z m -9.7545,122.382745 c 5.80125,0 10.5,4.704 10.5,10.5 v 83.98951 c 0,5.80125 -4.69875,10.5 -10.5,10.5 -5.796,0 -10.499996,-4.69875 -10.499996,-10.5 v -83.98951 c 0,-5.796 4.709246,-10.5 10.499996,-10.5 z m 42.000004,21.00001 c 5.796,0 10.5,4.69875 10.5,10.5 v 83.9895 c 0,5.796 -4.704,10.5 -10.5,10.5 -5.80125,0 -10.5,-4.704 -10.5,-10.5 v -83.9895 c 0,-5.80651 4.69875,-10.5 10.5,-10.5 z m 41.9895,-21.00001 c 5.80125,0 10.5,4.704 10.5,10.5 v 83.98951 c 0,5.80125 -4.69875,10.5 -10.5,10.5 -5.796,0 -10.5,-4.69875 -10.5,-10.5 v -83.98951 c 0,-5.796 4.70925,-10.5 10.5,-10.5 z"
   id="path1"
   style="stroke-width:5.25" />&#10;</svg>
