<?xml version="1.0" encoding="UTF-8" standalone="no"?>
<!-- Generator: Adobe Illustrator 15.1.0, SVG Export Plug-In . SVG Version: 6.00 Build 0)  -->

<svg
   version="1.1"
   id="Layer_1"
   x="0px"
   y="0px"
   width="100px"
   height="100px"
   viewBox="0 0 100 100"
   enable-background="new 0 0 100 100"
   xml:space="preserve"
   sodipodi:docname="10n.svg"
   inkscape:version="1.3 (0e150ed6c4, 2023-07-21)"
   xmlns:inkscape="http://www.inkscape.org/namespaces/inkscape"
   xmlns:sodipodi="http://sodipodi.sourceforge.net/DTD/sodipodi-0.dtd"
   xmlns="http://www.w3.org/2000/svg"
   xmlns:svg="http://www.w3.org/2000/svg"><defs
   id="defs2" /><sodipodi:namedview
   id="namedview2"
   pagecolor="#ffffff"
   bordercolor="#000000"
   borderopacity="0.25"
   inkscape:showpageshadow="2"
   inkscape:pageopacity="0.0"
   inkscape:pagecheckerboard="0"
   inkscape:deskcolor="#d1d1d1"
   inkscape:zoom="8.13"
   inkscape:cx="50"
   inkscape:cy="50"
   inkscape:window-width="1920"
   inkscape:window-height="1009"
   inkscape:window-x="-8"
   inkscape:window-y="-8"
   inkscape:window-maximized="1"
   inkscape:current-layer="Layer_1" />&#10;<g
   id="g2"
   transform="matrix(1.5,0,0,1.5,-25.75,-28.21225)">&#10;	<g
   id="g1">&#10;		<path
   fill-rule="evenodd"
   clip-rule="evenodd"
   d="m 50.001,57.641 c -1.105,0 -2,0.895 -2,2 v 15.998 c 0,1.104 0.895,2 2,2 1.104,0 2,-0.896 2,-2 V 59.641 c 0,-1.106 -0.897,-2 -2,-2 z m 7.998,-4 c -1.104,0 -1.999,0.896 -1.999,2 v 15.998 c 0,1.105 0.896,2 1.999,2 1.105,0 2,-0.895 2,-2 V 55.641 c 0,-1.104 -0.895,-2 -2,-2 z m -15.998,0 c -1.104,0 -1.999,0.896 -1.999,2 v 15.998 c 0,1.105 0.896,2 1.999,2 1.105,0 2,-0.895 2,-2 V 55.641 c 0,-1.104 -0.895,-2 -2,-2 z M 72.997,38.642 c 0,-0.754 -0.078,-1.49 -0.211,-2.207 -0.576,0.132 -1.173,0.208 -1.788,0.208 -4.418,0 -7.999,-3.581 -7.999,-7.999 0,-0.615 0.076,-1.213 0.207,-1.788 -0.716,-0.134 -1.451,-0.212 -2.207,-0.212 -5.24,0 -9.684,3.365 -11.318,8.047 -1.766,-0.672 -3.678,-1.047 -5.68,-1.047 -8.835,0 -15.998,7.162 -15.998,15.997 0,5.919 3.223,11.074 8,13.841 v -4.916 c -2.45,-2.197 -4,-5.375 -4,-8.925 0,-6.626 5.371,-11.998 11.998,-11.998 5.691,0 10.434,3.973 11.665,9.29 1.25,-0.811 2.733,-1.291 4.333,-1.291 4.418,0 7.999,3.581 7.999,7.999 0,2.959 -1.61,5.537 -3.999,6.92 v 4.381 c 4.656,-1.648 7.999,-6.078 7.999,-11.301 0,-2.562 -0.811,-4.933 -2.18,-6.882 1.968,-2.138 3.179,-4.982 3.179,-8.117 z m -5.992,5.272 c -1.973,-1.424 -4.388,-2.271 -7.006,-2.271 -0.696,0 -1.369,0.092 -2.033,0.205 -1.156,-2.068 -2.762,-3.849 -4.679,-5.221 0.75,-2.865 3.024,-5.111 5.924,-5.775 0.904,4.855 4.726,8.676 9.579,9.58 -0.301,1.314 -0.928,2.501 -1.785,3.482 z"
   id="path1" />&#10;	</g>&#10;</g>&#10;</svg>
