<?xml version="1.0" encoding="UTF-8" standalone="no"?>
<!-- Generator: Adobe Illustrator 15.1.0, SVG Export Plug-In . SVG Version: 6.00 Build 0)  -->

<svg
   version="1.1"
   id="Layer_1"
   x="0px"
   y="0px"
   width="278.996"
   height="278.996"
   viewBox="0 0 314.96301 314.96299"
   enable-background="new 0 0 100 100"
   xml:space="preserve"
   sodipodi:docname="11n.svg"
   inkscape:version="1.3 (0e150ed6c4, 2023-07-21)"
   xmlns:inkscape="http://www.inkscape.org/namespaces/inkscape"
   xmlns:sodipodi="http://sodipodi.sourceforge.net/DTD/sodipodi-0.dtd"
   xmlns="http://www.w3.org/2000/svg"
   xmlns:svg="http://www.w3.org/2000/svg"><defs
   id="defs1" /><sodipodi:namedview
   id="namedview1"
   pagecolor="#ffffff"
   bordercolor="#000000"
   borderopacity="0.25"
   inkscape:showpageshadow="2"
   inkscape:pageopacity="0.0"
   inkscape:pagecheckerboard="0"
   inkscape:deskcolor="#d1d1d1"
   inkscape:zoom="1.4371945"
   inkscape:cx="109.58851"
   inkscape:cy="138.81211"
   inkscape:window-width="1920"
   inkscape:window-height="1009"
   inkscape:window-x="-8"
   inkscape:window-y="-8"
   inkscape:window-maximized="1"
   inkscape:current-layer="Layer_1" />&#10;<path
   fill-rule="evenodd"
   clip-rule="evenodd"
   d="m 288.7105,136.47899 h -20.99475 c -5.796,0 -10.5,-4.69875 -10.5,-10.5 0,-5.796 4.704,-10.5 10.5,-10.5 h 20.99475 c 5.796,0 10.5,4.704 10.5,10.5 0,5.8065 -4.69875,10.5 -10.5,10.5 z m -41.244,-69.887995 c -4.10025,4.10025 -10.74675,4.10025 -14.847,0 -4.10025,-4.10025 -4.10025,-10.74675 0,-14.847 l 14.847,-14.847 c 4.10025,-4.10025 10.74675,-4.10025 14.847,0 4.095,4.10025 4.095,10.74675 0,14.847 z m -15.477,81.936745 v 0 c 7.0455,8.4 11.92275,18.66375 13.82325,29.946 h -0.042 c 0.57225,3.423 0.945,6.9195 0.945,10.5 0,34.79176 -28.203,63.00001 -62.9895,63.00001 -1.47,0 -3.40725,0 -5.5755,0 l 18.816,-23.163 c 16.70025,-5.54925 28.7595,-21.27825 28.7595,-39.83701 0,-3.62774 -0.5145,-7.13475 -1.38075,-10.5 v 0 c -4.66725,-18.102 -21.05775,-31.49475 -40.614,-31.49475 -8.40525,0 -16.18575,2.52 -22.7535,6.77776 -6.46275,-27.909 -31.35825,-48.77775 -61.236002,-48.77775 -34.791748,0 -62.994748,28.20825 -62.994748,62.99999 0,3.58051 0.3675,7.077 0.95025,10.49475 H 37.624 c 4.011,23.88225 21.462,43.17076 44.299498,49.90651 L 74.836,248.2095 C 43.84525,238.602 20.6035,211.512 16.477,178.47374 v 0 c -0.4305,-3.44925 -0.7245,-6.93525 -0.7245,-10.49474 0,-46.389 37.6005,-83.994757 83.989498,-83.994757 8.253002,0 16.217252,1.218 23.745752,3.43875 11.52375,-14.846998 29.4945,-24.433498 49.74375,-24.433498 34.79175,0 62.99475,28.197748 62.99475,62.989505 -0.005,7.959 -1.5435,15.53475 -4.23675,22.54874 z M 173.22625,83.989493 c -11.613,0 -22.12875,4.7145 -29.7255,12.34275 12.285,7.533747 22.49625,18.117747 29.55225,30.728247 3.486,-0.59325 7.01925,-1.07625 10.67325,-1.07625 11.15625,0 21.6195,2.93475 30.7125,8.01675 v 0 c 0.504,-2.5935 0.78225,-5.271 0.78225,-8.01675 0,-23.1945 -18.80025,-41.994747 -41.99475,-41.994747 z m 0,-41.994748 c -5.796,0 -10.5,-4.704 -10.5,-10.5 V 10.499995 C 162.72625,4.704 167.43025,0 173.22625,0 c 5.796,0 10.5,4.704 10.5,10.499995 v 20.99475 c 0,5.796 -4.69875,10.5 -10.5,10.5 z m -74.240252,24.59625 -14.84175,-14.847 c -4.10025,-4.10025 -4.10025,-10.74675 0,-14.847 4.095,-4.10025 10.74675,-4.10025 14.84175,0 l 14.847002,14.847 c 4.10025,4.10025 4.10025,10.74675 0,14.847 -4.095,4.10025 -10.7415,4.10025 -14.847002,0 z M 120.7315,178.47374 h 52.49475 l -31.49475,52.50001 h 36.74475 l -68.2395,83.9895 18.9,-62.9895 H 94.486748 Z"
   id="path1"
   style="stroke-width:5.25" />&#10;</svg>
