<?xml version="1.0" encoding="UTF-8" standalone="no"?>
<!-- Generator: Adobe Illustrator 15.1.0, SVG Export Plug-In . SVG Version: 6.00 Build 0)  -->

<svg
   version="1.1"
   id="Layer_1"
   x="0px"
   y="0px"
   width="100px"
   height="100px"
   viewBox="0 0 100 100"
   enable-background="new 0 0 100 100"
   xml:space="preserve"
   sodipodi:docname="11d.svg"
   inkscape:version="1.3 (0e150ed6c4, 2023-07-21)"
   xmlns:inkscape="http://www.inkscape.org/namespaces/inkscape"
   xmlns:sodipodi="http://sodipodi.sourceforge.net/DTD/sodipodi-0.dtd"
   xmlns="http://www.w3.org/2000/svg"
   xmlns:svg="http://www.w3.org/2000/svg"><defs
   id="defs1" /><sodipodi:namedview
   id="namedview1"
   pagecolor="#ffffff"
   bordercolor="#000000"
   borderopacity="0.25"
   inkscape:showpageshadow="2"
   inkscape:pageopacity="0.0"
   inkscape:pagecheckerboard="0"
   inkscape:deskcolor="#d1d1d1"
   inkscape:zoom="8.13"
   inkscape:cx="50"
   inkscape:cy="50"
   inkscape:window-width="1920"
   inkscape:window-height="1009"
   inkscape:window-x="-8"
   inkscape:window-y="-8"
   inkscape:window-maximized="1"
   inkscape:current-layer="Layer_1" />&#10;<path
   fill-rule="evenodd"
   clip-rule="evenodd"
   d="m 78.97925,41.92475 v 0 c 1.506,2.1465 2.5485,4.635 3.0045,7.3245 h -0.006 c 0.1635,0.978 0.27,1.9755 0.27,3 0,9.9405 -8.058,17.9985 -17.9985,17.9985 -0.4185,0 -0.972,0 -1.593,0 l 5.376,-6.618 c 4.7715,-1.5855 8.217,-6.0765 8.217,-11.3805 0,-1.0365 -0.147,-2.0385 -0.3945,-3 v 0 c -1.335,-5.1705 -6.0165,-8.9985 -11.6055,-8.9985 -2.4,0 -4.623,0.7215 -6.4995,1.9365 -1.8465,-7.974 -8.961,-13.935 -17.4975,-13.935 -9.939,0 -17.997,8.058 -17.997,17.9985 0,1.0245 0.105,2.022 0.27,2.9985 h -0.021 c 1.146,6.822 6.132,12.3345 12.657,14.2575 l -2.025,5.667 c -8.8545,-2.7465 -15.4965,-10.4865 -16.674,-19.9245 v 0 c -0.123,-0.984 -0.2085,-1.98 -0.2085,-2.9985 0,-13.254 10.7445,-23.997 23.997,-23.997 3.0045,0 5.871,0.5625 8.52,1.572 v 0 c 2.4525,-7.0245 9.1185,-12.0705 16.977,-12.0705 1.134,0 2.238,0.117 3.312,0.3165 -0.198,0.864 -0.312,1.7595 -0.312,2.682 0,6.627 5.373,11.9985 11.9985,11.9985 0.924,0 1.818,-0.114 2.682,-0.3105 0.201,1.074 0.318,2.178 0.318,3.3105 0.0015,4.6995 -1.8165,8.967 -4.767,12.1725 z m -15.9105,-23.859 c -4.35,0.9945 -7.7625,4.3635 -8.886,8.661 v 0 c 2.874,2.058 5.2815,4.7295 7.017,7.833 0.996,-0.171 2.007,-0.3075 3.0495,-0.3075 3.9285,0 7.5495,1.272 10.509,3.4065 v 0 c 1.287,-1.4685 2.2275,-3.252 2.6775,-5.223 -7.2795,-1.359 -13.0125,-7.089 -14.367,-14.37 z m -16.8165,31.1835 h 14.9985 l -8.9985,14.9985 h 10.4985 l -19.4985,23.997 5.4,-17.997 h -9.8985 z"
   id="path1"
   style="stroke-width:1.5" />&#10;</svg>
