<?xml version="1.0" encoding="UTF-8" standalone="no"?>
<!-- Generator: Adobe Illustrator 15.1.0, SVG Export Plug-In . SVG Version: 6.00 Build 0)  -->

<svg
   version="1.1"
   id="Layer_1"
   x="0px"
   y="0px"
   width="210.80099"
   height="210.80099"
   viewBox="0 0 267.71345 267.71345"
   enable-background="new 0 0 100 100"
   xml:space="preserve"
   sodipodi:docname="11d.svg"
   inkscape:version="1.3 (0e150ed6c4, 2023-07-21)"
   xmlns:inkscape="http://www.inkscape.org/namespaces/inkscape"
   xmlns:sodipodi="http://sodipodi.sourceforge.net/DTD/sodipodi-0.dtd"
   xmlns="http://www.w3.org/2000/svg"
   xmlns:svg="http://www.w3.org/2000/svg"><defs
   id="defs1" /><sodipodi:namedview
   id="namedview1"
   pagecolor="#ffffff"
   bordercolor="#000000"
   borderopacity="0.25"
   inkscape:showpageshadow="2"
   inkscape:pageopacity="0.0"
   inkscape:pagecheckerboard="0"
   inkscape:deskcolor="#d1d1d1"
   inkscape:zoom="2.0325"
   inkscape:cx="77.490775"
   inkscape:cy="105.04305"
   inkscape:window-width="1920"
   inkscape:window-height="1009"
   inkscape:window-x="-8"
   inkscape:window-y="-8"
   inkscape:window-maximized="1"
   inkscape:current-layer="Layer_1" />&#10;<path
   fill-rule="evenodd"
   clip-rule="evenodd"
   d="m 235.2841,105.59325 v 0 c 5.271,7.51275 8.91975,16.2225 10.51575,25.63575 h -0.021 c 0.57225,3.423 0.945,6.91425 0.945,10.5 0,34.79175 -28.203,62.99474 -62.99475,62.99474 -1.46475,0 -3.402,0 -5.5755,0 l 18.816,-23.16299 c 16.70025,-5.54925 28.7595,-21.26775 28.7595,-39.83175 0,-3.62775 -0.5145,-7.13475 -1.38075,-10.5 v 0 c -4.6725,-18.09675 -21.05775,-31.49475 -40.61925,-31.49475 -8.4,0 -16.1805,2.52525 -22.74825,6.77775 -6.46275,-27.909 -31.3635,-48.7725 -61.24125,-48.7725 -34.7865,0 -62.989501,28.203 -62.989501,62.99475 0,3.58575 0.3675,7.077 0.945,10.49475 h -0.0735 c 4.011,23.877 21.462,43.17075 44.299501,49.90125 l -7.0875,19.83451 C 43.842849,191.35199 20.595849,164.262 16.474599,131.229 v 0 c -0.4305,-3.444 -0.72975,-6.93 -0.72975,-10.49475 0,-46.389 37.60575,-83.9895 83.989501,-83.9895 10.51575,0 20.5485,1.96875 29.82,5.502 v 0 C 138.1381,17.661 161.4691,0 188.97385,0 c 3.969,0 7.833,0.4095 11.592,1.10775 -0.693,3.024 -1.092,6.15825 -1.092,9.387 0,23.1945 18.8055,41.99475 41.99475,41.99475 3.234,0 6.363,-0.399 9.387,-1.08675 0.7035,3.759 1.113,7.623 1.113,11.58675 0.005,16.44825 -6.35775,31.3845 -16.6845,42.60375 z m -55.68675,-83.5065 c -15.225,3.48075 -27.16875,15.27225 -31.101,30.3135 v 0 c 10.059,7.203 18.48525,16.55325 24.5595,27.4155 3.486,-0.5985 7.0245,-1.07625 10.67325,-1.07625 13.74975,0 26.42325,4.452 36.7815,11.92275 v 0 c 4.5045,-5.13975 7.79625,-11.382 9.37125,-18.2805 -25.47825,-4.7565 -45.54375,-24.8115 -50.2845,-50.295 z M 120.7396,131.229 h 52.49475 l -31.49475,52.49475 h 36.74475 l -68.24475,83.9895 18.9,-62.9895 H 94.49485 Z"
   id="path1"
   style="stroke-width:5.25" />&#10;</svg>
