<?xml version="1.0" encoding="UTF-8" standalone="no"?>
<!-- Generator: Adobe Illustrator 15.1.0, SVG Export Plug-In . SVG Version: 6.00 Build 0)  -->

<svg
   version="1.1"
   id="Layer_1"
   x="0px"
   y="0px"
   width="100px"
   height="100px"
   viewBox="0 0 100 100"
   enable-background="new 0 0 100 100"
   xml:space="preserve"
   sodipodi:docname="11n.svg"
   inkscape:version="1.3 (0e150ed6c4, 2023-07-21)"
   xmlns:inkscape="http://www.inkscape.org/namespaces/inkscape"
   xmlns:sodipodi="http://sodipodi.sourceforge.net/DTD/sodipodi-0.dtd"
   xmlns="http://www.w3.org/2000/svg"
   xmlns:svg="http://www.w3.org/2000/svg"><defs
   id="defs1" /><sodipodi:namedview
   id="namedview1"
   pagecolor="#ffffff"
   bordercolor="#000000"
   borderopacity="0.25"
   inkscape:showpageshadow="2"
   inkscape:pageopacity="0.0"
   inkscape:pagecheckerboard="0"
   inkscape:deskcolor="#d1d1d1"
   inkscape:zoom="8.13"
   inkscape:cx="50"
   inkscape:cy="50"
   inkscape:window-width="1920"
   inkscape:window-height="1009"
   inkscape:window-x="-8"
   inkscape:window-y="-8"
   inkscape:window-maximized="1"
   inkscape:current-layer="Layer_1" />&#10;<path
   fill-rule="evenodd"
   clip-rule="evenodd"
   d="m 87.494,43.99925 h -5.9985 c -1.656,0 -3,-1.3425 -3,-3 0,-1.656 1.344,-3 3,-3 h 5.9985 c 1.656,0 3,1.344 3,3 0,1.659 -1.3425,3 -3,3 z M 75.71,24.03125 c -1.1715,1.1715 -3.0705,1.1715 -4.242,0 -1.1715,-1.1715 -1.1715,-3.0705 0,-4.242 l 4.242,-4.242 c 1.1715,-1.1715 3.0705,-1.1715 4.242,0 1.17,1.1715 1.17,3.0705 0,4.242 z m -4.422,23.4105 v 0 c 2.013,2.4 3.4065,5.3325 3.9495,8.556 h -0.012 c 0.1635,0.978 0.27,1.977 0.27,3 0,9.9405 -8.058,18 -17.997,18 -0.42,0 -0.9735,0 -1.593,0 l 5.376,-6.618 c 4.7715,-1.5855 8.217,-6.0795 8.217,-11.382 0,-1.0365 -0.147,-2.0385 -0.3945,-3 v 0 c -1.3335,-5.172 -6.0165,-8.9985 -11.604,-8.9985 -2.4015,0 -4.6245,0.72 -6.501,1.9365 -1.8465,-7.974 -8.9595,-13.9365 -17.496,-13.9365 -9.9405,0 -17.9985,8.0595 -17.9985,18 0,1.023 0.105,2.022 0.2715,2.9985 h -0.021 c 1.146,6.8235 6.132,12.3345 12.657,14.259 l -2.025,5.6655 c -8.8545,-2.745 -15.495,-10.485 -16.674,-19.9245 v 0 c -0.123,-0.9855 -0.207,-1.9815 -0.207,-2.9985 0,-13.254 10.743,-23.9985 23.997,-23.9985 2.358,0 4.6335,0.348 6.7845,0.9825 3.2925,-4.242 8.427,-6.981 14.2125,-6.981 9.9405,0 17.9985,8.0565 17.9985,17.997 -0.0015,2.274 -0.441,4.4385 -1.2105,6.4425 z M 54.4985,29.00225 c -3.318,0 -6.3225,1.347 -8.493,3.5265 3.51,2.1525 6.4275,5.1765 8.4435,8.7795 0.996,-0.1695 2.0055,-0.3075 3.0495,-0.3075 3.1875,0 6.177,0.8385 8.775,2.2905 v 0 c 0.144,-0.741 0.2235,-1.506 0.2235,-2.2905 0,-6.627 -5.3715,-11.9985 -11.9985,-11.9985 z m 0,-11.9985 c -1.656,0 -3,-1.344 -3,-3 v -5.9985 c 0,-1.656 1.344,-3 3,-3 1.656,0 3,1.344 3,3 v 5.9985 c 0,1.656 -1.3425,3 -3,3 z m -21.2115,7.0275 -4.2405,-4.242 c -1.1715,-1.1715 -1.1715,-3.0705 0,-4.242 1.17,-1.1715 3.0705,-1.1715 4.2405,0 l 4.242,4.242 c 1.1715,1.1715 1.1715,3.0705 0,4.242 -1.17,1.1715 -3.069,1.1715 -4.242,0 z m 6.213,31.9665 h 14.9985 l -8.9985,15 h 10.4985 l -19.497,23.997 5.4,-17.997 h -9.9 z"
   id="path1"
   style="stroke-width:1.5" />&#10;</svg>
