<?xml version="1.0" encoding="UTF-8" standalone="no"?>
<!-- Generator: Adobe Illustrator 15.1.0, SVG Export Plug-In . SVG Version: 6.00 Build 0)  -->

<svg
   version="1.1"
   id="Layer_1"
   x="0px"
   y="0px"
   width="100px"
   height="100px"
   viewBox="0 0 100 100"
   enable-background="new 0 0 100 100"
   xml:space="preserve"
   sodipodi:docname="13d.svg"
   inkscape:version="1.3 (0e150ed6c4, 2023-07-21)"
   xmlns:inkscape="http://www.inkscape.org/namespaces/inkscape"
   xmlns:sodipodi="http://sodipodi.sourceforge.net/DTD/sodipodi-0.dtd"
   xmlns="http://www.w3.org/2000/svg"
   xmlns:svg="http://www.w3.org/2000/svg"><defs
   id="defs1" /><sodipodi:namedview
   id="namedview1"
   pagecolor="#ffffff"
   bordercolor="#000000"
   borderopacity="0.25"
   inkscape:showpageshadow="2"
   inkscape:pageopacity="0.0"
   inkscape:pagecheckerboard="0"
   inkscape:deskcolor="#d1d1d1"
   inkscape:zoom="8.13"
   inkscape:cx="50"
   inkscape:cy="50"
   inkscape:window-width="1920"
   inkscape:window-height="1009"
   inkscape:window-x="-8"
   inkscape:window-y="-8"
   inkscape:window-maximized="1"
   inkscape:current-layer="Layer_1" />&#10;<path
   fill-rule="evenodd"
   clip-rule="evenodd"
   d="m 87.49625,46.99925 h -6 c -1.656,0 -3,-1.3425 -3,-3 0,-1.656 1.344,-3 3,-3 h 6 c 1.656,0 2.9985,1.344 2.9985,3 0,1.659 -1.3425,3 -2.9985,3 z m -11.7855,-19.968 c -1.1715,1.1715 -3.0705,1.1715 -4.242,0 -1.1715,-1.1715 -1.1715,-3.0705 0,-4.242 l 4.242,-4.242 c 1.1715,-1.1715 3.0705,-1.1715 4.242,0 1.1715,1.1715 1.1715,3.0705 0,4.242 z m -4.422,23.4105 v 0 c 2.6235,3.126 4.2075,7.155 4.2075,11.556 0,7.8345 -5.013,14.478 -11.997,16.9545 v -6.5715 c 3.5835,-2.0775 5.9985,-5.9445 5.9985,-10.383 0,-6.6255 -5.3715,-11.9985 -11.9985,-11.9985 -2.4,0 -4.6245,0.72 -6.501,1.9365 -1.8465,-7.974 -8.9595,-13.9365 -17.496,-13.9365 -9.9405,0 -17.997,8.0595 -17.997,18 0,5.3235 2.325,10.0935 5.9985,13.386 v 7.374 c -7.164,-4.152 -11.9985,-11.883 -11.9985,-20.76 0,-13.254 10.743,-23.9985 23.997,-23.9985 2.358,0 4.635,0.348 6.7845,0.9825 3.2925,-4.242 8.427,-6.981 14.2125,-6.981 9.9405,0 17.9985,8.0565 17.9985,17.997 0,2.274 -0.4395,4.4385 -1.209,6.4425 z m -16.7895,-18.4395 c -3.318,0 -6.3225,1.347 -8.493,3.5265 3.51,2.1525 6.4275,5.1795 8.4435,8.7795 0.996,-0.1695 2.0055,-0.3075 3.0495,-0.3075 3.1875,0 6.177,0.8385 8.775,2.2905 v 0 c 0.144,-0.741 0.225,-1.506 0.225,-2.2905 0,-6.627 -5.373,-11.9985 -12,-11.9985 z m 0,-11.9985 c -1.656,0 -3,-1.3425 -3,-3 v -5.9985 c 0,-1.656 1.344,-3 3,-3 1.656,0 3,1.344 3,3 v 5.9985 c 0,1.6575 -1.3425,3 -3,3 z m -21.2115,7.0275 -4.242,-4.242 c -1.17,-1.1715 -1.17,-3.0705 0,-4.242 1.1715,-1.1715 3.072,-1.1715 4.242,0 l 4.242,4.242 c 1.1715,1.1715 1.1715,3.0705 0,4.242 -1.17,1.1715 -3.069,1.1715 -4.242,0 z m -2.7855,40.9665 c 1.656,0 3,1.344 3,3 0,1.6575 -1.344,3 -3,3 -1.656,0 -3,-1.3425 -3,-3 0,-1.656 1.344,-3 3,-3 z m 0,12 c 1.656,0 3,1.3425 3,3 0,1.656 -1.344,2.997 -3,2.997 -1.656,0 -3,-1.3425 -3,-2.997 0,-1.659 1.344,-3 3,-3 z m 12,-6 c 1.656,0 2.9985,1.3425 2.9985,3 0,1.656 -1.344,3 -2.9985,3 -1.6575,0 -3,-1.344 -3,-3 0,-1.659 1.3425,-3 3,-3 z m 0,11.997 c 1.656,0 2.9985,1.344 2.9985,3 0,1.6575 -1.344,3 -2.9985,3 -1.6575,0 -3,-1.3425 -3,-3 0,-1.656 1.3425,-3 3,-3 z m 11.997,-17.997 c 1.656,0 3,1.344 3,3 0,1.6575 -1.344,3 -3,3 -1.656,0 -3,-1.3425 -3,-3 0,-1.656 1.3455,-3 3,-3 z m 0,12 c 1.656,0 3,1.3425 3,3 0,1.656 -1.344,2.997 -3,2.997 -1.656,0 -3,-1.3425 -3,-2.997 0,-1.659 1.3455,-3 3,-3 z"
   id="path1"
   style="stroke-width:1.5" />&#10;</svg>
