<?xml version="1.0" encoding="UTF-8" standalone="no"?>
<!-- Generator: Adobe Illustrator 15.1.0, SVG Export Plug-In . SVG Version: 6.00 Build 0)  -->

<svg
   version="1.1"
   id="Layer_1"
   x="0px"
   y="0px"
   width="260.39999"
   height="260.39999"
   viewBox="0 0 293.96368 293.96367"
   enable-background="new 0 0 100 100"
   xml:space="preserve"
   sodipodi:docname="13d.svg"
   inkscape:version="1.3 (0e150ed6c4, 2023-07-21)"
   xmlns:inkscape="http://www.inkscape.org/namespaces/inkscape"
   xmlns:sodipodi="http://sodipodi.sourceforge.net/DTD/sodipodi-0.dtd"
   xmlns="http://www.w3.org/2000/svg"
   xmlns:svg="http://www.w3.org/2000/svg"><defs
   id="defs1" /><sodipodi:namedview
   id="namedview1"
   pagecolor="#ffffff"
   bordercolor="#000000"
   borderopacity="0.25"
   inkscape:showpageshadow="2"
   inkscape:pageopacity="0.0"
   inkscape:pagecheckerboard="0"
   inkscape:deskcolor="#d1d1d1"
   inkscape:zoom="2.0325"
   inkscape:cx="120.78721"
   inkscape:cy="130.1353"
   inkscape:window-width="1920"
   inkscape:window-height="1009"
   inkscape:window-x="-8"
   inkscape:window-y="-8"
   inkscape:window-maximized="1"
   inkscape:current-layer="Layer_1" />&#10;<path
   fill-rule="evenodd"
   clip-rule="evenodd"
   d="m 278.21871,136.479 h -21 c -5.796,0 -10.5,-4.69875 -10.5,-10.5 0,-5.796 4.704,-10.5 10.5,-10.5 h 21 c 5.79601,0 10.49475,4.704 10.49475,10.5 0,5.8065 -4.69874,10.5 -10.49475,10.5 z M 236.96946,66.591 c -4.10025,4.10025 -10.74675,4.10025 -14.847,0 -4.10025,-4.10025 -4.10025,-10.74675 0,-14.847 l 14.847,-14.847 c 4.10025,-4.10025 10.74675,-4.10025 14.847,0 4.10025,4.10025 4.10025,10.74675 0,14.847 z m -15.47699,81.93675 v 0 c 9.18224,10.941 14.72624,25.0425 14.72624,40.446 0,27.42074 -17.5455,50.67299 -41.9895,59.34074 v -23.00025 c 12.54225,-7.27124 20.99474,-20.80575 20.99474,-36.34049 0,-23.18925 -18.80024,-41.99475 -41.99474,-41.99475 -8.4,0 -16.18575,2.52 -22.7535,6.77775 -6.46275,-27.909 -31.35825,-48.77775 -61.235995,-48.77775 -34.791753,0 -62.989503,28.20825 -62.989503,63 0,18.63225 8.1375,35.32724 20.99475,46.85099 v 25.809 c -25.074,-14.532 -41.9947495,-41.5905 -41.9947495,-72.65999 0,-46.389 37.6004995,-83.994752 83.9895025,-83.994752 8.253,0 16.222495,1.218 23.745745,3.43875 C 124.50921,72.576 142.47996,62.9895 162.72921,62.9895 c 34.79174,0 62.99474,28.197748 62.99474,62.9895 0,7.959 -1.53825,15.53475 -4.23148,22.54875 z M 162.72921,83.989498 c -11.613,0 -22.12875,4.7145 -29.7255,12.34275 12.285,7.533752 22.49625,18.128252 29.55225,30.728252 3.486,-0.59325 7.01925,-1.07625 10.67325,-1.07625 11.15625,0 21.6195,2.93475 30.71251,8.01675 v 0 c 0.504,-2.5935 0.78749,-5.271 0.78749,-8.01675 0,-23.1945 -18.8055,-41.994752 -42,-41.994752 z m 0,-41.994748 c -5.796,0 -10.5,-4.69875 -10.5,-10.5 V 10.5 c 0,-5.796 4.704,-10.5 10.5,-10.5 5.796,0 10.5,4.704 10.5,10.5 v 20.99475 c 0,5.80125 -4.69875,10.5 -10.5,10.5 z M 88.488965,66.591 73.641962,51.744 c -4.095,-4.10025 -4.095,-10.74675 0,-14.847 4.10025,-4.10025 10.752003,-4.10025 14.847003,0 l 14.847005,14.847 c 4.10024,4.10025 4.10024,10.74675 0,14.847 -4.095005,4.10025 -10.741505,4.10025 -14.847005,0 z m -9.749253,143.38275 c 5.796003,0 10.500003,4.704 10.500003,10.5 0,5.80124 -4.704,10.5 -10.500003,10.5 -5.796,0 -10.5,-4.69876 -10.5,-10.5 0,-5.79601 4.704,-10.5 10.5,-10.5 z m 0,42 c 5.796003,0 10.500003,4.69875 10.500003,10.5 0,5.79599 -4.704,10.48949 -10.500003,10.48949 -5.796,0 -10.5,-4.69874 -10.5,-10.48949 0,-5.80651 4.704,-10.5 10.5,-10.5 z m 41.999998,-21 c 5.796,0 10.49475,4.69875 10.49475,10.5 0,5.79599 -4.704,10.5 -10.49475,10.5 -5.80125,0 -10.5,-4.70401 -10.5,-10.5 0,-5.80651 4.69875,-10.5 10.5,-10.5 z m 0,41.98949 c 5.796,0 10.49475,4.704 10.49475,10.5 0,5.80126 -4.704,10.5 -10.49475,10.5 -5.80125,0 -10.5,-4.69874 -10.5,-10.5 0,-5.796 4.69875,-10.5 10.5,-10.5 z m 41.9895,-62.98949 c 5.796,0 10.5,4.70399 10.5,10.5 0,5.80124 -4.704,10.5 -10.5,10.5 -5.796,0 -10.5,-4.69876 -10.5,-10.5 0,-5.79601 4.70925,-10.5 10.5,-10.5 z m 0,42 c 5.796,0 10.5,4.69875 10.5,10.5 0,5.79599 -4.704,10.48949 -10.5,10.48949 -5.796,0 -10.5,-4.69874 -10.5,-10.48949 0,-5.80651 4.70925,-10.5 10.5,-10.5 z"
   id="path1"
   style="stroke-width:5.25" />&#10;</svg>
