<?xml version="1.0" encoding="UTF-8" standalone="no"?>
<!-- Generator: Adobe Illustrator 15.1.0, SVG Export Plug-In . SVG Version: 6.00 Build 0)  -->

<svg
   version="1.1"
   id="Layer_1"
   x="0px"
   y="0px"
   width="194.27299"
   height="194.27299"
   viewBox="0 0 246.72841 246.72841"
   enable-background="new 0 0 100 100"
   xml:space="preserve"
   sodipodi:docname="13n.svg"
   inkscape:version="1.3 (0e150ed6c4, 2023-07-21)"
   xmlns:inkscape="http://www.inkscape.org/namespaces/inkscape"
   xmlns:sodipodi="http://sodipodi.sourceforge.net/DTD/sodipodi-0.dtd"
   xmlns="http://www.w3.org/2000/svg"
   xmlns:svg="http://www.w3.org/2000/svg"><defs
   id="defs1" /><sodipodi:namedview
   id="namedview1"
   pagecolor="#ffffff"
   bordercolor="#000000"
   borderopacity="0.25"
   inkscape:showpageshadow="2"
   inkscape:pageopacity="0.0"
   inkscape:pagecheckerboard="0"
   inkscape:deskcolor="#d1d1d1"
   inkscape:zoom="2.8743891"
   inkscape:cx="88.192653"
   inkscape:cy="97.585953"
   inkscape:window-width="1920"
   inkscape:window-height="1009"
   inkscape:window-x="-8"
   inkscape:window-y="-8"
   inkscape:window-maximized="1"
   inkscape:current-layer="Layer_1" />&#10;<path
   fill-rule="evenodd"
   clip-rule="evenodd"
   d="m 224.77845,105.609 v 0 c 7.18725,10.23225 11.445,22.67475 11.445,36.12525 0,27.42075 -17.5455,50.673 -41.9895,59.34075 v -23.00025 c 12.537,-7.27125 20.99475,-20.80575 20.99475,-36.3405 0,-23.18925 -18.80025,-41.99475 -41.99475,-41.99475 -8.40525,0 -16.191,2.52 -22.7535,6.77775 C 144.0177,78.603 119.1222,57.7395 89.244455,57.7395 c -34.79175,0 -62.9895,28.20825 -62.9895,63 0,18.63225 8.1375,35.32725 20.99475,46.851 v 25.809 c -25.07925,-14.532 -41.99475,-41.5905 -41.99475,-72.66 0,-46.38375 37.6005,-83.99475 83.9895,-83.99475 10.5105,0 20.548495,1.974 29.819995,5.502 v 0 C 127.6482,17.66625 150.97395,0 178.48395,0 c 3.96375,0 7.8225,0.4095 11.58675,1.10775 -0.68775,3.024 -1.08675,6.1635 -1.08675,9.39225 0,23.1945 18.795,41.9895 41.9895,41.9895 3.234,0 6.36825,-0.39375 9.39225,-1.08675 0.69825,3.76425 1.10775,7.62825 1.10775,11.58675 0,16.464 -6.35775,31.395 -16.695,42.6195 z M 169.0917,22.09725 c -15.21975,3.486 -27.1635,15.2775 -31.101,30.31875 10.0695,7.203 18.49575,16.548 24.57,27.41025 3.486,-0.59325 7.014,-1.07625 10.67325,-1.07625 13.73925,0 26.42325,4.452 36.77625,11.92275 v 0 c 4.5045,-5.145 7.79625,-11.37675 9.3765,-18.2805 -25.4835,-4.75125 -45.549,-24.8115 -50.295,-50.295 z M 78.744455,162.7395 c 5.796,0 10.5,4.704 10.5,10.5 0,5.80125 -4.704,10.5 -10.5,10.5 -5.796,0 -10.5,-4.69875 -10.5,-10.5 0,-5.796 4.69875,-10.5 10.5,-10.5 z m 0,42 c 5.796,0 10.5,4.69875 10.5,10.5 0,5.796 -4.704,10.4895 -10.5,10.4895 -5.796,0 -10.5,-4.69875 -10.5,-10.4895 0,-5.8065 4.69875,-10.5 10.5,-10.5 z m 41.994745,-21 c 5.796,0 10.5,4.69875 10.5,10.5 0,5.796 -4.704,10.5 -10.5,10.5 -5.796,0 -10.49475,-4.704 -10.49475,-10.5 0,-5.8065 4.69875,-10.5 10.49475,-10.5 z m 0,41.9895 c 5.796,0 10.5,4.704 10.5,10.5 0,5.80125 -4.704,10.5 -10.5,10.5 -5.796,0 -10.49475,-4.69875 -10.49475,-10.5 0,-5.796 4.69875,-10.5 10.49475,-10.5 z m 41.99475,-62.9895 c 5.796,0 10.5,4.704 10.5,10.5 0,5.80125 -4.704,10.5 -10.5,10.5 -5.796,0 -10.5,-4.69875 -10.5,-10.5 0,-5.796 4.704,-10.5 10.5,-10.5 z m 0,42 c 5.796,0 10.5,4.69875 10.5,10.5 0,5.796 -4.704,10.4895 -10.5,10.4895 -5.796,0 -10.5,-4.69875 -10.5,-10.4895 0,-5.8065 4.704,-10.5 10.5,-10.5 z"
   id="path1"
   style="stroke-width:5.25" />&#10;</svg>
