<?xml version="1.0" encoding="UTF-8" standalone="no"?>
<!-- Generator: Adobe Illustrator 15.1.0, SVG Export Plug-In . SVG Version: 6.00 Build 0)  -->

<svg
   version="1.1"
   id="Layer_1"
   x="0px"
   y="0px"
   width="100px"
   height="100px"
   viewBox="0 0 100 100"
   enable-background="new 0 0 100 100"
   xml:space="preserve"
   sodipodi:docname="13n.svg"
   inkscape:version="1.3 (0e150ed6c4, 2023-07-21)"
   xmlns:inkscape="http://www.inkscape.org/namespaces/inkscape"
   xmlns:sodipodi="http://sodipodi.sourceforge.net/DTD/sodipodi-0.dtd"
   xmlns="http://www.w3.org/2000/svg"
   xmlns:svg="http://www.w3.org/2000/svg"><defs
   id="defs1" /><sodipodi:namedview
   id="namedview1"
   pagecolor="#ffffff"
   bordercolor="#000000"
   borderopacity="0.25"
   inkscape:showpageshadow="2"
   inkscape:pageopacity="0.0"
   inkscape:pagecheckerboard="0"
   inkscape:deskcolor="#d1d1d1"
   inkscape:zoom="8.13"
   inkscape:cx="50"
   inkscape:cy="50"
   inkscape:window-width="1920"
   inkscape:window-height="1009"
   inkscape:window-x="-8"
   inkscape:window-y="-8"
   inkscape:window-maximized="1"
   inkscape:current-layer="Layer_1" />&#10;<path
   fill-rule="evenodd"
   clip-rule="evenodd"
   d="m 78.9755,44.927 v 0 c 2.0535,2.9235 3.27,6.4785 3.27,10.3215 0,7.8345 -5.013,14.478 -11.997,16.9545 V 65.6315 C 73.8305,63.554 76.247,59.687 76.247,55.2485 76.247,48.623 70.8755,43.25 64.2485,43.25 c -2.4015,0 -4.626,0.72 -6.501,1.9365 C 55.901,37.211 48.788,31.25 40.2515,31.25 c -9.9405,0 -17.997,8.0595 -17.997,18 0,5.3235 2.325,10.0935 5.9985,13.386 V 70.01 C 21.0875,65.858 16.2545,58.127 16.2545,49.25 c 0,-13.2525 10.743,-23.9985 23.997,-23.9985 3.003,0 5.871,0.564 8.52,1.572 v 0 c 2.4525,-7.023 9.117,-12.0705 16.977,-12.0705 1.1325,0 2.235,0.117 3.3105,0.3165 -0.1965,0.864 -0.3105,1.761 -0.3105,2.6835 0,6.627 5.37,11.997 11.997,11.997 0.924,0 1.8195,-0.1125 2.6835,-0.3105 0.1995,1.0755 0.3165,2.1795 0.3165,3.3105 0,4.704 -1.8165,8.97 -4.77,12.177 z M 63.065,21.0665 c -4.3485,0.996 -7.761,4.365 -8.886,8.6625 2.877,2.058 5.2845,4.728 7.02,7.8315 0.996,-0.1695 2.004,-0.3075 3.0495,-0.3075 3.9255,0 7.5495,1.272 10.5075,3.4065 v 0 c 1.287,-1.47 2.2275,-3.2505 2.679,-5.223 -7.281,-1.3575 -13.014,-7.089 -14.37,-14.37 z M 37.2515,61.25 c 1.656,0 3,1.344 3,3 0,1.6575 -1.344,3 -3,3 -1.656,0 -3,-1.3425 -3,-3 0,-1.656 1.3425,-3 3,-3 z m 0,12 c 1.656,0 3,1.3425 3,3 0,1.656 -1.344,2.997 -3,2.997 -1.656,0 -3,-1.3425 -3,-2.997 0,-1.659 1.3425,-3 3,-3 z m 11.9985,-6 c 1.656,0 3,1.3425 3,3 0,1.656 -1.344,3 -3,3 -1.656,0 -2.9985,-1.344 -2.9985,-3 0,-1.659 1.3425,-3 2.9985,-3 z m 0,11.997 c 1.656,0 3,1.344 3,3 0,1.6575 -1.344,3 -3,3 -1.656,0 -2.9985,-1.3425 -2.9985,-3 0,-1.656 1.3425,-3 2.9985,-3 z M 61.2485,61.25 c 1.656,0 3,1.344 3,3 0,1.6575 -1.344,3 -3,3 -1.656,0 -3,-1.3425 -3,-3 0,-1.656 1.344,-3 3,-3 z m 0,12 c 1.656,0 3,1.3425 3,3 0,1.656 -1.344,2.997 -3,2.997 -1.656,0 -3,-1.3425 -3,-2.997 0,-1.659 1.344,-3 3,-3 z"
   id="path1"
   style="stroke-width:1.5" />&#10;</svg>
