<?xml version="1.0" encoding="UTF-8" standalone="no"?>
<!-- Generator: Adobe Illustrator 15.1.0, SVG Export Plug-In . SVG Version: 6.00 Build 0)  -->

<svg
   version="1.1"
   id="Layer_1"
   x="0px"
   y="0px"
   width="260.40399"
   height="260.40399"
   viewBox="0 0 293.96287 293.96287"
   enable-background="new 0 0 100 100"
   xml:space="preserve"
   sodipodi:docname="50d.svg"
   inkscape:version="1.3 (0e150ed6c4, 2023-07-21)"
   xmlns:inkscape="http://www.inkscape.org/namespaces/inkscape"
   xmlns:sodipodi="http://sodipodi.sourceforge.net/DTD/sodipodi-0.dtd"
   xmlns="http://www.w3.org/2000/svg"
   xmlns:svg="http://www.w3.org/2000/svg"><defs
   id="defs1" /><sodipodi:namedview
   id="namedview1"
   pagecolor="#ffffff"
   bordercolor="#000000"
   borderopacity="0.25"
   inkscape:showpageshadow="2"
   inkscape:pageopacity="0.0"
   inkscape:pagecheckerboard="0"
   inkscape:deskcolor="#d1d1d1"
   inkscape:zoom="2.0325"
   inkscape:cx="120.78721"
   inkscape:cy="130.1353"
   inkscape:window-width="1920"
   inkscape:window-height="1009"
   inkscape:window-x="-8"
   inkscape:window-y="-8"
   inkscape:window-maximized="1"
   inkscape:current-layer="Layer_1" />&#10;<path
   fill-rule="evenodd"
   clip-rule="evenodd"
   d="m 278.21568,136.479 h -20.99475 c -5.796,0 -10.5,-4.69875 -10.5,-10.5 0,-5.796 4.704,-10.5 10.5,-10.5 h 20.99475 c 5.796,0 10.5,4.704 10.5,10.5 0,5.8065 -4.69875,10.5 -10.5,10.5 z m -41.244,-69.888 c -4.10024,4.10025 -10.74674,4.10025 -14.847,0 -4.10025,-4.10025 -4.10025,-10.74675 0,-14.847 l 14.847,-14.847 c 4.10025,-4.10025 10.74675,-4.10025 14.84701,0 4.095,4.10025 4.095,10.74675 0,14.847 z m -15.477,81.93675 v 0 c 4.78801,5.712 8.5575,12.285 11.09326,19.45125 h -23.03176 c -7.266,-12.54225 -20.79525,-21 -36.33,-21 -8.40525,0 -16.18575,2.52 -22.7535,6.77775 -6.46275,-27.909 -31.35825,-48.77775 -61.235997,-48.77775 -34.791748,0 -62.994748,28.20825 -62.994748,63 H 5.247185 c 0,-46.389 37.6005,-83.994747 83.989498,-83.994747 8.253,0 16.217257,1.218 23.745747,3.43875 C 124.50619,72.576 142.47693,62.9895 162.72619,62.9895 c 34.79175,0 62.99475,28.197753 62.99475,62.9895 0.005,7.959 -1.533,15.53475 -4.22626,22.54875 z M 162.73143,83.989503 c -11.613,0 -22.12875,4.7145 -29.7255,12.34275 12.28501,7.533747 22.49625,18.128247 29.55225,30.728247 3.486,-0.59325 7.01925,-1.07625 10.67325,-1.07625 11.15625,0 21.6195,2.93475 30.7125,8.01675 v 0 c 0.504,-2.5935 0.78226,-5.271 0.78226,-8.01675 0,-23.1945 -18.80026,-41.994747 -41.99476,-41.994747 z m 0,-41.994753 c -5.796,0 -10.5,-4.69875 -10.5,-10.5 V 10.5 c 0,-5.796 4.704,-10.5 10.5,-10.5 5.796,0 10.5,4.704 10.5,10.5 v 20.99475 c 0,5.80125 -4.69874,10.5 -10.5,10.5 z M 88.491183,66.591 73.649435,51.744 c -4.10025,-4.10025 -4.10025,-10.74675 0,-14.847 4.095,-4.10025 10.746748,-4.10025 14.841748,0 l 14.846997,14.847 c 4.10025,4.10025 4.10025,10.74675 0,14.847 -4.094997,4.10025 -10.741497,4.10025 -14.846997,0 z M 15.752435,188.97375 H 225.72619 c 5.79599,0 10.49475,4.704 10.49475,10.5 0,5.80124 -4.704,10.5 -10.49475,10.5 H 15.752435 c -5.796,0 -10.5,-4.69876 -10.5,-10.5 0,-5.796 4.69875,-10.5 10.5,-10.5 z m 0,42 H 225.72619 c 5.79599,0 10.49475,4.69875 10.49475,10.5 0,5.796 -4.704,10.5 -10.49475,10.5 H 15.752435 c -5.796,0 -10.5,-4.704 -10.5,-10.5 0,-5.80651 4.69875,-10.5 10.5,-10.5 z m 0,41.9895 H 225.72619 c 5.79599,0 10.49475,4.70399 10.49475,10.5 0,5.80125 -4.704,10.5 -10.49475,10.5 H 15.752435 c -5.796,0 -10.5,-4.69875 -10.5,-10.5 0,-5.79601 4.69875,-10.5 10.5,-10.5 z"
   id="path1"
   style="stroke-width:5.25" />&#10;</svg>
