<?xml version="1.0" encoding="UTF-8" standalone="no"?>
<!-- Generator: Adobe Illustrator 15.1.0, SVG Export Plug-In . SVG Version: 6.00 Build 0)  -->

<svg
   version="1.1"
   id="Layer_1"
   x="0px"
   y="0px"
   width="194.269"
   height="194.269"
   viewBox="0 0 246.71808 246.71808"
   enable-background="new 0 0 100 100"
   xml:space="preserve"
   sodipodi:docname="50n.svg"
   inkscape:version="1.3 (0e150ed6c4, 2023-07-21)"
   xmlns:inkscape="http://www.inkscape.org/namespaces/inkscape"
   xmlns:sodipodi="http://sodipodi.sourceforge.net/DTD/sodipodi-0.dtd"
   xmlns="http://www.w3.org/2000/svg"
   xmlns:svg="http://www.w3.org/2000/svg"><defs
   id="defs1" /><sodipodi:namedview
   id="namedview1"
   pagecolor="#ffffff"
   bordercolor="#000000"
   borderopacity="0.25"
   inkscape:showpageshadow="2"
   inkscape:pageopacity="0.0"
   inkscape:pagecheckerboard="0"
   inkscape:deskcolor="#d1d1d1"
   inkscape:zoom="2.0325"
   inkscape:cx="87.822878"
   inkscape:cy="97.170972"
   inkscape:window-width="1920"
   inkscape:window-height="1009"
   inkscape:window-x="-8"
   inkscape:window-y="-8"
   inkscape:window-maximized="1"
   inkscape:current-layer="Layer_1" />&#10;<path
   fill-rule="evenodd"
   clip-rule="evenodd"
   d="m 224.78113,105.59325 v 0 c 3.23925,4.62 5.78551,9.7335 7.71226,15.141 h 0.0998 v 0 h -23.03175 v 0 0 c -7.266,-12.54225 -20.8005,-20.99475 -36.33525,-20.99475 -8.4,0 -16.1805,2.52 -22.74825,6.7725 -6.46275,-27.909 -31.3635,-48.7725 -61.24125,-48.7725 -34.7865,0 -62.9895,28.203 -62.9895,62.99475 v 0 h -21 v 0 c 0,-46.38375 37.60575,-83.9895 83.9895,-83.9895 10.51575,0 20.5485,1.974 29.82,5.502 v 0 C 127.64044,17.661 150.97144,0 178.47619,0 c 3.96899,0 7.83299,0.4095 11.592,1.10775 -0.693,3.024 -1.092,6.15825 -1.092,9.39225 0,23.1945 18.80549,41.9895 41.99475,41.9895 3.234,0 6.363,-0.399 9.387,-1.08675 0.7035,3.76425 1.113,7.623 1.113,11.58675 0,16.4535 -6.363,31.3845 -16.68975,42.60375 z m -55.68674,-83.5065 c -15.225,3.48075 -27.16875,15.2775 -31.101,30.3135 v 0 c 10.059,7.203 18.48525,16.55325 24.5595,27.4155 3.486,-0.5985 7.0245,-1.07625 10.67325,-1.07625 13.74974,0 26.42324,4.452 36.78149,11.92275 v 0 c 4.50451,-5.145 7.79626,-11.38725 9.37126,-18.2805 -25.47826,-4.75125 -45.54376,-24.8115 -50.2845,-50.295 z M 15.74714,141.729 h 209.97899 c 5.796,0 10.49475,4.704 10.49475,10.5 0,5.796 -4.704,10.5 -10.49475,10.5 H 15.74714 c -5.796,0 -10.5,-4.704 -10.5,-10.5 0,-5.796 4.704,-10.5 10.5,-10.5 z m 0,42 h 209.97899 c 5.796,0 10.49475,4.69875 10.49475,10.49475 0,5.796 -4.704,10.5 -10.49475,10.5 H 15.74714 c -5.796,0 -10.5,-4.704 -10.5,-10.5 0,-5.796 4.704,-10.49475 10.5,-10.49475 z m 0,41.9895 h 209.97899 c 5.796,0 10.49475,4.704 10.49475,10.5 0,5.796 -4.704,10.5 -10.49475,10.5 H 15.74714 c -5.796,0 -10.5,-4.704 -10.5,-10.5 0,-5.796 4.704,-10.5 10.5,-10.5 z"
   id="path1"
   style="stroke-width:5.25" />&#10;</svg>
