<?xml version="1.0" encoding="UTF-8" standalone="no"?>
<!-- Generator: Adobe Illustrator 15.1.0, SVG Export Plug-In . SVG Version: 6.00 Build 0)  -->

<svg
   version="1.1"
   id="Layer_1"
   x="0px"
   y="0px"
   width="100px"
   height="100px"
   viewBox="0 0 100 100"
   enable-background="new 0 0 100 100"
   xml:space="preserve"
   sodipodi:docname="50n.svg"
   inkscape:version="1.3 (0e150ed6c4, 2023-07-21)"
   xmlns:inkscape="http://www.inkscape.org/namespaces/inkscape"
   xmlns:sodipodi="http://sodipodi.sourceforge.net/DTD/sodipodi-0.dtd"
   xmlns="http://www.w3.org/2000/svg"
   xmlns:svg="http://www.w3.org/2000/svg"><defs
   id="defs1" /><sodipodi:namedview
   id="namedview1"
   pagecolor="#ffffff"
   bordercolor="#000000"
   borderopacity="0.25"
   inkscape:showpageshadow="2"
   inkscape:pageopacity="0.0"
   inkscape:pagecheckerboard="0"
   inkscape:deskcolor="#d1d1d1"
   inkscape:zoom="8.13"
   inkscape:cx="50"
   inkscape:cy="50"
   inkscape:window-width="1920"
   inkscape:window-height="1009"
   inkscape:window-x="-8"
   inkscape:window-y="-8"
   inkscape:window-maximized="1"
   inkscape:current-layer="Layer_1" />&#10;<path
   fill-rule="evenodd"
   clip-rule="evenodd"
   d="m 78.97775,44.924 v 0 c 0.9255,1.32 1.653,2.781 2.2035,4.326 h 0.0285 v 0 h -6.5805 v 0 0 c -2.076,-3.5835 -5.943,-5.9985 -10.3815,-5.9985 -2.4,0 -4.623,0.72 -6.4995,1.935 -1.8465,-7.974 -8.961,-13.935 -17.4975,-13.935 -9.939,0 -17.997,8.058 -17.997,17.9985 v 0 h -6 v 0 c 0,-13.2525 10.7445,-23.997 23.997,-23.997 3.0045,0 5.871,0.564 8.52,1.572 v 0 c 2.4525,-7.0245 9.1185,-12.0705 16.977,-12.0705 1.134,0 2.238,0.117 3.312,0.3165 -0.198,0.864 -0.312,1.7595 -0.312,2.6835 0,6.627 5.373,11.997 11.9985,11.997 0.924,0 1.818,-0.114 2.682,-0.3105 0.201,1.0755 0.318,2.178 0.318,3.3105 0,4.701 -1.818,8.967 -4.7685,12.1725 z M 63.06725,21.065 c -4.35,0.9945 -7.7625,4.365 -8.886,8.661 v 0 c 2.874,2.058 5.2815,4.7295 7.017,7.833 0.996,-0.171 2.007,-0.3075 3.0495,-0.3075 3.9285,0 7.5495,1.272 10.509,3.4065 v 0 c 1.287,-1.47 2.2275,-3.2535 2.6775,-5.223 -7.2795,-1.3575 -13.0125,-7.089 -14.367,-14.37 z m -43.8135,34.1835 h 59.994 c 1.656,0 2.9985,1.344 2.9985,3 0,1.656 -1.344,3 -2.9985,3 h -59.994 c -1.656,0 -3,-1.344 -3,-3 0,-1.656 1.344,-3 3,-3 z m 0,12 h 59.994 c 1.656,0 2.9985,1.3425 2.9985,2.9985 0,1.656 -1.344,3 -2.9985,3 h -59.994 c -1.656,0 -3,-1.344 -3,-3 0,-1.656 1.344,-2.9985 3,-2.9985 z m 0,11.997 h 59.994 c 1.656,0 2.9985,1.344 2.9985,3 0,1.656 -1.344,3 -2.9985,3 h -59.994 c -1.656,0 -3,-1.344 -3,-3 0,-1.656 1.344,-3 3,-3 z"
   id="path1"
   style="stroke-width:1.5" />&#10;</svg>
