<?xml version="1.0" encoding="UTF-8" standalone="no"?>
<!-- Generator: Adobe Illustrator 19.0.0, SVG Export Plug-In . SVG Version: 6.00 Build 0)  -->

<svg
   xmlns:dc="http://purl.org/dc/elements/1.1/"
   xmlns:cc="http://creativecommons.org/ns#"
   xmlns:rdf="http://www.w3.org/1999/02/22-rdf-syntax-ns#"
   xmlns:svg="http://www.w3.org/2000/svg"
   xmlns="http://www.w3.org/2000/svg"
   xmlns:sodipodi="http://sodipodi.sourceforge.net/DTD/sodipodi-0.dtd"
   xmlns:inkscape="http://www.inkscape.org/namespaces/inkscape"
   version="1.1"
   id="Layer_1"
   x="0px"
   y="0px"
   viewBox="0 0 380.44 380.44"
   style="enable-background:new 0 0 380.44 380.44;"
   xml:space="preserve"
   inkscape:version="0.91 r13725"
   sodipodi:docname="01n-3.svg"><metadata
     id="metadata41"><rdf:RDF><cc:Work
         rdf:about=""><dc:format>image/svg+xml</dc:format><dc:type
           rdf:resource="http://purl.org/dc/dcmitype/StillImage" /><dc:title></dc:title></cc:Work></rdf:RDF></metadata><defs
     id="defs39" /><sodipodi:namedview
     pagecolor="#ffffff"
     bordercolor="#666666"
     borderopacity="1"
     objecttolerance="10"
     gridtolerance="10"
     guidetolerance="10"
     inkscape:pageopacity="0"
     inkscape:pageshadow="2"
     inkscape:window-width="1920"
     inkscape:window-height="1018"
     id="namedview37"
     showgrid="false"
     inkscape:zoom="1.7545705"
     inkscape:cx="190.22"
     inkscape:cy="190.22"
     inkscape:window-x="-8"
     inkscape:window-y="-8"
     inkscape:window-maximized="1"
     inkscape:current-layer="Layer_1" /><path
     inkscape:connector-curvature="0"
     style="fill:#b3b3b3"
     d="m 380.445,190.22 c 0,105.06 -85.17,190.22 -190.22,190.22 -2.66,0 -5.32,-0.05 -7.95,-0.17 C 80.905003,376.11 -0.00499742,292.62 -0.00499742,190.22 -0.00499742,87.830005 80.895003,4.3400011 182.265,0.17000107 c 2.64,-0.12 5.29,-0.1699999992969 7.96,-0.1699999992969 C 295.275,1.0707031e-6 380.445,85.160005 380.445,190.22 Z"
     id="path3-3" /><g
     id="g4169"
     transform="translate(64.720002,1.2207031e-6)"><path
       id="path3"
       d="m 315.72,190.22 c 0,105.06 -85.17,190.22 -190.23,190.22 -5.82,0 -11.58,-0.26 -17.26,-0.77 C 93.15,378.31 78.58,375.2 64.72,370.53 139.97,345.17 194.16,274.02 194.16,190.22 194.16,106.42 139.97,35.27 64.72,9.92 78.6,5.24 93.19,2.12 108.29,0.77 113.95,0.26 119.69,0 125.49,0 230.55,0 315.72,85.16 315.72,190.22 Z"
       style="fill:#e2bc50"
       inkscape:connector-curvature="0" /><path
       id="path5"
       d="m 281.22,190.22 c 0,99.25 -76.01,180.74 -172.99,189.45 -15.08,-1.36 -29.65,-4.47 -43.51,-9.14 75.25,-25.36 129.44,-96.51 129.44,-180.31 0,-83.8 -54.19,-154.95 -129.44,-180.3 13.88,-4.68 28.47,-7.8 43.57,-9.15 96.95,8.74 172.93,90.22 172.93,189.45 z"
       style="fill:#f7cf52"
       inkscape:connector-curvature="0" /></g><g
     id="g7" /><g
     id="g9" /><g
     id="g11" /><g
     id="g13" /><g
     id="g15" /><g
     id="g17" /><g
     id="g19" /><g
     id="g21" /><g
     id="g23" /><g
     id="g25" /><g
     id="g27" /><g
     id="g29" /><g
     id="g31" /><g
     id="g33" /><g
     id="g35" /></svg>