<?xml version="1.0" encoding="UTF-8" standalone="no"?>
<!-- Generator: Adobe Illustrator 19.0.0, SVG Export Plug-In . SVG Version: 6.00 Build 0)  -->

<svg
   xmlns:dc="http://purl.org/dc/elements/1.1/"
   xmlns:cc="http://creativecommons.org/ns#"
   xmlns:rdf="http://www.w3.org/1999/02/22-rdf-syntax-ns#"
   xmlns:svg="http://www.w3.org/2000/svg"
   xmlns="http://www.w3.org/2000/svg"
   xmlns:sodipodi="http://sodipodi.sourceforge.net/DTD/sodipodi-0.dtd"
   xmlns:inkscape="http://www.inkscape.org/namespaces/inkscape"
   version="1.1"
   id="Layer_1"
   x="0px"
   y="0px"
   viewBox="0 0 380.446 380.446"
   style="enable-background:new 0 0 380.446 380.446;"
   xml:space="preserve"
   inkscape:version="0.91 r13725"
   sodipodi:docname="01n-6.svg"><metadata
     id="metadata43"><rdf:RDF><cc:Work
         rdf:about=""><dc:format>image/svg+xml</dc:format><dc:type
           rdf:resource="http://purl.org/dc/dcmitype/StillImage" /><dc:title></dc:title></cc:Work></rdf:RDF></metadata><defs
     id="defs41" /><sodipodi:namedview
     pagecolor="#ffffff"
     bordercolor="#666666"
     borderopacity="1"
     objecttolerance="10"
     gridtolerance="10"
     guidetolerance="10"
     inkscape:pageopacity="0"
     inkscape:pageshadow="2"
     inkscape:window-width="1920"
     inkscape:window-height="1018"
     id="namedview39"
     showgrid="false"
     inkscape:zoom="1.7545428"
     inkscape:cx="190.22301"
     inkscape:cy="190.22301"
     inkscape:window-x="-8"
     inkscape:window-y="-8"
     inkscape:window-maximized="1"
     inkscape:current-layer="Layer_1" /><path
     inkscape:connector-curvature="0"
     style="fill:#b3b3b3"
     d="m 380.44801,190.223 c 0,105.06001 -85.17,190.22001 -190.22,190.22001 -2.66,0 -5.32,-0.05 -7.95,-0.17 C 80.908008,376.11301 -0.00199185,292.62301 -0.00199185,190.223 -0.00199185,87.833004 80.898008,4.3430041 182.26801,0.17300505 c 2.64,-0.12 5.29,-0.17 7.96,-0.17 105.05,0 190.22,85.15999895 190.22,190.21999495 z"
     id="path3" /><g
     id="g3"
     transform="translate(-45.958,7.2021485e-6)"><path
       style="fill:#f7cf52"
       d="m 236.182,0 c 35.976,0 69.617,9.99 98.306,27.343 -55.09,33.321 -91.917,93.799 -91.917,162.88 0,69.081 36.827,129.559 91.917,162.88 -28.689,17.353 -62.33,27.343 -98.306,27.343 C 131.124,380.446 45.958,295.28 45.958,190.222 45.958,85.164 131.125,0 236.182,0 Z"
       id="path5"
       inkscape:connector-curvature="0" /><path
       style="fill:#e2bc50"
       d="m 236.189,0.003 c 5.8,0 11.54,0.26 17.2,0.77 -96.95,8.74 -172.93,90.22 -172.93,189.45 0,99.25 76.01,180.74 172.99,189.45 -5.68,0.51 -11.44,0.77 -17.26,0.77 -105.06,0 -190.23,-85.16 -190.23,-190.22 0,-105.06 85.17,-190.22 190.23,-190.22 z"
       id="path7"
       inkscape:connector-curvature="0" /></g><g
     id="g9" /><g
     id="g11" /><g
     id="g13" /><g
     id="g15" /><g
     id="g17" /><g
     id="g19" /><g
     id="g21" /><g
     id="g23" /><g
     id="g25" /><g
     id="g27" /><g
     id="g29" /><g
     id="g31" /><g
     id="g33" /><g
     id="g35" /><g
     id="g37" /></svg>