<?xml version="1.0" encoding="iso-8859-1"?>
<!-- Generator: Adobe Illustrator 19.0.0, SVG Export Plug-In . SVG Version: 6.00 Build 0)  -->
<svg version="1.1" id="Layer_1" xmlns="http://www.w3.org/2000/svg" xmlns:xlink="http://www.w3.org/1999/xlink" x="0px" y="0px"
	 viewBox="0 0 398.745 398.745" style="enable-background:new 0 0 398.745 398.745;" xml:space="preserve">
<g>
	<path style="fill:#1EA6C6;" d="M62.513,220.445c-0.009-0.525-0.02-1.049-0.02-1.575c0-50.155,40.659-90.814,90.814-90.814
		c43.222,0,79.388,30.196,88.562,70.643c8.555-4.789,18.409-7.531,28.91-7.531c32.766,0,59.328,26.562,59.328,59.328
		c0,1.339-0.06,2.664-0.148,3.981c24.325,9.03,41.661,32.444,41.661,59.911c0,35.286-28.605,63.892-63.892,63.892H79.865
		C35.757,378.279,0,342.522,0,298.414C0,260.266,26.749,228.369,62.513,220.445z"/>
	<g>
		<rect x="232.141" y="20.465" style="fill:#F7CF52;" width="15" height="58.599"/>
		
			<rect x="323.925" y="58.481" transform="matrix(-0.7071 -0.7071 0.7071 -0.7071 503.7079 384.2021)" style="fill:#F7CF52;" width="15" height="58.598"/>
		<rect x="340.145" y="172.068" style="fill:#F7CF52;" width="58.6" height="15"/>
		
			<rect x="118.556" y="80.282" transform="matrix(-0.7071 -0.7071 0.7071 -0.7071 190.3337 254.4022)" style="fill:#F7CF52;" width="58.598" height="15"/>
	</g>
	<path style="fill:#F7CF52;" d="M317.135,179.451c0,4.95-0.46,9.78-1.35,14.47c-12.35-9.85-28-15.75-45-15.75
		c-7.04,0-14.03,1.03-20.73,3.03c-6.54-16.73-17.42-31.7-31.53-43.1c-9.02-7.29-19.2-12.98-30.02-16.88
		c13.64-11.99,31.53-19.26,51.13-19.26C282.435,101.961,317.135,136.651,317.135,179.451z"/>
</g>
<g>
</g>
<g>
</g>
<g>
</g>
<g>
</g>
<g>
</g>
<g>
</g>
<g>
</g>
<g>
</g>
<g>
</g>
<g>
</g>
<g>
</g>
<g>
</g>
<g>
</g>
<g>
</g>
<g>
</g>
</svg>
