<?xml version="1.0" encoding="iso-8859-1"?>
<!-- Generator: Adobe Illustrator 19.0.0, SVG Export Plug-In . SVG Version: 6.00 Build 0)  -->
<svg version="1.1" id="Layer_1" xmlns="http://www.w3.org/2000/svg" xmlns:xlink="http://www.w3.org/1999/xlink" x="0px" y="0px"
	 viewBox="0 0 401.701 401.701" style="enable-background:new 0 0 401.701 401.701;" xml:space="preserve">
<g>
	<path style="fill:#1EA6C6;" d="M62.513,209.731c-0.009-0.525-0.02-1.049-0.02-1.575c0-50.155,40.659-90.814,90.814-90.814
		c43.222,0,79.388,30.196,88.562,70.643c8.555-4.789,18.409-7.531,28.91-7.531c32.766,0,59.328,26.562,59.328,59.328
		c0,1.339-0.06,2.664-0.148,3.98c24.325,9.03,41.661,32.444,41.661,59.911c0,35.286-28.605,63.892-63.892,63.892H79.865
		C35.757,367.565,0,331.809,0,287.7C0,249.552,26.749,217.655,62.513,209.731z"/>
	<path style="fill:#F7CF52;" d="M401.701,158.526c-8.8,29.8-31.56,53.62-60.7,63.89c-7.8-31.52-36.32-54.96-70.22-54.96
		c-7.03,0-14.02,1.03-20.72,3.03c-6.54-16.73-17.43-31.7-31.53-43.1c-2.03-1.64-4.12-3.2-6.27-4.68
		c4.21-49.61,45.81-88.57,96.52-88.57c15.55,0,30.23,3.66,43.25,10.18c-8.66,0.15-17.41,1.98-25.84,5.66
		c-34.08,14.93-49.6,54.68-34.67,88.76c14.93,34.08,54.67,49.62,88.76,34.68C388.581,169.776,395.771,164.676,401.701,158.526z"/>
</g>
<g>
</g>
<g>
</g>
<g>
</g>
<g>
</g>
<g>
</g>
<g>
</g>
<g>
</g>
<g>
</g>
<g>
</g>
<g>
</g>
<g>
</g>
<g>
</g>
<g>
</g>
<g>
</g>
<g>
</g>
</svg>
