<?xml version="1.0" encoding="UTF-8" standalone="no"?>
<!-- Generator: Adobe Illustrator 19.0.0, SVG Export Plug-In . SVG Version: 6.00 Build 0)  -->

<svg
   xmlns:dc="http://purl.org/dc/elements/1.1/"
   xmlns:cc="http://creativecommons.org/ns#"
   xmlns:rdf="http://www.w3.org/1999/02/22-rdf-syntax-ns#"
   xmlns:svg="http://www.w3.org/2000/svg"
   xmlns="http://www.w3.org/2000/svg"
   xmlns:sodipodi="http://sodipodi.sourceforge.net/DTD/sodipodi-0.dtd"
   xmlns:inkscape="http://www.inkscape.org/namespaces/inkscape"
   version="1.1"
   id="Layer_1"
   x="0px"
   y="0px"
   viewBox="0 0 447.974 447.974"
   style="enable-background:new 0 0 447.974 447.974;"
   xml:space="preserve"
   inkscape:version="0.91 r13725"
   sodipodi:docname="09.svg"><metadata
     id="metadata43"><rdf:RDF><cc:Work
         rdf:about=""><dc:format>image/svg+xml</dc:format><dc:type
           rdf:resource="http://purl.org/dc/dcmitype/StillImage" /><dc:title></dc:title></cc:Work></rdf:RDF></metadata><defs
     id="defs41" /><sodipodi:namedview
     pagecolor="#ffffff"
     bordercolor="#666666"
     borderopacity="1"
     objecttolerance="10"
     gridtolerance="10"
     guidetolerance="10"
     inkscape:pageopacity="0"
     inkscape:pageshadow="2"
     inkscape:window-width="1920"
     inkscape:window-height="1018"
     id="namedview39"
     showgrid="false"
     inkscape:zoom="0.52681629"
     inkscape:cx="223.987"
     inkscape:cy="223.987"
     inkscape:window-x="-8"
     inkscape:window-y="-8"
     inkscape:window-maximized="1"
     inkscape:current-layer="Layer_1" /><g
     id="g3"
     transform="translate(-4.8828124e-7,-44)"><path
       style="fill:#1ea6c6"
       d="m 62.513,191.264 c -0.009,-0.525 -0.02,-1.049 -0.02,-1.575 0,-50.155 40.659,-90.814 90.814,-90.814 43.222,0 79.388,30.196 88.562,70.643 8.555,-4.789 18.409,-7.531 28.91,-7.531 32.766,0 59.328,26.562 59.328,59.328 0,1.339 -0.06,2.664 -0.148,3.981 24.325,9.03 41.661,32.444 41.661,59.911 0,35.286 -28.605,63.892 -63.892,63.892 l -227.863,0 C 35.757,349.099 0,313.341 0,269.234 0,231.085 26.749,199.188 62.513,191.264 Z"
       id="path5"
       inkscape:connector-curvature="0" /><path
       style="fill:#037893"
       d="m 447.974,255.535 c 0,40.56 -32.88,73.44 -73.44,73.44 l -3.62,0 c 8.64,-12.43 13.71,-27.52 13.71,-43.77 0,-28.87 -16.41,-55.28 -41.65,-68.34 -2.31,-37.82 -33.81,-67.88 -72.19,-67.88 -7.04,0 -14.03,1.04 -20.73,3.04 -2.67,-6.82 -6.05,-13.35 -10.08,-19.46 15.22,-20.44 39.57,-33.69 67.02,-33.69 46.12,0 83.51,37.39 83.51,83.51 0,0.49 -0.01,0.97 -0.02,1.45 32.89,7.289 57.49,36.619 57.49,71.7 z"
       id="path7"
       inkscape:connector-curvature="0" /></g><g
     id="g9" /><g
     id="g11" /><g
     id="g13" /><g
     id="g15" /><g
     id="g17" /><g
     id="g19" /><g
     id="g21" /><g
     id="g23" /><g
     id="g25" /><g
     id="g27" /><g
     id="g29" /><g
     id="g31" /><g
     id="g33" /><g
     id="g35" /><g
     id="g37" /><g
     transform="translate(29.990499,47.907083)"
     id="g7"><rect
       id="rect9"
       height="39.745998"
       width="15"
       style="fill:#96e0de"
       y="267.88"
       x="57.644001" /><rect
       id="rect11"
       height="64.748001"
       width="15"
       style="fill:#96e0de"
       y="323.24301"
       x="57.644001" /><rect
       id="rect13"
       height="120.111"
       width="15"
       style="fill:#96e0de"
       y="267.88"
       x="89.855003" /><rect
       id="rect15"
       height="63.806999"
       width="15"
       style="fill:#96e0de"
       y="267.88"
       x="122.074" /><rect
       id="rect17"
       height="41.507"
       width="15"
       style="fill:#96e0de"
       y="346.48401"
       x="122.074" /><rect
       id="rect19"
       height="120.111"
       width="15"
       style="fill:#96e0de"
       y="267.88"
       x="154.285" /><rect
       id="rect21"
       height="34.810001"
       width="15"
       style="fill:#96e0de"
       y="353.181"
       x="218.70799" /><rect
       id="rect23"
       height="69.883003"
       width="15"
       style="fill:#96e0de"
       y="267.88"
       x="218.70799" /><rect
       id="rect25"
       height="25.483"
       width="15"
       style="fill:#96e0de"
       y="267.88"
       x="186.49699" /><rect
       id="rect27"
       height="80.358002"
       width="15"
       style="fill:#96e0de"
       y="307.633"
       x="186.49699" /><rect
       id="rect29"
       height="56.623001"
       width="15"
       style="fill:#96e0de"
       y="267.88"
       x="250.91901" /><rect
       id="rect31"
       height="48.610001"
       width="15"
       style="fill:#96e0de"
       y="339.38101"
       x="250.91901" /><rect
       id="rect33"
       height="86.464996"
       width="15"
       style="fill:#96e0de"
       y="267.88"
       x="283.138" /><rect
       id="rect35"
       height="19.365999"
       width="15"
       style="fill:#96e0de"
       y="368.625"
       x="283.138" /><rect
       id="rect37"
       height="120.111"
       width="15"
       style="fill:#96e0de"
       y="267.88"
       x="315.349" /></g></svg>