<?xml version="1.0" encoding="UTF-8" standalone="no"?>
<!-- Generator: Adobe Illustrator 19.0.0, SVG Export Plug-In . SVG Version: 6.00 Build 0)  -->

<svg
   xmlns:dc="http://purl.org/dc/elements/1.1/"
   xmlns:cc="http://creativecommons.org/ns#"
   xmlns:rdf="http://www.w3.org/1999/02/22-rdf-syntax-ns#"
   xmlns:svg="http://www.w3.org/2000/svg"
   xmlns="http://www.w3.org/2000/svg"
   xmlns:sodipodi="http://sodipodi.sourceforge.net/DTD/sodipodi-0.dtd"
   xmlns:inkscape="http://www.inkscape.org/namespaces/inkscape"
   version="1.1"
   id="Layer_1"
   x="0px"
   y="0px"
   viewBox="0 0 406.02 406.02"
   style="enable-background:new 0 0 406.02 406.02;"
   xml:space="preserve"
   inkscape:version="0.91 r13725"
   sodipodi:docname="11.svg"><metadata
     id="metadata43"><rdf:RDF><cc:Work
         rdf:about=""><dc:format>image/svg+xml</dc:format><dc:type
           rdf:resource="http://purl.org/dc/dcmitype/StillImage" /></cc:Work></rdf:RDF></metadata><defs
     id="defs41" /><sodipodi:namedview
     pagecolor="#ffffff"
     bordercolor="#666666"
     borderopacity="1"
     objecttolerance="10"
     gridtolerance="10"
     guidetolerance="10"
     inkscape:pageopacity="0"
     inkscape:pageshadow="2"
     inkscape:window-width="1920"
     inkscape:window-height="1018"
     id="namedview39"
     showgrid="false"
     inkscape:zoom="0.58125217"
     inkscape:cx="203.00999"
     inkscape:cy="203.00999"
     inkscape:window-x="-8"
     inkscape:window-y="-8"
     inkscape:window-maximized="1"
     inkscape:current-layer="Layer_1" /><polygon
     id="polygon5"
     points="257.9,279.93 295.21,279.93 189.71,406.02 229.59,299.23 190.99,299.23 207.47,250.41 225.73,196.3 306.79,196.3 275.26,250.23 "
     style="fill:#f7cf52" /><path
     inkscape:connector-curvature="0"
     id="path7"
     d="m 347.16,126.42 c 24.32,9.03 41.66,32.45 41.66,59.92 0,35.28 -28.61,63.89 -63.89,63.89 l -49.67,0 31.53,-53.93 -81.06,0 -18.26,54.11 -0.52,-0.18 -109.89,0 C 52.95,250.23 17.2,214.47 17.2,170.36 17.2,132.21 43.95,100.32 79.71,92.39 79.7,91.87 79.69,91.35 79.69,90.82 79.69,40.66 120.35,0 170.51,0 c 43.22,0 79.38,30.2 88.56,70.65 8.55,-4.79 18.41,-7.53 28.91,-7.53 32.76,0 59.33,26.56 59.33,59.32 0,1.34 -0.06,2.67 -0.15,3.98 z"
     style="fill:#1ea6c6" /><g
     id="g9" /><g
     id="g11" /><g
     id="g13" /><g
     id="g15" /><g
     id="g17" /><g
     id="g19" /><g
     id="g21" /><g
     id="g23" /><g
     id="g25" /><g
     id="g27" /><g
     id="g29" /><g
     id="g31" /><g
     id="g33" /><g
     id="g35" /><g
     id="g37" /><polygon
     transform="translate(-114.05695,-58.580261)"
     id="polygon5-5"
     points="225.73,196.3 306.79,196.3 275.26,250.23 257.9,279.93 295.21,279.93 189.71,406.02 229.59,299.23 190.99,299.23 207.47,250.41 "
     style="fill:#f7cf52" /></svg>