<?xml version="1.0" encoding="UTF-8" standalone="no"?>
<svg
   xmlns:dc="http://purl.org/dc/elements/1.1/"
   xmlns:cc="http://creativecommons.org/ns#"
   xmlns:rdf="http://www.w3.org/1999/02/22-rdf-syntax-ns#"
   xmlns:svg="http://www.w3.org/2000/svg"
   xmlns="http://www.w3.org/2000/svg"
   xmlns:sodipodi="http://sodipodi.sourceforge.net/DTD/sodipodi-0.dtd"
   xmlns:inkscape="http://www.inkscape.org/namespaces/inkscape"
   version="1.1"
   id="Layer_1"
   x="0px"
   y="0px"
   viewBox="0 0 406.02 406.02"
   style="enable-background:new 0 0 406.02 406.02;"
   xml:space="preserve"
   inkscape:version="1.0.1 (3bc2e813f5, 2020-09-07)"
   sodipodi:docname="13.svg"><metadata
     id="metadata43"><rdf:RDF><cc:Work
         rdf:about=""><dc:format>image/svg+xml</dc:format><dc:type
           rdf:resource="http://purl.org/dc/dcmitype/StillImage" /><dc:title /></cc:Work></rdf:RDF></metadata><defs
     id="defs41" /><sodipodi:namedview
     pagecolor="#ffffff"
     bordercolor="#666666"
     borderopacity="1"
     objecttolerance="10"
     gridtolerance="10"
     guidetolerance="10"
     inkscape:pageopacity="0"
     inkscape:pageshadow="2"
     inkscape:window-width="1920"
     inkscape:window-height="1018"
     id="namedview39"
     showgrid="false"
     inkscape:zoom="1.6440294"
     inkscape:cx="203.00999"
     inkscape:cy="203.00999"
     inkscape:window-x="-8"
     inkscape:window-y="-8"
     inkscape:window-maximized="1"
     inkscape:current-layer="Layer_1"
     inkscape:document-rotation="0" /><g
     transform="translate(14.920422,-21.939494)"
     id="g3"><path
       inkscape:connector-curvature="0"
       style="fill:#1ea6c6"
       d="m 62.513,153.087 c -0.009,-0.525 -0.02,-1.049 -0.02,-1.575 0,-50.155 40.659,-90.814 90.814,-90.814 43.222,0 79.388,30.196 88.562,70.643 8.555,-4.789 18.409,-7.531 28.91,-7.531 32.766,0 59.328,26.562 59.328,59.328 0,1.339 -0.06,2.664 -0.148,3.981 24.325,9.03 41.661,32.444 41.661,59.911 0,35.286 -28.605,63.892 -63.892,63.892 l -227.863,0 C 35.757,310.921 0,275.164 0,231.056 0,192.907 26.749,161.011 62.513,153.087 Z"
       id="path5" /></g><g
     id="g9" /><g
     id="g11" /><g
     id="g13" /><g
     id="g15" /><g
     id="g17" /><g
     id="g19" /><g
     id="g21" /><g
     id="g23" /><g
     id="g25" /><g
     id="g27" /><g
     id="g29" /><g
     id="g31" /><g
     id="g33" /><g
     id="g35" /><g
     id="g37" /><path
     inkscape:connector-curvature="0"
     style="fill:#51aaff;stroke-width:3.01;stroke-miterlimit:4;stroke-dasharray:none;stroke:#ffffff;stroke-opacity:1;stroke-linejoin:round;stroke-dashoffset:0;opacity:1;fill-opacity:1"
     d="m 366.41971,284.2166 h -23.06824 l 13.02758,-22.56251 -5.35838,-3.09375 -14.8137,25.65626 h -35.78644 c -0.66577,-3.23358 -2.35372,-6.0984 -4.70992,-8.24051 l 17.86867,-30.95152 h 29.62369 v -6.1875 h -26.05185 l 11.53556,-19.9811 -5.35837,-3.09375 -11.53556,19.9811 -13.02717,-22.5654 -5.35837,3.09375 14.81329,25.65955 -17.83485,30.89295 c -1.55967,-0.53665 -3.23029,-0.832 -4.9698,-0.832 -1.62938,0 -3.19894,0.25822 -4.67322,0.73135 l -17.77875,-30.79435 14.81164,-25.65503 -5.35837,-3.09375 -13.02552,22.56086 -11.53473,-19.97903 -5.35838,3.09375 11.53474,19.97945 -26.05639,-8.3e-4 -4.1e-4,6.1875 29.62905,0.001 17.75194,30.74817 c -2.4783,2.16273 -4.25907,5.10592 -4.9467,8.44552 h -35.43458 l -14.81246,-25.65626 -5.35838,3.09375 13.02675,22.56251 h -23.07112 v 6.1875 h 23.06906 l -13.02799,22.56334 5.35838,3.09375 14.81411,-25.65709 h 35.43623 c 0.68763,3.3396 2.46798,6.28279 4.94628,8.44594 l -17.75152,30.74692 h -29.62699 v 6.1875 h 26.05556 l -11.53515,19.98027 5.35838,3.09375 11.5335,-19.97738 13.02551,22.5621 5.35838,-3.09375 -14.81164,-25.65626 17.77957,-30.79601 c 1.47428,0.47355 3.04384,0.73177 4.67363,0.73177 1.73951,0 3.41055,-0.29535 4.97021,-0.83201 l 17.83361,30.89089 -14.81411,25.65915 5.35838,3.09375 13.02798,-22.56499 11.53598,19.98232 5.35837,-3.09375 -11.53391,-19.97861 26.05144,8.3e-4 4.1e-4,-6.1875 -29.6241,-8.3e-4 -17.8695,-30.95317 c 2.3562,-2.14212 4.04415,-5.00734 4.70993,-8.24093 h 35.78396 l 14.81329,25.65709 5.35837,-3.09375 -13.02716,-22.56334 h 23.0703 v -6.1875 z m -90.13538,3.09417 c 0,-5.03498 4.09654,-9.1311 9.13152,-9.1311 5.03497,0 9.1311,4.09612 9.1311,9.1311 0,5.03497 -4.09613,9.1315 -9.1311,9.1315 -5.03498,0 -9.13152,-4.09653 -9.13152,-9.1315 z"
     id="path3" /><path
     inkscape:connector-curvature="0"
     style="fill:#51aaff;stroke-width:3.01;stroke-miterlimit:4;stroke-dasharray:none;stroke:#ffffff;stroke-opacity:1;stroke-linejoin:round;stroke-dashoffset:0;opacity:1;fill-opacity:1"
     d="M 216.74283,248.08776 H 193.6746 l 13.02758,-22.56251 -5.35838,-3.09375 -14.8137,25.65626 h -35.78643 c -0.66577,-3.23358 -2.35372,-6.0984 -4.70992,-8.24051 l 17.86866,-30.95152 h 29.62369 v -6.1875 h -26.05185 l 11.53556,-19.98109 -5.35838,-3.09375 -11.53555,19.98109 -13.02716,-22.5654 -5.35837,3.09375 14.81328,25.65956 -17.83485,30.89294 c -1.55966,-0.53665 -3.23028,-0.832 -4.9698,-0.832 -1.62938,0 -3.19893,0.25822 -4.67321,0.73135 l -17.77875,-30.79435 14.81163,-25.65503 -5.35837,-3.09375 -13.02551,22.56087 -11.534732,-19.97903 -5.358379,3.09375 11.534741,19.97944 -26.056385,-8.3e-4 -4.18e-4,6.1875 29.629053,0.001 17.75193,30.74817 c -2.4783,2.16273 -4.25906,5.10592 -4.9467,8.44552 H 85.299309 l -14.812462,-25.65626 -5.358375,3.09375 13.02675,22.56251 H 55.084097 v 6.1875 h 23.069068 l -13.027993,22.56334 5.358375,3.09375 14.814112,-25.65709 h 35.436221 c 0.68764,3.3396 2.46799,6.28279 4.94629,8.44594 L 107.92865,293.4684 H 78.301665 v 6.1875 h 26.055555 l -11.535148,19.98027 5.358373,3.09375 11.533505,-19.97738 13.0255,22.5621 5.35838,-3.09375 -14.81163,-25.65626 17.77957,-30.79601 c 1.47428,0.47355 3.04383,0.73177 4.67363,0.73177 1.7395,0 3.41055,-0.29535 4.9702,-0.83201 l 17.83362,30.89089 -14.81412,25.65915 5.35838,3.09375 13.02798,-22.56499 11.53597,19.98232 5.35838,-3.09375 -11.53391,-19.97861 26.05143,8.3e-4 4.2e-4,-6.1875 -29.6241,-8.3e-4 -17.8695,-30.95317 c 2.3562,-2.14212 4.04415,-5.00734 4.70993,-8.24093 h 35.78395 l 14.81329,25.65709 5.35838,-3.09375 -13.02717,-22.56334 h 23.0703 v -6.1875 z m -90.13536,3.09417 c 0,-5.03498 4.09653,-9.1311 9.13151,-9.1311 5.03497,0 9.1311,4.09612 9.1311,9.1311 0,5.03497 -4.09613,9.1315 -9.1311,9.1315 -5.03498,0 -9.13151,-4.09653 -9.13151,-9.1315 z"
     id="path3-5" /></svg>
