<?xml version="1.0" encoding="UTF-8" standalone="no"?>
<svg
   xmlns:dc="http://purl.org/dc/elements/1.1/"
   xmlns:cc="http://creativecommons.org/ns#"
   xmlns:rdf="http://www.w3.org/1999/02/22-rdf-syntax-ns#"
   xmlns:svg="http://www.w3.org/2000/svg"
   xmlns="http://www.w3.org/2000/svg"
   xmlns:xlink="http://www.w3.org/1999/xlink"
   xmlns:sodipodi="http://sodipodi.sourceforge.net/DTD/sodipodi-0.dtd"
   xmlns:inkscape="http://www.inkscape.org/namespaces/inkscape"
   viewBox="0 0 480 480"
   version="1.1"
   id="svg33"
   sodipodi:docname="09d.svg"
   inkscape:version="1.0.1 (3bc2e813f5, 2020-09-07)">
  <metadata
     id="metadata37">
    <rdf:RDF>
      <cc:Work
         rdf:about="">
        <dc:format>image/svg+xml</dc:format>
        <dc:type
           rdf:resource="http://purl.org/dc/dcmitype/StillImage" />
        <dc:title />
      </cc:Work>
    </rdf:RDF>
  </metadata>
  <sodipodi:namedview
     pagecolor="#ffffff"
     bordercolor="#666666"
     borderopacity="1"
     objecttolerance="10"
     gridtolerance="10"
     guidetolerance="10"
     inkscape:pageopacity="0"
     inkscape:pageshadow="2"
     inkscape:window-width="1600"
     inkscape:window-height="838"
     id="namedview35"
     showgrid="false"
     inkscape:zoom="1.35"
     inkscape:cx="240"
     inkscape:cy="240"
     inkscape:window-x="-8"
     inkscape:window-y="-8"
     inkscape:window-maximized="1"
     inkscape:current-layer="svg33"
     inkscape:document-rotation="0" />
  <defs
     id="defs23">
    <linearGradient
       id="a"
       x1="16.5"
       y1="19.67"
       x2="21.5"
       y2="28.33"
       gradientUnits="userSpaceOnUse">
      <stop
         offset="0"
         stop-color="#fbbf24"
         id="stop2" />
      <stop
         offset="0.45"
         stop-color="#fbbf24"
         id="stop4" />
      <stop
         offset="1"
         stop-color="#f59e0b"
         id="stop6" />
    </linearGradient>
    <linearGradient
       id="b"
       x1="40.76"
       y1="23"
       x2="50.83"
       y2="40.46"
       gradientUnits="userSpaceOnUse">
      <stop
         offset="0"
         stop-color="#9ca3af"
         id="stop9" />
      <stop
         offset="0.45"
         stop-color="#9ca3af"
         id="stop11" />
      <stop
         offset="1"
         stop-color="#6b7280"
         id="stop13" />
    </linearGradient>
    <linearGradient
       id="c"
       x1="22.56"
       y1="21.96"
       x2="39.2"
       y2="50.8"
       gradientUnits="userSpaceOnUse">
      <stop
         offset="0"
         stop-color="#f3f7fe"
         id="stop16" />
      <stop
         offset="0.45"
         stop-color="#f3f7fe"
         id="stop18" />
      <stop
         offset="1"
         stop-color="#deeafb"
         id="stop20" />
    </linearGradient>
    <linearGradient
       id="e"
       x1="36.529999"
       y1="42.950001"
       x2="39.470001"
       y2="48.049999"
       xlink:href="#c-9" />
    <linearGradient
       id="c-9"
       x1="22.530001"
       y1="42.950001"
       x2="25.469999"
       y2="48.049999"
       gradientUnits="userSpaceOnUse">
      <stop
         offset="0"
         stop-color="#4286ee"
         id="stop16-1" />
      <stop
         offset="0.45"
         stop-color="#4286ee"
         id="stop18-4" />
      <stop
         offset="1"
         stop-color="#0950bc"
         id="stop20-0" />
    </linearGradient>
    <linearGradient
       id="d"
       x1="29.530001"
       y1="42.950001"
       x2="32.470001"
       y2="48.049999"
       xlink:href="#c-9" />
    <linearGradient
       inkscape:collect="always"
       xlink:href="#c-9"
       id="linearGradient886"
       gradientUnits="userSpaceOnUse"
       x1="22.530001"
       y1="42.950001"
       x2="25.469999"
       y2="48.049999" />
  </defs>
  <g
     id="g862"
     transform="matrix(9,0,0,9,-56.620668,-35.60083)">
    <circle
       cx="19"
       cy="24"
       r="5"
       stroke="#f8af18"
       stroke-miterlimit="10"
       stroke-width="0.5"
       fill="url(#a)"
       id="circle25"
       style="fill:url(#a)" />
    <path
       d="M 19,15.67 V 12.5 m 0,23 v -3.17 m 5.89,-14.22 2.24,-2.24 m -16.26,16.26 2.24,-2.24 m 0,-11.78 -2.24,-2.24 M 27.13,32.13 24.89,29.89 M 7.5,24 h 3.17 m 19.83,0 h -3.17"
       fill="none"
       stroke="#fbbf24"
       stroke-linecap="round"
       stroke-miterlimit="10"
       stroke-width="2"
       id="path27" />
    <path
       d="m 34.23,33.45 a 4.05,4.05 0 0 0 4.05,4 h 16.51 a 4.34,4.34 0 0 0 0.81,-8.61 3.52,3.52 0 0 0 0.06,-0.66 4.06,4.06 0 0 0 -6.13,-3.48 6.08,6.08 0 0 0 -11.25,3.19 6.34,6.34 0 0 0 0.18,1.46 h -0.18 a 4.05,4.05 0 0 0 -4.05,4.1 z"
       stroke="#848b98"
       stroke-miterlimit="10"
       stroke-width="0.5"
       fill="url(#b)"
       id="path29"
       style="fill:url(#b)" />
    <path
       d="m 46.5,31.5 h -0.32 a 10.49,10.49 0 0 0 -19.11,-8 7,7 0 0 0 -10.57,6 7.21,7.21 0 0 0 0.1,1.14 7.5,7.5 0 0 0 1.4,14.86 4.19,4.19 0 0 0 0.5,0 v 0 h 28 a 7,7 0 0 0 0,-14 z"
       stroke="#e6effc"
       stroke-miterlimit="10"
       stroke-width="0.5"
       fill="url(#c)"
       id="path31"
       style="fill:url(#c)" />
    <line
       x1="24.62582"
       y1="43.804626"
       x2="23.845821"
       y2="48.744629"
       fill="none"
       stroke-linecap="round"
       stroke-miterlimit="10"
       stroke-width="2"
       stroke="url(#c)"
       id="line40"
       style="stroke:url(#linearGradient886)" />
    <line
       x1="31.62582"
       y1="43.804626"
       x2="30.845821"
       y2="48.744629"
       fill="none"
       stroke-linecap="round"
       stroke-miterlimit="10"
       stroke-width="2"
       stroke="url(#d)"
       id="line42"
       style="stroke:url(#d)" />
    <line
       x1="38.62582"
       y1="43.804626"
       x2="37.845821"
       y2="48.744629"
       fill="none"
       stroke-linecap="round"
       stroke-miterlimit="10"
       stroke-width="2"
       stroke="url(#e)"
       id="line44"
       style="stroke:url(#e)" />
  </g>
</svg>
