<?xml version="1.0" encoding="UTF-8" standalone="no"?>
<svg
   xmlns:dc="http://purl.org/dc/elements/1.1/"
   xmlns:cc="http://creativecommons.org/ns#"
   xmlns:rdf="http://www.w3.org/1999/02/22-rdf-syntax-ns#"
   xmlns:svg="http://www.w3.org/2000/svg"
   xmlns="http://www.w3.org/2000/svg"
   xmlns:sodipodi="http://sodipodi.sourceforge.net/DTD/sodipodi-0.dtd"
   xmlns:inkscape="http://www.inkscape.org/namespaces/inkscape"
   viewBox="0 0 480 480"
   version="1.1"
   id="svg31"
   sodipodi:docname="11n.svg"
   inkscape:version="1.0.1 (3bc2e813f5, 2020-09-07)">
  <metadata
     id="metadata35">
    <rdf:RDF>
      <cc:Work
         rdf:about="">
        <dc:format>image/svg+xml</dc:format>
        <dc:type
           rdf:resource="http://purl.org/dc/dcmitype/StillImage" />
      </cc:Work>
    </rdf:RDF>
  </metadata>
  <sodipodi:namedview
     pagecolor="#ffffff"
     bordercolor="#666666"
     borderopacity="1"
     objecttolerance="10"
     gridtolerance="10"
     guidetolerance="10"
     inkscape:pageopacity="0"
     inkscape:pageshadow="2"
     inkscape:window-width="1600"
     inkscape:window-height="838"
     id="namedview33"
     showgrid="false"
     inkscape:zoom="1.35"
     inkscape:cx="240"
     inkscape:cy="240"
     inkscape:window-x="-8"
     inkscape:window-y="-8"
     inkscape:window-maximized="1"
     inkscape:current-layer="svg31" />
  <defs
     id="defs23">
    <linearGradient
       id="a"
       x1="13.58"
       y1="15.57"
       x2="24.15"
       y2="33.87"
       gradientUnits="userSpaceOnUse">
      <stop
         offset="0"
         stop-color="#86c3db"
         id="stop2" />
      <stop
         offset="0.45"
         stop-color="#86c3db"
         id="stop4" />
      <stop
         offset="1"
         stop-color="#5eafcf"
         id="stop6" />
    </linearGradient>
    <linearGradient
       id="b"
       x1="22.56"
       y1="21.96"
       x2="39.2"
       y2="50.8"
       gradientUnits="userSpaceOnUse">
      <stop
         offset="0"
         stop-color="#f3f7fe"
         id="stop9" />
      <stop
         offset="0.45"
         stop-color="#f3f7fe"
         id="stop11" />
      <stop
         offset="1"
         stop-color="#deeafb"
         id="stop13" />
    </linearGradient>
    <linearGradient
       id="c"
       x1="26.74"
       y1="37.88"
       x2="35.76"
       y2="53.52"
       gradientUnits="userSpaceOnUse">
      <stop
         offset="0"
         stop-color="#f7b23b"
         id="stop16" />
      <stop
         offset="0.45"
         stop-color="#f7b23b"
         id="stop18" />
      <stop
         offset="1"
         stop-color="#f59e0b"
         id="stop20" />
    </linearGradient>
  </defs>
  <g
     id="g863"
     transform="matrix(9,0,0,9,-44.638023,-85.544067)">
    <path
       d="M 29.33,26.68 A 10.61,10.61 0 0 1 18.65,16.14 10.5,10.5 0 0 1 19,13.5 10.54,10.54 0 1 0 30.5,26.61 11.48,11.48 0 0 1 29.33,26.68 Z"
       stroke="#72b9d5"
       stroke-linecap="round"
       stroke-linejoin="round"
       stroke-width="0.5"
       fill="url(#a)"
       id="path25"
       style="fill:url(#a)" />
    <path
       d="m 46.5,31.5 h -0.32 a 10.49,10.49 0 0 0 -19.11,-8 7,7 0 0 0 -10.57,6 7.21,7.21 0 0 0 0.1,1.14 7.5,7.5 0 0 0 1.4,14.86 4.19,4.19 0 0 0 0.5,0 v 0 h 28 a 7,7 0 0 0 0,-14 z"
       stroke="#e6effc"
       stroke-miterlimit="10"
       stroke-width="0.5"
       fill="url(#b)"
       id="path27"
       style="fill:url(#b)" />
    <polygon
       points="28,58 38,44 32,44 36,36 30,36 26,48 30,48 "
       stroke="#f6a823"
       stroke-miterlimit="10"
       stroke-width="0.5"
       fill="url(#c)"
       id="polygon29"
       style="fill:url(#c)" />
  </g>
</svg>
