<?xml version="1.0" encoding="UTF-8" standalone="no"?>
<svg
   xmlns:dc="http://purl.org/dc/elements/1.1/"
   xmlns:cc="http://creativecommons.org/ns#"
   xmlns:rdf="http://www.w3.org/1999/02/22-rdf-syntax-ns#"
   xmlns:svg="http://www.w3.org/2000/svg"
   xmlns="http://www.w3.org/2000/svg"
   xmlns:sodipodi="http://sodipodi.sourceforge.net/DTD/sodipodi-0.dtd"
   xmlns:inkscape="http://www.inkscape.org/namespaces/inkscape"
   version="1.1"
   id="Layer_1"
   x="0px"
   y="0px"
   viewBox="0 0 410.45001 410.44"
   xml:space="preserve"
   inkscape:version="1.0.1 (3bc2e813f5, 2020-09-07)"
   sodipodi:docname="01n-2.svg"
   width="410.45001"
   height="410.44"><metadata
     id="metadata41"><rdf:RDF><cc:Work
         rdf:about=""><dc:format>image/svg+xml</dc:format><dc:type
           rdf:resource="http://purl.org/dc/dcmitype/StillImage" /><dc:title></dc:title></cc:Work></rdf:RDF></metadata><defs
     id="defs39" /><sodipodi:namedview
     pagecolor="#ffffff"
     bordercolor="#666666"
     borderopacity="1"
     objecttolerance="10"
     gridtolerance="10"
     guidetolerance="10"
     inkscape:pageopacity="0"
     inkscape:pageshadow="2"
     inkscape:window-width="1600"
     inkscape:window-height="838"
     id="namedview37"
     showgrid="false"
     inkscape:zoom="1.2406687"
     inkscape:cx="205.225"
     inkscape:cy="205.22"
     inkscape:window-x="-8"
     inkscape:window-y="-8"
     inkscape:window-maximized="1"
     inkscape:current-layer="Layer_1"
     inkscape:document-rotation="0"
     fit-margin-top="0"
     fit-margin-left="0"
     fit-margin-right="0"
     fit-margin-bottom="0" /><path
     inkscape:connector-curvature="0"
     style="fill:#000000;fill-opacity:1;stroke:#000000;stroke-width:30;stroke-miterlimit:4;stroke-dasharray:none;stroke-opacity:1"
     d="m 395.45,205.22 c 0,105.06 -85.17,190.22 -190.22,190.22 -2.66,0 -5.32,-0.05 -7.95,-0.17 C 95.91,391.11 15,307.62 15,205.22 15,102.83 95.9,19.34 197.27,15.17 c 2.64,-0.12 5.29,-0.17 7.96,-0.17 105.05,0 190.22,85.16 190.22,190.22 z"
     id="path3-3" /><g
     id="g4169"
     transform="translate(79.724999,14.999999)"
     style="fill:#ffffff;fill-opacity:1"><path
       id="path3"
       d="m 315.72,190.22 c 0,105.06 -85.17,190.22 -190.23,190.22 -5.82,0 -11.58,-0.26 -17.26,-0.77 C 93.15,378.31 78.58,375.2 64.72,370.53 139.97,345.17 194.16,274.02 194.16,190.22 194.16,106.42 139.97,35.27 64.72,9.92 78.6,5.24 93.19,2.12 108.29,0.77 113.95,0.26 119.69,0 125.49,0 230.55,0 315.72,85.16 315.72,190.22 Z"
       style="fill:#ffffff;fill-opacity:1"
       inkscape:connector-curvature="0" /><path
       id="path5"
       d="m 281.22,190.22 c 0,99.25 -76.01,180.74 -172.99,189.45 -15.08,-1.36 -29.65,-4.47 -43.51,-9.14 75.25,-25.36 129.44,-96.51 129.44,-180.31 0,-83.8 -54.19,-154.95 -129.44,-180.3 13.88,-4.68 28.47,-7.8 43.57,-9.15 96.95,8.74 172.93,90.22 172.93,189.45 z"
       style="fill:#ffffff;fill-opacity:1"
       inkscape:connector-curvature="0" /></g><g
     id="g7"
     transform="translate(15.004997,14.999999)" /><g
     id="g9"
     transform="translate(15.004997,14.999999)" /><g
     id="g11"
     transform="translate(15.004997,14.999999)" /><g
     id="g13"
     transform="translate(15.004997,14.999999)" /><g
     id="g15"
     transform="translate(15.004997,14.999999)" /><g
     id="g17"
     transform="translate(15.004997,14.999999)" /><g
     id="g19"
     transform="translate(15.004997,14.999999)" /><g
     id="g21"
     transform="translate(15.004997,14.999999)" /><g
     id="g23"
     transform="translate(15.004997,14.999999)" /><g
     id="g25"
     transform="translate(15.004997,14.999999)" /><g
     id="g27"
     transform="translate(15.004997,14.999999)" /><g
     id="g29"
     transform="translate(15.004997,14.999999)" /><g
     id="g31"
     transform="translate(15.004997,14.999999)" /><g
     id="g33"
     transform="translate(15.004997,14.999999)" /><g
     id="g35"
     transform="translate(15.004997,14.999999)" /></svg>
