<?xml version="1.0" encoding="UTF-8" standalone="no"?>
<svg
   xmlns:dc="http://purl.org/dc/elements/1.1/"
   xmlns:cc="http://creativecommons.org/ns#"
   xmlns:rdf="http://www.w3.org/1999/02/22-rdf-syntax-ns#"
   xmlns:svg="http://www.w3.org/2000/svg"
   xmlns="http://www.w3.org/2000/svg"
   xmlns:sodipodi="http://sodipodi.sourceforge.net/DTD/sodipodi-0.dtd"
   xmlns:inkscape="http://www.inkscape.org/namespaces/inkscape"
   version="1.1"
   id="Layer_1"
   x="0px"
   y="0px"
   viewBox="0 0 410.45 410.43999"
   xml:space="preserve"
   inkscape:version="1.0.1 (3bc2e813f5, 2020-09-07)"
   sodipodi:docname="01n-1.svg"
   width="410.45001"
   height="410.44"><metadata
     id="metadata41"><rdf:RDF><cc:Work
         rdf:about=""><dc:format>image/svg+xml</dc:format><dc:type
           rdf:resource="http://purl.org/dc/dcmitype/StillImage" /><dc:title></dc:title></cc:Work></rdf:RDF></metadata><defs
     id="defs39" /><sodipodi:namedview
     pagecolor="#ffffff"
     bordercolor="#666666"
     borderopacity="1"
     objecttolerance="10"
     gridtolerance="10"
     guidetolerance="10"
     inkscape:pageopacity="0"
     inkscape:pageshadow="2"
     inkscape:window-width="1600"
     inkscape:window-height="838"
     id="namedview37"
     showgrid="false"
     inkscape:zoom="1.2406491"
     inkscape:cx="73.851746"
     inkscape:cy="205.22"
     inkscape:window-x="-8"
     inkscape:window-y="-8"
     inkscape:window-maximized="1"
     inkscape:current-layer="Layer_1"
     inkscape:document-rotation="0"
     fit-margin-top="0"
     fit-margin-left="0"
     fit-margin-right="0"
     fit-margin-bottom="0" /><path
     inkscape:connector-curvature="0"
     style="fill:#000000;fill-opacity:1;stroke:#000000;stroke-width:30;stroke-miterlimit:4;stroke-dasharray:none;stroke-opacity:1"
     d="m 395.45,205.22 c 0,105.06 -85.17,190.22 -190.22,190.22 -2.66,0 -5.32,-0.05 -7.95,-0.17 C 95.91,391.11 15,307.62 15,205.22 15,102.83 95.9,19.34 197.27,15.17 c 2.64,-0.12 5.29,-0.17 7.96,-0.17 105.05,0 190.22,85.16 190.22,190.22 z"
     id="path3-1" /><g
     id="g4180"
     transform="translate(96.044006,14.996993)"
     style="fill:#ffffff;fill-opacity:1;stroke:none;stroke-opacity:1"><path
       id="path3"
       d="M 109.179,0 C 99.618,0 90.225,0.714 81.042,2.075 172.756,15.674 243.13,94.727 243.13,190.223 c 0,95.497 -70.373,174.549 -162.087,188.148 9.182,1.362 18.576,2.075 28.137,2.075 105.058,0 190.224,-85.166 190.224,-190.224 C 299.404,85.164 214.238,0 109.179,0 Z"
       style="fill:#ffffff;fill-opacity:1;stroke:none;stroke-opacity:1"
       inkscape:connector-curvature="0" /><path
       id="path5"
       d="m 109.174,0.003 c -5.8,0 -11.54,0.26 -17.2,0.77 96.95,8.74 172.93,90.22 172.93,189.45 0,99.25 -76.01,180.74 -172.99,189.45 5.68,0.51 11.44,0.77 17.26,0.77 105.06,0 190.23,-85.16 190.23,-190.22 0,-105.06 -85.171,-190.22 -190.23,-190.22 z"
       style="fill:#ffffff;fill-opacity:1;stroke:none;stroke-opacity:1"
       inkscape:connector-curvature="0" /></g><g
     id="g7"
     transform="translate(15.001992,14.996993)" /><g
     id="g9"
     transform="translate(15.001992,14.996993)" /><g
     id="g11"
     transform="translate(15.001992,14.996993)" /><g
     id="g13"
     transform="translate(15.001992,14.996993)" /><g
     id="g15"
     transform="translate(15.001992,14.996993)" /><g
     id="g17"
     transform="translate(15.001992,14.996993)" /><g
     id="g19"
     transform="translate(15.001992,14.996993)" /><g
     id="g21"
     transform="translate(15.001992,14.996993)" /><g
     id="g23"
     transform="translate(15.001992,14.996993)" /><g
     id="g25"
     transform="translate(15.001992,14.996993)" /><g
     id="g27"
     transform="translate(15.001992,14.996993)" /><g
     id="g29"
     transform="translate(15.001992,14.996993)" /><g
     id="g31"
     transform="translate(15.001992,14.996993)" /><g
     id="g33"
     transform="translate(15.001992,14.996993)" /><g
     id="g35"
     transform="translate(15.001992,14.996993)" /></svg>
