<?xml version="1.0" standalone="no"?><!-- Generator: Gravit.io --><svg xmlns="http://www.w3.org/2000/svg" xmlns:xlink="http://www.w3.org/1999/xlink" style="isolation:isolate" viewBox="0 0 512 512" width="512" height="512"><g id="null"><g id="Cloud__x2B__Heavy_Rain"><g id="null"><path d=" M 431.401 141.55 C 431.989 136.55 432.55 130.759 432.55 126.512 C 432.55 56.752 376.363 0 307.313 0 C 263.363 0 222.816 23.428 200.274 60.81 C 186.281 51.13 169.727 45.937 152.416 45.937 C 105.527 45.937 67.377 84.478 67.377 131.851 C 67.377 137.063 67.853 142.261 68.762 147.365 C 28.498 162.101 1.294 200.665 1.294 244.922 C 1.294 301.245 45.48 343.708 104.082 343.708 L 398.321 343.708 C 454.998 343.708 501.109 297.135 501.109 239.889 C 501.114 195.397 472.376 155.674 431.401 141.55 Z  M 398.326 319.946 L 104.082 319.946 C 58.889 319.946 24.816 287.681 24.816 244.917 C 24.816 207.629 49.835 175.604 85.659 167.012 C 88.884 166.254 91.638 164.154 93.239 161.225 C 94.849 158.297 95.151 154.827 94.105 151.663 C 91.977 145.307 90.904 138.65 90.904 131.851 C 90.904 97.581 118.498 69.718 152.406 69.718 C 168.701 69.718 184.068 76.093 195.66 87.665 C 198.4 90.382 202.284 91.634 206.065 90.881 C 209.86 90.194 213.056 87.642 214.648 84.125 C 231.107 47.467 267.492 23.785 307.308 23.785 C 363.382 23.785 409.009 69.855 409.009 126.512 C 409.009 132.341 407.366 144.224 406.74 148.311 C 405.784 154.516 409.739 160.397 415.784 161.767 C 451.594 169.869 477.597 202.718 477.597 239.889 C 477.588 284.028 442.041 319.946 398.326 319.946 Z  M 132.185 376.759 C 125.725 375.869 119.798 380.379 118.889 386.867 L 111.036 443.002 C 110.132 449.495 114.619 455.517 121.041 456.439 C 121.606 456.515 122.161 456.538 122.707 456.538 C 128.484 456.538 133.512 452.273 134.351 446.336 L 142.19 390.201 C 143.098 383.708 138.607 377.691 132.185 376.759 Z  M 213.565 376.759 C 207.105 375.869 201.178 380.379 200.269 386.867 L 184.577 498.45 C 183.668 504.943 188.146 510.964 194.568 511.887 C 195.133 511.986 195.688 512 196.239 512 C 202.006 512 207.035 507.73 207.873 501.802 L 223.565 390.215 C 224.474 383.708 220.006 377.719 213.565 376.759 Z  M 297.855 376.759 C 291.404 375.869 285.449 380.379 284.545 386.867 L 268.867 498.45 C 267.944 504.943 272.421 510.964 278.853 511.887 C 279.422 511.986 279.968 512 280.519 512 C 286.287 512 291.324 507.73 292.153 501.802 L 307.841 390.215 C 308.749 383.708 304.281 377.719 297.855 376.759 Z  M 379.225 376.759 C 372.742 375.869 366.838 380.379 365.929 386.867 L 358.076 443.002 C 357.182 449.495 361.654 455.517 368.09 456.439 C 368.641 456.515 369.192 456.538 369.743 456.538 C 375.525 456.538 380.548 452.273 381.391 446.336 L 389.235 390.201 C 390.129 383.708 385.642 377.691 379.225 376.759 Z " fill="rgb(0,0,0)"/></g></g></g></svg>