<?xml version="1.0" standalone="no"?><!-- Generator: Gravit.io --><svg xmlns="http://www.w3.org/2000/svg" xmlns:xlink="http://www.w3.org/1999/xlink" style="isolation:isolate" viewBox="0 0 512 512" width="512" height="512"><g id="null"><g id="Cloud__x2B__Sun__x2B__Heavy_Rain"><g id="null"><path d=" M 98.59 402.715 C 92.277 401.88 86.348 406.313 85.446 412.736 L 79.423 455.903 C 78.53 462.354 82.959 468.335 89.324 469.246 C 89.875 469.317 90.421 469.36 90.967 469.36 C 96.658 469.36 101.647 465.102 102.468 459.211 L 108.482 416.044 C 109.375 409.593 104.946 403.641 98.59 402.715 Z  M 160.972 402.715 C 154.649 401.818 148.735 406.285 147.819 412.736 L 135.795 498.548 C 134.903 504.999 139.322 510.97 145.678 511.881 C 146.238 511.981 146.784 512 147.335 512 C 153.026 512 158.015 507.756 158.831 501.875 L 170.855 416.044 C 171.757 409.622 167.328 403.641 160.972 402.715 Z  M 225.566 402.715 C 219.21 401.818 213.305 406.285 212.413 412.736 L 200.389 498.548 C 199.487 504.999 203.902 510.97 210.272 511.881 C 210.818 511.981 211.378 512 211.914 512 C 217.615 512 222.595 507.756 223.425 501.875 L 235.449 416.044 C 236.341 409.622 231.922 403.641 225.566 402.715 Z  M 287.924 402.715 C 281.592 401.88 275.673 406.313 274.776 412.736 L 268.766 455.903 C 267.86 462.354 272.288 468.335 278.649 469.246 C 279.209 469.317 279.75 469.36 280.291 469.36 C 285.992 469.36 290.981 465.102 291.807 459.211 L 297.821 416.044 C 298.718 409.593 294.28 403.641 287.924 402.715 Z  M 417.914 170.784 C 408.715 118.09 358.96 82.831 306.983 92.116 C 288.029 95.51 271.026 104.324 257.35 117.71 C 249.836 115.764 242.004 114.62 233.901 114.62 C 201.604 114.62 171.733 131.357 154.365 158.262 C 144.164 151.906 132.378 148.498 120.117 148.498 C 84.022 148.498 54.664 178.265 54.664 214.834 C 54.664 218.024 54.877 221.19 55.319 224.308 C 25.851 236.218 6.114 265.14 6.114 298.192 C 6.114 341.42 39.854 374.04 84.601 374.04 L 300.769 374.04 C 344.04 374.04 379.252 338.344 379.252 294.465 C 379.252 285.784 377.795 277.349 375.16 269.402 C 407.301 248.564 424.683 209.551 417.914 170.784 Z  M 300.769 350.477 L 84.601 350.477 C 53.111 350.477 29.378 328.001 29.378 298.192 C 29.378 272.118 46.803 249.713 71.757 243.708 C 74.947 242.944 77.662 240.87 79.257 237.969 C 80.837 235.064 81.151 231.609 80.116 228.466 C 78.649 224.109 77.928 219.514 77.928 214.824 C 77.928 191.252 96.858 172.061 120.117 172.061 C 131.295 172.061 141.828 176.442 149.793 184.421 C 152.494 187.108 156.339 188.323 160.07 187.611 C 163.82 186.918 166.986 184.397 168.557 180.899 C 180.163 154.968 205.82 138.207 233.901 138.207 C 273.461 138.207 305.634 170.803 305.634 210.899 C 305.634 214.558 304.642 222.229 303.987 226.492 C 303.033 232.634 306.954 238.468 312.93 239.825 C 337.879 245.517 355.998 268.496 355.998 294.47 C 355.998 325.357 331.224 350.477 300.769 350.477 Z  M 364.504 248.322 C 355.556 235.639 343.044 225.59 328.291 219.951 C 328.623 216.808 328.884 213.519 328.884 210.903 C 328.884 175.478 309.864 144.544 281.687 127.821 C 290.35 121.555 300.266 117.283 311.032 115.356 C 350.453 108.259 388.062 134.998 395.006 174.904 C 400.014 203.475 387.644 232.259 364.504 248.322 Z  M 323.834 56.691 L 323.905 56.691 C 330.332 56.638 335.496 51.331 335.463 44.805 L 335.249 11.71 C 335.197 5.24 330.004 0 323.62 0 L 323.544 0 C 317.117 0.047 311.948 5.359 311.981 11.881 L 312.194 44.976 C 312.247 51.455 317.435 56.691 323.834 56.691 Z  M 494.257 188.641 L 494.166 188.641 L 461.513 188.855 C 455.086 188.907 449.922 194.214 449.955 200.712 C 450.007 207.215 455.195 212.427 461.585 212.427 L 461.661 212.427 L 494.323 212.213 C 500.75 212.166 505.919 206.854 505.886 200.356 C 505.839 193.858 500.65 188.641 494.257 188.641 Z  M 427.963 98.88 C 430.963 98.88 433.963 97.717 436.232 95.358 L 459.178 71.809 C 463.692 67.186 463.635 59.714 459.074 55.143 C 454.517 50.572 447.154 50.591 442.635 55.238 L 419.694 78.81 C 415.171 83.434 415.218 90.905 419.789 95.476 C 422.054 97.736 425.011 98.88 427.963 98.88 Z  M 203.294 95.358 C 205.568 97.717 208.568 98.88 211.568 98.88 C 214.52 98.88 217.473 97.736 219.737 95.472 C 224.318 90.9 224.356 83.429 219.841 78.806 L 196.9 55.233 C 192.377 50.586 185.019 50.572 180.462 55.138 C 175.891 59.71 175.844 67.181 180.358 71.804 L 203.294 95.358 Z  M 423.435 288.598 C 418.921 283.951 411.544 283.909 406.997 288.499 C 402.411 293.075 402.373 300.522 406.892 305.169 L 429.838 328.742 C 432.112 331.077 435.107 332.24 438.107 332.24 C 441.06 332.24 444.012 331.125 446.276 328.837 C 450.857 324.266 450.895 316.813 446.381 312.166 L 423.435 288.598 Z " fill="rgb(0,0,0)"/></g></g></g></svg>