<?xml version="1.0" standalone="no"?><!-- Generator: Gravit.io --><svg xmlns="http://www.w3.org/2000/svg" xmlns:xlink="http://www.w3.org/1999/xlink" style="isolation:isolate" viewBox="0 0 512 512" width="512" height="512"><g id="null"><g id="Cloud__x2B__Moon__x2B__Heavy_Rain"><g id="null"><path d=" M 114.55 396.017 C 107.778 395.128 101.386 399.809 100.421 406.671 L 93.953 452.488 C 92.989 459.321 97.755 465.651 104.584 466.626 C 105.178 466.725 105.763 466.744 106.347 466.744 C 112.482 466.744 117.833 462.239 118.722 455.99 L 125.176 410.169 C 126.145 403.311 121.393 396.996 114.55 396.017 Z  M 181.589 396.017 C 174.779 395.066 168.421 399.809 167.451 406.643 L 154.53 497.724 C 153.551 504.587 158.308 510.902 165.147 511.881 C 165.745 511.952 166.339 512 166.924 512 C 173.035 512 178.386 507.495 179.285 501.241 L 192.206 410.159 C 193.175 403.335 188.433 396.996 181.589 396.017 Z  M 251.015 396.017 C 244.224 395.066 237.846 399.809 236.882 406.643 L 223.96 497.724 C 222.981 504.587 227.738 510.902 234.577 511.881 C 235.171 511.952 235.755 512 236.349 512 C 242.466 512 247.817 507.495 248.715 501.241 L 261.636 410.159 C 262.61 403.335 257.853 396.996 251.015 396.017 Z  M 318.031 396.017 C 311.254 395.128 304.863 399.809 303.907 406.671 L 297.454 452.488 C 296.47 459.321 301.246 465.651 308.066 466.626 C 308.664 466.725 309.244 466.744 309.843 466.744 C 315.969 466.744 321.32 462.239 322.208 455.99 L 328.662 410.169 C 329.631 403.311 324.874 396.996 318.031 396.017 Z  M 481.779 118.576 C 481.779 118.006 481.75 117.436 481.708 116.889 C 481.608 111.619 478.262 106.995 473.301 105.256 C 468.316 103.54 462.827 105.113 459.515 109.186 C 446.741 124.873 427.836 133.883 407.682 133.883 C 370.819 133.883 340.818 103.849 340.818 66.948 C 340.818 49.902 347.305 33.62 359.062 21.108 C 362.674 17.292 363.496 11.622 361.139 6.898 C 358.772 2.203 353.64 -0.582 348.517 0.103 C 285.606 7.521 243.35 51.76 243.35 110.231 C 243.35 111.006 243.445 111.757 243.578 112.498 C 215.473 115.06 190.02 130.257 174.58 153.334 C 164.762 147.517 153.518 144.419 141.827 144.419 C 106.214 144.419 77.225 173.45 77.225 209.111 C 77.225 211.901 77.392 214.666 77.748 217.38 C 49.244 229.185 30.221 257.023 30.221 288.82 C 30.221 330.873 63.425 362.58 107.454 362.58 L 316.734 362.58 C 359.318 362.58 393.962 327.893 393.962 285.271 C 393.962 266.841 387.252 249.538 376.032 235.976 C 434.423 225.673 481.779 175.237 481.779 118.576 Z  M 316.724 337.54 L 107.445 337.54 C 77.672 337.54 55.218 316.593 55.218 288.816 C 55.218 264.456 71.703 243.551 95.317 237.924 C 98.739 237.111 101.657 234.897 103.358 231.798 C 105.064 228.743 105.387 225.079 104.261 221.738 C 102.916 217.736 102.222 213.469 102.222 209.106 C 102.222 187.246 119.981 169.439 141.818 169.439 C 152.306 169.439 162.21 173.517 169.671 180.93 C 172.574 183.791 176.699 185.103 180.729 184.314 C 184.759 183.577 188.162 180.907 189.858 177.186 C 200.893 152.826 225.282 137.091 251.989 137.091 C 289.589 137.091 320.174 167.695 320.174 205.333 C 320.174 208.769 319.21 216.182 318.616 220.07 C 317.594 226.599 321.8 232.773 328.22 234.227 C 351.819 239.516 368.956 260.996 368.956 285.261 C 368.966 314.088 345.532 337.54 316.724 337.54 Z  M 354.238 212.899 C 351.962 212.899 349.847 213.559 348.008 214.624 C 346.915 214.129 345.832 213.621 344.715 213.179 C 344.986 210.442 345.19 207.628 345.19 205.338 C 345.19 159.317 311.692 121.085 267.847 113.52 C 268.142 112.465 268.342 111.377 268.342 110.231 C 268.342 74.48 289.28 45.539 322.683 32.166 C 318.197 43.087 315.831 54.858 315.831 66.943 C 315.831 117.645 357.052 158.908 407.701 158.908 C 423.165 158.908 438.077 155.069 451.289 147.921 C 437.189 184.822 397.845 212.899 354.238 212.899 Z " fill="rgb(0,0,0)"/></g></g></g></svg>