<?xml version="1.0" standalone="no"?><!-- Generator: Gravit.io --><svg xmlns="http://www.w3.org/2000/svg" xmlns:xlink="http://www.w3.org/1999/xlink" style="isolation:isolate" viewBox="0 0 512 512" width="512" height="512"><g id="null"><g id="null"><path d=" M 411.247 145.67 C 405.951 72.787 342.843 15.057 266.038 15.057 C 205.107 15.057 151.411 51.086 129.988 105.489 C 128.499 105.435 126.998 105.41 125.489 105.41 C 56.295 105.407 0 161.701 0 230.899 C 0 300.097 56.295 356.391 125.492 356.391 L 143.733 356.391 L 141.236 362.774 C 140.031 365.862 140.422 369.348 142.295 372.093 C 144.167 374.832 147.275 376.471 150.589 376.471 L 250.981 376.471 L 250.981 486.903 C 250.981 491.599 254.236 495.668 258.814 496.698 C 259.549 496.864 260.295 496.943 261.019 496.943 C 264.833 496.943 268.401 494.767 270.087 491.208 L 334.27 355.887 C 335.092 356.104 335.892 356.394 336.785 356.394 C 361.735 356.394 411.599 356.267 412.089 356.25 C 468.107 353.367 512 307.127 512 250.981 C 512.003 194.414 467.221 148.114 411.247 145.67 Z  M 271.058 442.307 L 271.058 366.428 C 271.061 360.885 266.571 356.388 261.021 356.388 L 165.294 356.388 L 230.902 188.73 L 230.902 296.397 C 230.902 301.941 235.392 306.437 240.942 306.437 L 335.501 306.437 L 271.058 442.307 Z  M 411.543 336.182 C 411.543 336.182 369.739 336.289 343.556 336.309 L 360.443 300.705 C 361.924 297.591 361.698 293.945 359.854 291.034 C 358.021 288.125 354.815 286.363 351.374 286.363 L 250.981 286.363 L 250.981 135.524 C 250.981 130.695 247.549 126.554 242.805 125.661 C 238.059 124.76 233.354 127.373 231.589 131.866 L 151.591 336.306 L 127.119 336.297 L 125.492 336.306 C 67.365 336.306 20.08 289.018 20.08 230.893 C 20.08 172.769 67.365 125.481 125.492 125.481 C 128.992 125.481 132.463 125.653 135.884 125.985 C 140.501 126.466 144.924 123.611 146.394 119.143 C 162.991 68.896 211.081 35.131 266.041 35.131 C 335.239 35.131 391.533 89.176 391.533 155.603 C 391.533 161.045 395.866 165.497 401.309 165.637 C 402.545 165.663 403.758 165.657 404.994 165.651 L 406.593 165.64 C 453.642 165.64 491.926 203.919 491.926 250.973 C 491.926 296.428 456.404 333.859 411.543 336.182 Z " fill="rgb(0,0,0)"/></g></g></svg>