<?xml version="1.0" standalone="no"?><!-- Generator: Gravit.io --><svg xmlns="http://www.w3.org/2000/svg" xmlns:xlink="http://www.w3.org/1999/xlink" style="isolation:isolate" viewBox="0 0 512 512" width="512" height="512"><g id="null"><g id="Cloud__x2B__Snow"><g id="null"><path d=" M 426.315 185.817 C 415.245 102.181 361.61 41.045 276.757 41.045 C 205.714 41.045 166.387 83.859 142.143 150.308 C 133.286 148.149 124.181 147.07 114.993 147.07 C 51.532 147.071 0 202.339 0 265.771 C 0 326.464 49.678 370.496 110.703 374.149 L 124.541 374.149 L 124.541 346.473 L 110.703 346.473 C 66.643 343.844 27.677 309.859 27.677 265.771 C 27.677 219.663 68.885 178.483 114.993 178.483 C 125.786 178.483 136.387 180.585 146.488 184.655 L 163.176 191.463 L 167.687 174.054 C 183.296 113.334 214.099 69.137 276.757 69.137 C 350.346 69.137 392.939 128.557 396.233 202.118 L 396.953 218.087 L 416.05 216.703 C 451.64 216.703 484.353 244.268 484.353 279.803 C 484.353 315.367 450.754 346.447 415.163 346.447 L 373.65 346.447 L 373.65 374.122 L 415.135 374.122 C 468.051 374.122 512 332.664 512 279.803 C 511.999 230.872 474.637 190.992 426.315 185.817 Z  M 334.848 295.079 L 321.121 303.41 L 322.366 289.295 L 300.668 287.164 L 297.928 317.442 L 260.012 340.412 L 260.012 294.47 L 283.62 276.841 L 271 258.16 L 260.012 266.38 L 260.012 249.72 L 238.149 249.72 L 238.149 266.38 L 227.19 258.16 L 214.542 276.868 L 238.177 294.497 L 238.177 340.466 L 200.262 317.496 L 197.522 287.218 L 175.824 289.349 L 177.069 303.463 L 163.342 295.133 L 152.355 314.922 L 166.11 323.252 L 153.85 329.147 L 162.955 349.986 L 189.302 337.311 L 227.218 360.309 L 189.302 383.308 L 162.955 370.632 L 153.85 391.472 L 166.11 397.367 L 152.355 405.697 L 163.314 425.568 L 177.041 417.238 L 175.796 431.352 L 197.493 433.484 L 200.234 403.206 L 238.149 380.208 L 238.149 426.176 L 214.514 443.806 L 227.162 462.514 L 238.121 454.322 L 238.121 470.955 L 259.984 470.955 L 259.984 454.322 L 270.944 462.514 L 283.592 443.806 L 259.984 426.176 L 259.984 380.208 L 297.9 403.206 L 300.64 433.484 L 322.337 431.352 L 321.093 417.238 L 334.82 425.568 L 345.724 405.697 L 331.997 397.394 L 344.257 391.499 L 335.152 370.659 L 308.777 383.335 L 270.862 360.336 L 308.777 337.338 L 335.152 350.013 L 344.257 329.174 L 331.969 323.278 L 345.724 314.948 L 334.848 295.079 Z " fill="rgb(0,0,0)"/></g></g></g></svg>