<?xml version="1.0" encoding="iso-8859-1"?>
<!-- Generator: Adobe Illustrator 19.0.0, SVG Export Plug-In . SVG Version: 6.00 Build 0)  -->
<svg version="1.1" id="Layer_1" xmlns="http://www.w3.org/2000/svg" xmlns:xlink="http://www.w3.org/1999/xlink" x="0px" y="0px"
	 viewBox="0 0 438.2 438.2" style="enable-background:new 0 0 438.2 438.2;" xml:space="preserve">
<g>
	<circle style="fill:#F7CF52;" cx="219.097" cy="219.096" r="108.313"/>
	<rect x="211.6" y="348.358" style="fill:#F7CF52;" width="15" height="89.842"/>
	<rect x="211.6" style="fill:#F7CF52;" width="15" height="89.842"/>
	
		<rect x="88.442" y="297.342" transform="matrix(-0.7071 -0.7071 0.7071 -0.7071 -78.2323 652.1193)" style="fill:#F7CF52;" width="15" height="89.841"/>
	
		<rect x="334.765" y="51.011" transform="matrix(-0.7071 -0.7071 0.7071 -0.7071 516.4483 405.7837)" style="fill:#F7CF52;" width="15" height="89.841"/>
	<rect y="211.6" style="fill:#F7CF52;" width="89.842" height="15"/>
	<rect x="348.358" y="211.6" style="fill:#F7CF52;" width="89.842" height="15"/>
	
		<rect x="51.017" y="88.436" transform="matrix(-0.7071 -0.7071 0.7071 -0.7071 95.9381 231.6103)" style="fill:#F7CF52;" width="89.841" height="15"/>
	
		<rect x="297.342" y="334.758" transform="matrix(-0.7071 -0.7071 0.7071 -0.7071 342.2663 826.288)" style="fill:#F7CF52;" width="89.841" height="15"/>
	<g>
		
			<rect x="257.727" y="347.297" transform="matrix(-0.3826 -0.9239 0.9239 -0.3826 52.8494 744.91)" style="fill:#F4581B;" width="35.174" height="15"/>
		
			<rect x="145.305" y="75.898" transform="matrix(-0.3826 -0.9239 0.9239 -0.3826 148.1631 265.8043)" style="fill:#F4581B;" width="35.174" height="15"/>
		
			<rect x="155.389" y="337.208" transform="matrix(-0.9239 -0.3826 0.3826 -0.9239 177.6382 744.917)" style="fill:#F4581B;" width="15" height="35.174"/>
		
			<rect x="267.805" y="65.81" transform="matrix(-0.9239 -0.3826 0.3826 -0.9239 497.7542 265.7812)" style="fill:#F4581B;" width="15" height="35.174"/>
		
			<rect x="75.901" y="257.716" transform="matrix(-0.3826 -0.9239 0.9239 -0.3826 -139.0446 457.6895)" style="fill:#F4581B;" width="15" height="35.174"/>
		
			<rect x="347.296" y="145.3" transform="matrix(-0.3826 -0.9239 0.9239 -0.3826 340.0494 553.0082)" style="fill:#F4581B;" width="15" height="35.174"/>
		
			<rect x="65.814" y="155.39" transform="matrix(-0.9239 -0.3826 0.3826 -0.9239 98.1324 345.2949)" style="fill:#F4581B;" width="35.174" height="15"/>
		
			<rect x="337.211" y="267.802" transform="matrix(-0.9239 -0.3826 0.3826 -0.9239 577.2684 665.4034)" style="fill:#F4581B;" width="35.174" height="15"/>
	</g>
</g>
<g>
</g>
<g>
</g>
<g>
</g>
<g>
</g>
<g>
</g>
<g>
</g>
<g>
</g>
<g>
</g>
<g>
</g>
<g>
</g>
<g>
</g>
<g>
</g>
<g>
</g>
<g>
</g>
<g>
</g>
</svg>
