<?xml version="1.0" encoding="UTF-8" standalone="no"?>
<!-- Generator: Adobe Illustrator 19.0.0, SVG Export Plug-In . SVG Version: 6.00 Build 0)  -->

<svg
   xmlns:dc="http://purl.org/dc/elements/1.1/"
   xmlns:cc="http://creativecommons.org/ns#"
   xmlns:rdf="http://www.w3.org/1999/02/22-rdf-syntax-ns#"
   xmlns:svg="http://www.w3.org/2000/svg"
   xmlns="http://www.w3.org/2000/svg"
   xmlns:sodipodi="http://sodipodi.sourceforge.net/DTD/sodipodi-0.dtd"
   xmlns:inkscape="http://www.inkscape.org/namespaces/inkscape"
   version="1.1"
   id="Layer_1"
   x="0px"
   y="0px"
   viewBox="0 0 382.44 382.44"
   style="enable-background:new 0 0 382.44 382.44;"
   xml:space="preserve"
   inkscape:version="0.91 r13725"
   sodipodi:docname="01n-0.svg"><metadata
     id="metadata41"><rdf:RDF><cc:Work
         rdf:about=""><dc:format>image/svg+xml</dc:format><dc:type
           rdf:resource="http://purl.org/dc/dcmitype/StillImage" /><dc:title></dc:title></cc:Work></rdf:RDF></metadata><defs
     id="defs39" /><sodipodi:namedview
     pagecolor="#ffffff"
     bordercolor="#666666"
     borderopacity="1"
     objecttolerance="10"
     gridtolerance="10"
     guidetolerance="10"
     inkscape:pageopacity="0"
     inkscape:pageshadow="2"
     inkscape:window-width="1920"
     inkscape:window-height="1018"
     id="namedview37"
     showgrid="false"
     inkscape:zoom="0.61709026"
     inkscape:cx="191.22"
     inkscape:cy="191.22"
     inkscape:window-x="-8"
     inkscape:window-y="-8"
     inkscape:window-maximized="1"
     inkscape:current-layer="Layer_1" /><path
     style="fill:#b3b3b3"
     d="M381.445,192.22c0,105.06-85.17,190.22-190.22,190.22c-2.66,0-5.32-0.05-7.95-0.17  c-101.37-4.16-182.28-87.65-182.28-190.05c0-102.39,80.9-185.88,182.27-190.05c2.64-0.12,5.29-0.17,7.96-0.17  C296.275,2,381.445,87.16,381.445,192.22z"
     id="path3" /><path
     style="fill:#666666"
     d="M191.215,0c-5.8,0-11.54,0.26-17.2,0.77c96.95,8.74,172.93,90.22,172.93,189.45  c0,99.25-76.01,180.74-172.99,189.45c5.68,0.51,11.44,0.77,17.26,0.77c105.06,0,190.23-85.16,190.23-190.22S296.275,0,191.215,0z"
     id="path5" /><g
     id="g7" /><g
     id="g9" /><g
     id="g11" /><g
     id="g13" /><g
     id="g15" /><g
     id="g17" /><g
     id="g19" /><g
     id="g21" /><g
     id="g23" /><g
     id="g25" /><g
     id="g27" /><g
     id="g29" /><g
     id="g31" /><g
     id="g33" /><g
     id="g35" /></svg>