<?xml version="1.0" encoding="UTF-8" standalone="no"?>
<!-- Generator: Adobe Illustrator 19.0.0, SVG Export Plug-In . SVG Version: 6.00 Build 0)  -->

<svg
   xmlns:dc="http://purl.org/dc/elements/1.1/"
   xmlns:cc="http://creativecommons.org/ns#"
   xmlns:rdf="http://www.w3.org/1999/02/22-rdf-syntax-ns#"
   xmlns:svg="http://www.w3.org/2000/svg"
   xmlns="http://www.w3.org/2000/svg"
   xmlns:sodipodi="http://sodipodi.sourceforge.net/DTD/sodipodi-0.dtd"
   xmlns:inkscape="http://www.inkscape.org/namespaces/inkscape"
   version="1.1"
   id="Layer_1"
   x="0px"
   y="0px"
   viewBox="0 0 380.446 380.446"
   style="enable-background:new 0 0 380.446 380.446;"
   xml:space="preserve"
   inkscape:version="0.91 r13725"
   sodipodi:docname="01n-1.svg"><metadata
     id="metadata41"><rdf:RDF><cc:Work
         rdf:about=""><dc:format>image/svg+xml</dc:format><dc:type
           rdf:resource="http://purl.org/dc/dcmitype/StillImage" /><dc:title /></cc:Work></rdf:RDF></metadata><defs
     id="defs39" /><sodipodi:namedview
     pagecolor="#ffffff"
     bordercolor="#666666"
     borderopacity="1"
     objecttolerance="10"
     gridtolerance="10"
     guidetolerance="10"
     inkscape:pageopacity="0"
     inkscape:pageshadow="2"
     inkscape:window-width="1920"
     inkscape:window-height="1018"
     id="namedview37"
     showgrid="false"
     inkscape:zoom="1.7545428"
     inkscape:cx="58.849754"
     inkscape:cy="190.22301"
     inkscape:window-x="-8"
     inkscape:window-y="-8"
     inkscape:window-maximized="1"
     inkscape:current-layer="Layer_1" /><path
     inkscape:connector-curvature="0"
     style="fill:#b3b3b3"
     d="m 380.44801,190.22301 c 0,105.06 -85.17,190.22 -190.22,190.22 -2.66,0 -5.32,-0.05 -7.95,-0.17 -101.370002,-4.16 -182.2800018,-87.65 -182.2800018,-190.05 0,-102.390004 80.8999998,-185.880003 182.2700018,-190.05000305 2.64,-0.12 5.29,-0.17 7.96,-0.17 105.05,0 190.22,85.15999905 190.22,190.22000305 z"
     id="path3-1" /><g
     id="g4180"
     transform="translate(81.042014,7.2021485e-6)"><path
       id="path3"
       d="M 109.179,0 C 99.618,0 90.225,0.714 81.042,2.075 172.756,15.674 243.13,94.727 243.13,190.223 c 0,95.497 -70.373,174.549 -162.087,188.148 9.182,1.362 18.576,2.075 28.137,2.075 105.058,0 190.224,-85.166 190.224,-190.224 C 299.404,85.164 214.238,0 109.179,0 Z"
       style="fill:#f7cf52"
       inkscape:connector-curvature="0" /><path
       id="path5"
       d="m 109.174,0.003 c -5.8,0 -11.54,0.26 -17.2,0.77 96.95,8.74 172.93,90.22 172.93,189.45 0,99.25 -76.01,180.74 -172.99,189.45 5.68,0.51 11.44,0.77 17.26,0.77 105.06,0 190.23,-85.16 190.23,-190.22 0,-105.06 -85.171,-190.22 -190.23,-190.22 z"
       style="fill:#e2bc50"
       inkscape:connector-curvature="0" /></g><g
     id="g7" /><g
     id="g9" /><g
     id="g11" /><g
     id="g13" /><g
     id="g15" /><g
     id="g17" /><g
     id="g19" /><g
     id="g21" /><g
     id="g23" /><g
     id="g25" /><g
     id="g27" /><g
     id="g29" /><g
     id="g31" /><g
     id="g33" /><g
     id="g35" /></svg>