<?xml version="1.0" encoding="iso-8859-1"?>
<!-- Generator: Adobe Illustrator 19.0.0, SVG Export Plug-In . SVG Version: 6.00 Build 0)  -->
<svg version="1.1" id="Layer_1" xmlns="http://www.w3.org/2000/svg" xmlns:xlink="http://www.w3.org/1999/xlink" x="0px" y="0px"
	 viewBox="0 0 484.909 484.909" style="enable-background:new 0 0 484.909 484.909;" xml:space="preserve">
<g>
	<g>
		<path style="fill:#1EA6C6;" d="M105.596,199.98c-0.009-0.525-0.02-1.049-0.02-1.575c0-50.155,40.659-90.814,90.814-90.814
			c43.222,0,79.388,30.196,88.562,70.643c8.555-4.789,18.409-7.531,28.91-7.531c32.766,0,59.328,26.562,59.328,59.328
			c0,1.339-0.06,2.664-0.148,3.981c24.325,9.03,41.661,32.444,41.661,59.911c0,35.286-28.605,63.892-63.892,63.892H122.947
			c-44.108,0-79.865-35.757-79.865-79.865C43.082,239.8,69.831,207.904,105.596,199.98z"/>
		<g>
			<rect x="275.223" style="fill:#F7CF52;" width="15" height="58.599"/>
			
				<rect x="367.006" y="38.015" transform="matrix(-0.7071 -0.7071 0.7071 -0.7071 591.7238 379.7288)" style="fill:#F7CF52;" width="15" height="58.598"/>
			<rect x="383.227" y="151.603" style="fill:#F7CF52;" width="58.6" height="15"/>
			
				<rect x="161.637" y="59.817" transform="matrix(-0.7071 -0.7071 0.7071 -0.7071 278.3491 249.9291)" style="fill:#F7CF52;" width="58.598" height="15"/>
		</g>
		<path style="fill:#F7CF52;" d="M360.218,158.986c0,4.95-0.46,9.78-1.35,14.47c-12.35-9.85-28-15.75-45-15.75
			c-7.04,0-14.03,1.03-20.73,3.03c-6.54-16.73-17.42-31.7-31.53-43.1c-9.02-7.29-19.2-12.98-30.02-16.88
			c13.64-11.99,31.53-19.26,51.13-19.26C325.518,81.496,360.218,116.186,360.218,158.986z"/>
	</g>
	<g>
		<rect x="92.54" y="372.098" style="fill:#96E0DE;" width="15" height="32.446"/>
		<rect x="92.54" y="420.161" style="fill:#96E0DE;" width="15" height="64.748"/>
		<rect x="124.751" y="372.098" style="fill:#96E0DE;" width="15" height="112.811"/>
		<rect x="156.971" y="372.098" style="fill:#96E0DE;" width="15" height="56.507"/>
		<rect x="156.971" y="443.402" style="fill:#96E0DE;" width="15" height="41.507"/>
		<rect x="189.182" y="372.098" style="fill:#96E0DE;" width="15" height="112.811"/>
		<rect x="253.604" y="450.099" style="fill:#96E0DE;" width="15" height="34.81"/>
		<rect x="253.604" y="372.098" style="fill:#96E0DE;" width="15" height="62.583"/>
		<rect x="221.393" y="372.098" style="fill:#96E0DE;" width="15" height="18.183"/>
		<rect x="221.393" y="404.551" style="fill:#96E0DE;" width="15" height="80.358"/>
		<rect x="285.815" y="372.098" style="fill:#96E0DE;" width="15" height="49.323"/>
		<rect x="285.815" y="436.299" style="fill:#96E0DE;" width="15" height="48.61"/>
		<rect x="318.035" y="372.098" style="fill:#96E0DE;" width="15" height="79.165"/>
		<rect x="318.035" y="465.543" style="fill:#96E0DE;" width="15" height="19.366"/>
		<rect x="350.246" y="372.098" style="fill:#96E0DE;" width="15" height="112.811"/>
	</g>
</g>
<g>
</g>
<g>
</g>
<g>
</g>
<g>
</g>
<g>
</g>
<g>
</g>
<g>
</g>
<g>
</g>
<g>
</g>
<g>
</g>
<g>
</g>
<g>
</g>
<g>
</g>
<g>
</g>
<g>
</g>
</svg>
