<?xml version="1.0" encoding="iso-8859-1"?>
<!-- Generator: Adobe Illustrator 19.0.0, SVG Export Plug-In . SVG Version: 6.00 Build 0)  -->
<svg version="1.1" id="Layer_1" xmlns="http://www.w3.org/2000/svg" xmlns:xlink="http://www.w3.org/1999/xlink" x="0px" y="0px"
	 viewBox="0 0 470.739 470.739" style="enable-background:new 0 0 470.739 470.739;" xml:space="preserve">
<g>
	<g>
		<path style="fill:#1EA6C6;" d="M97.033,175.595c-0.009-0.525-0.02-1.049-0.02-1.575c0-50.155,40.659-90.814,90.814-90.814
			c43.222,0,79.388,30.196,88.562,70.643c8.555-4.789,18.409-7.531,28.91-7.531c32.766,0,59.328,26.562,59.328,59.328
			c0,1.339-0.06,2.664-0.148,3.981c24.325,9.03,41.661,32.444,41.661,59.911c0,35.286-28.605,63.892-63.892,63.892H114.384
			c-44.108,0-79.865-35.757-79.865-79.865C34.519,215.416,61.269,183.519,97.033,175.595z"/>
		<path style="fill:#F7CF52;" d="M436.221,124.39c-8.8,29.8-31.56,53.62-60.7,63.89c-7.8-31.52-36.32-54.96-70.22-54.96
			c-7.03,0-14.02,1.03-20.72,3.03c-6.54-16.73-17.43-31.7-31.53-43.1c-2.03-1.64-4.12-3.2-6.27-4.68
			C250.991,38.96,292.591,0,343.3,0c15.55,0,30.23,3.66,43.25,10.18c-8.66,0.15-17.41,1.98-25.84,5.66
			c-34.08,14.93-49.6,54.68-34.67,88.76s54.67,49.62,88.76,34.68C423.101,135.64,430.291,130.54,436.221,124.39z"/>
	</g>
	<g>
		<rect x="83.977" y="350.627" style="fill:#96E0DE;" width="15" height="39.746"/>
		<rect x="83.977" y="405.991" style="fill:#96E0DE;" width="15" height="64.748"/>
		<rect x="116.188" y="350.627" style="fill:#96E0DE;" width="15" height="120.111"/>
		<rect x="148.408" y="350.627" style="fill:#96E0DE;" width="15" height="63.807"/>
		<rect x="148.408" y="429.231" style="fill:#96E0DE;" width="15" height="41.507"/>
		<rect x="180.618" y="350.627" style="fill:#96E0DE;" width="15" height="120.111"/>
		<rect x="245.04" y="435.928" style="fill:#96E0DE;" width="15" height="34.81"/>
		<rect x="245.04" y="350.627" style="fill:#96E0DE;" width="15" height="69.883"/>
		<rect x="212.829" y="350.627" style="fill:#96E0DE;" width="15" height="25.483"/>
		<rect x="212.829" y="390.38" style="fill:#96E0DE;" width="15" height="80.358"/>
		<rect x="277.252" y="350.627" style="fill:#96E0DE;" width="15" height="56.623"/>
		<rect x="277.252" y="422.128" style="fill:#96E0DE;" width="15" height="48.61"/>
		<rect x="309.471" y="350.627" style="fill:#96E0DE;" width="15" height="86.465"/>
		<rect x="309.471" y="451.372" style="fill:#96E0DE;" width="15" height="19.366"/>
		<rect x="341.682" y="350.627" style="fill:#96E0DE;" width="15" height="120.111"/>
	</g>
</g>
<g>
</g>
<g>
</g>
<g>
</g>
<g>
</g>
<g>
</g>
<g>
</g>
<g>
</g>
<g>
</g>
<g>
</g>
<g>
</g>
<g>
</g>
<g>
</g>
<g>
</g>
<g>
</g>
<g>
</g>
</svg>
