<?xml version="1.0" encoding="UTF-8" standalone="no"?>
<!-- Generator: Adobe Illustrator 19.0.0, SVG Export Plug-In . SVG Version: 6.00 Build 0)  -->

<svg
   xmlns:dc="http://purl.org/dc/elements/1.1/"
   xmlns:cc="http://creativecommons.org/ns#"
   xmlns:rdf="http://www.w3.org/1999/02/22-rdf-syntax-ns#"
   xmlns:svg="http://www.w3.org/2000/svg"
   xmlns="http://www.w3.org/2000/svg"
   xmlns:sodipodi="http://sodipodi.sourceforge.net/DTD/sodipodi-0.dtd"
   xmlns:inkscape="http://www.inkscape.org/namespaces/inkscape"
   version="1.1"
   id="Layer_1"
   x="0px"
   y="0px"
   viewBox="0 0 406.02 406.02"
   style="enable-background:new 0 0 406.02 406.02;"
   xml:space="preserve"
   inkscape:version="0.91 r13725"
   sodipodi:docname="13.svg"><metadata
     id="metadata43"><rdf:RDF><cc:Work
         rdf:about=""><dc:format>image/svg+xml</dc:format><dc:type
           rdf:resource="http://purl.org/dc/dcmitype/StillImage" /><dc:title></dc:title></cc:Work></rdf:RDF></metadata><defs
     id="defs41" /><sodipodi:namedview
     pagecolor="#ffffff"
     bordercolor="#666666"
     borderopacity="1"
     objecttolerance="10"
     gridtolerance="10"
     guidetolerance="10"
     inkscape:pageopacity="0"
     inkscape:pageshadow="2"
     inkscape:window-width="1920"
     inkscape:window-height="1018"
     id="namedview39"
     showgrid="false"
     inkscape:zoom="0.58125217"
     inkscape:cx="203.00999"
     inkscape:cy="203.00999"
     inkscape:window-x="-8"
     inkscape:window-y="-8"
     inkscape:window-maximized="1"
     inkscape:current-layer="Layer_1" /><g
     transform="translate(14.920422,-21.939494)"
     id="g3"><path
       inkscape:connector-curvature="0"
       style="fill:#1ea6c6"
       d="m 62.513,153.087 c -0.009,-0.525 -0.02,-1.049 -0.02,-1.575 0,-50.155 40.659,-90.814 90.814,-90.814 43.222,0 79.388,30.196 88.562,70.643 8.555,-4.789 18.409,-7.531 28.91,-7.531 32.766,0 59.328,26.562 59.328,59.328 0,1.339 -0.06,2.664 -0.148,3.981 24.325,9.03 41.661,32.444 41.661,59.911 0,35.286 -28.605,63.892 -63.892,63.892 l -227.863,0 C 35.757,310.921 0,275.164 0,231.056 0,192.907 26.749,161.011 62.513,153.087 Z"
       id="path5" /></g><g
     id="g9" /><g
     id="g11" /><g
     id="g13" /><g
     id="g15" /><g
     id="g17" /><g
     id="g19" /><g
     id="g21" /><g
     id="g23" /><g
     id="g25" /><g
     id="g27" /><g
     id="g29" /><g
     id="g31" /><g
     id="g33" /><g
     id="g35" /><g
     id="g37" /><path
     inkscape:connector-curvature="0"
     style="fill:#000080;stroke-width:0.1;stroke-miterlimit:4;stroke-dasharray:none"
     d="m 359.07158,284.49788 -20.97112,0 11.84325,-20.51137 -4.87125,-2.8125 -13.467,23.32387 -32.53313,0 c -0.60525,-2.93962 -2.13975,-5.544 -4.28175,-7.49137 l 16.24425,-28.13775 26.93063,0 0,-5.625 -23.6835,0 10.48687,-18.16463 -4.87125,-2.8125 -10.48687,18.16463 -11.84288,-20.514 -4.87125,2.8125 13.46663,23.32687 -16.2135,28.0845 c -1.41788,-0.48787 -2.93663,-0.75637 -4.518,-0.75637 -1.48125,0 -2.90813,0.23475 -4.24838,0.66487 l -16.1625,-27.99487 13.46513,-23.32275 -4.87125,-2.8125 -11.84138,20.50987 -10.48612,-18.16275 -4.87125,2.8125 10.48612,18.16313 -23.68762,-7.5e-4 -3.8e-4,5.625 26.9355,0.001 16.13813,27.95288 c -2.253,1.96612 -3.87188,4.64175 -4.497,7.67775 l -32.21325,0 -13.46588,-23.32388 -4.87125,2.8125 11.8425,20.51138 -20.97375,0 0,5.625 20.97188,0 -11.84363,20.51212 4.87125,2.8125 13.46738,-23.32462 32.21475,0 c 0.62512,3.036 2.24362,5.71162 4.49662,7.67812 l -16.13775,27.95175 -26.93362,0 0,5.625 23.68687,0 -10.4865,18.16388 4.87125,2.8125 10.485,-18.16125 11.84138,20.511 4.87125,-2.8125 -13.46513,-23.32388 16.16325,-27.99637 c 1.34025,0.4305 2.76713,0.66525 4.24875,0.66525 1.58138,0 3.1005,-0.2685 4.51838,-0.75638 l 16.21237,28.08263 -13.46737,23.3265 4.87125,2.8125 11.84362,-20.51363 10.48725,18.16575 4.87125,-2.8125 -10.48537,-18.16237 23.68312,7.5e-4 3.8e-4,-5.625 -26.931,-7.5e-4 -16.245,-28.13925 c 2.142,-1.94738 3.6765,-4.55213 4.28175,-7.49175 l 32.53087,0 13.46663,23.32462 4.87125,-2.8125 -11.84288,-20.51212 20.973,0 0,-5.625 z m -81.94125,2.81288 c 0,-4.57725 3.72413,-8.301 8.30138,-8.301 4.57725,0 8.301,3.72375 8.301,8.301 0,4.57725 -3.72375,8.30137 -8.301,8.30137 -4.57725,0 -8.30138,-3.72412 -8.30138,-8.30137 z"
     id="path3" /><path
     inkscape:connector-curvature="0"
     style="fill:#000080;stroke-width:0.1;stroke-miterlimit:4;stroke-dasharray:none"
     d="m 209.39471,248.36904 -20.97112,0 11.84325,-20.51137 -4.87125,-2.8125 -13.467,23.32387 -32.53312,0 c -0.60525,-2.93962 -2.13975,-5.544 -4.28175,-7.49137 l 16.24424,-28.13775 26.93063,0 0,-5.625 -23.6835,0 10.48687,-18.16462 -4.87125,-2.8125 -10.48687,18.16462 -11.84287,-20.514 -4.87125,2.8125 13.46662,23.32688 -16.2135,28.08449 c -1.41787,-0.48787 -2.93662,-0.75637 -4.518,-0.75637 -1.48125,0 -2.90812,0.23475 -4.24837,0.66487 l -16.1625,-27.99487 13.46512,-23.32275 -4.87125,-2.8125 -11.84137,20.50988 -10.48612,-18.16275 -4.871254,2.8125 10.486124,18.16312 -23.687619,-7.5e-4 -3.8e-4,5.625 26.935499,0.001 16.13812,27.95288 c -2.253,1.96612 -3.87187,4.64175 -4.497,7.67775 l -32.213244,0 -13.465875,-23.32388 -4.87125,2.8125 11.8425,20.51138 -20.97375,0 0,5.625 20.97188,0 -11.84363,20.51212 4.87125,2.8125 13.467375,-23.32462 32.214744,0 c 0.62513,3.036 2.24363,5.71162 4.49663,7.67812 l -16.13775,27.95175 -26.933619,0 0,5.625 23.686869,0 -10.486499,18.16388 4.871249,2.8125 10.485,-18.16125 11.84137,20.511 4.87125,-2.8125 -13.46512,-23.32388 16.16325,-27.99637 c 1.34025,0.4305 2.76712,0.66525 4.24875,0.66525 1.58137,0 3.1005,-0.2685 4.51837,-0.75638 l 16.21238,28.08263 -13.46738,23.3265 4.87125,2.8125 11.84362,-20.51363 10.48725,18.16575 4.87125,-2.8125 -10.48537,-18.16237 23.68312,7.5e-4 3.8e-4,-5.625 -26.931,-7.5e-4 -16.245,-28.13925 c 2.142,-1.94738 3.6765,-4.55213 4.28175,-7.49175 l 32.53087,0 13.46662,23.32462 4.87126,-2.8125 -11.84288,-20.51212 20.973,0 0,-5.625 z m -81.94124,2.81288 c 0,-4.57725 3.72412,-8.301 8.30137,-8.301 4.57725,0 8.301,3.72375 8.301,8.301 0,4.57725 -3.72375,8.30137 -8.301,8.30137 -4.57725,0 -8.30137,-3.72412 -8.30137,-8.30137 z"
     id="path3-5" /></svg>