<?xml version="1.0" encoding="iso-8859-1"?>
<!-- Uploaded to: SVG Repo, www.svgrepo.com, Generator: SVG Repo Mixer Tools -->
<svg height="800px" width="800px" version="1.1" id="Layer_1" xmlns="http://www.w3.org/2000/svg" xmlns:xlink="http://www.w3.org/1999/xlink" 
	 viewBox="0 0 512 512" xml:space="preserve">
<path style="fill:#A9A8AE;" d="M488.727,279.273H256H23.273C10.42,279.273,0,289.693,0,302.545v186.182
	C0,501.58,10.42,512,23.273,512H256h232.727C501.58,512,512,501.58,512,488.727V302.545C512,289.693,501.58,279.273,488.727,279.273
	z"/>
<path style="fill:#64C37D;" d="M317.12,115.423l-37.851,37.848V23.273C279.27,10.42,268.85,0,255.997,0
	c-12.853,0-23.273,10.42-23.273,23.273v129.995l-37.845-37.845c-9.087-9.089-23.824-9.089-32.912,0
	c-9.089,9.087-9.089,23.824,0,32.912l77.568,77.57c0.545,0.543,1.117,1.058,1.713,1.547c0.262,0.216,0.546,0.408,0.818,0.613
	c0.334,0.251,0.664,0.512,1.008,0.743c0.327,0.22,0.673,0.413,1.013,0.616c0.312,0.186,0.621,0.385,0.939,0.554
	c0.346,0.185,0.704,0.343,1.06,0.51c0.335,0.158,0.666,0.326,1.004,0.467c0.343,0.141,0.697,0.258,1.049,0.383
	c0.366,0.132,0.731,0.273,1.102,0.385c0.348,0.105,0.704,0.183,1.06,0.273c0.382,0.096,0.763,0.205,1.15,0.281
	c0.403,0.079,0.816,0.129,1.227,0.188c0.341,0.048,0.681,0.113,1.022,0.147c0.756,0.074,1.52,0.116,2.296,0.116
	s1.539-0.042,2.295-0.116c0.349-0.034,0.692-0.099,1.041-0.15c0.403-0.059,0.81-0.105,1.207-0.185
	c0.396-0.078,0.787-0.188,1.178-0.287c0.344-0.087,0.692-0.163,1.03-0.265c0.382-0.115,0.754-0.261,1.131-0.396
	c0.341-0.123,0.687-0.234,1.019-0.372c0.349-0.144,0.686-0.316,1.029-0.478c0.348-0.163,0.7-0.318,1.036-0.498
	c0.324-0.174,0.636-0.374,0.954-0.563c0.334-0.2,0.676-0.391,1.001-0.608c0.343-0.23,0.672-0.487,1.004-0.739
	c0.275-0.206,0.559-0.399,0.825-0.617c0.56-0.461,1.103-0.951,1.629-1.472c0.025-0.025,0.051-0.045,0.076-0.068l77.579-77.573
	c9.087-9.089,9.089-23.824,0.002-32.912C340.942,106.335,326.208,106.336,317.12,115.423z"/>
<g>
	<path style="fill:#57575C;" d="M302.55,372.357c-6.128,0-12.133,2.498-16.462,6.827s-6.811,10.318-6.811,16.446
		s2.482,12.133,6.811,16.462c4.329,4.329,10.333,6.811,16.462,6.811c6.127,0,12.117-2.482,16.446-6.811
		c4.344-4.329,6.827-10.333,6.827-16.462c0-6.113-2.484-12.117-6.827-16.446C314.667,374.855,308.677,372.357,302.55,372.357z"/>
	<path style="fill:#57575C;" d="M412.087,379.184c-4.329-4.344-10.318-6.827-16.446-6.827c-6.128,0-12.133,2.482-16.462,6.827
		c-4.329,4.329-6.811,10.333-6.811,16.446c0,6.129,2.482,12.133,6.811,16.462c4.329,4.329,10.333,6.811,16.462,6.811
		c6.127,0,12.117-2.482,16.446-6.811c4.344-4.329,6.827-10.333,6.827-16.462S416.43,383.513,412.087,379.184z"/>
</g>
<path style="fill:#77757F;" d="M23.273,279.273C10.42,279.273,0,289.693,0,302.545v186.182C0,501.58,10.42,512,23.273,512H256
	V279.273H23.273z"/>
</svg>