<?xml version="1.0" encoding="iso-8859-1"?>
<!-- Generator: Adobe Illustrator 19.0.0, SVG Export Plug-In . SVG Version: 6.00 Build 0)  -->
<svg version="1.1" id="Layer_1" xmlns="http://www.w3.org/2000/svg" xmlns:xlink="http://www.w3.org/1999/xlink" x="0px" y="0px"
	 viewBox="0 0 286.036 286.036" style="enable-background:new 0 0 286.036 286.036;" xml:space="preserve">
<g>
	<path style="fill:#39B29D;" d="M231.641,113.009c-3.915-40.789-37.875-72.792-79.684-72.792c-32.351,0-60.053,19.201-72.819,46.752
		c-3.844-1.216-7.849-2.056-12.095-2.056c-22.214,0-40.226,18.021-40.226,40.226c0,4.416,0.885,8.591,2.199,12.551
		C11.737,147.765,0,166.269,0,187.705c0,32.092,26.013,58.105,58.105,58.105v0.009h160.896v-0.009
		c37.035,0,67.035-30.009,67.035-67.044C286.036,146.075,262.615,118.927,231.641,113.009z M96.91,180.089l-16.627-16.511
		c-2.396-3.915-0.438-7.107,4.336-7.107h7.276c0.635-29.741,24.619-53.68,54.189-53.68c14.991,0,28.543,6.15,38.358,16.082
		l-12.148,11.764c-6.678-6.749-16.019-10.879-26.21-10.924c-20.515-0.098-36.597,16.645-37.16,36.758h8.966
		c4.756,0,6.722,3.191,4.336,7.107l-16.636,16.511C103.203,184.004,99.296,184.004,96.91,180.089z M205.592,156.373h-7.294
		c-0.635,29.75-24.699,53.689-54.341,53.689c-15.027,0-28.614-6.15-38.465-16.082l12.184-11.755
		c6.695,6.749,16.073,10.87,26.272,10.915c20.578,0.116,36.686-16.645,37.259-36.758h-8.975c-4.791,0-6.749-3.191-4.353-7.107
		l16.672-16.511c2.405-3.906,6.311-3.906,8.707,0l16.672,16.511C212.332,153.182,210.375,156.373,205.592,156.373z"/>
</g>
<g>
</g>
<g>
</g>
<g>
</g>
<g>
</g>
<g>
</g>
<g>
</g>
<g>
</g>
<g>
</g>
<g>
</g>
<g>
</g>
<g>
</g>
<g>
</g>
<g>
</g>
<g>
</g>
<g>
</g>
</svg>
