<?xml version="1.0" encoding="UTF-8" standalone="no"?>
<!-- Generator: Adobe Illustrator 19.0.0, SVG Export Plug-In . SVG Version: 6.00 Build 0)  -->

<svg
   version="1.1"
   id="Layer_1"
   x="0px"
   y="0px"
   viewBox="0 0 286.036 286.036"
   style="enable-background:new 0 0 286.036 286.036;"
   xml:space="preserve"
   inkscape:version="1.4.2 (f4327f4, 2025-05-13)"
   sodipodi:docname="network_refresh_black.svg"
   xmlns:inkscape="http://www.inkscape.org/namespaces/inkscape"
   xmlns:sodipodi="http://sodipodi.sourceforge.net/DTD/sodipodi-0.dtd"
   xmlns="http://www.w3.org/2000/svg"
   xmlns:svg="http://www.w3.org/2000/svg"
   xmlns:rdf="http://www.w3.org/1999/02/22-rdf-syntax-ns#"
   xmlns:cc="http://creativecommons.org/ns#"
   xmlns:dc="http://purl.org/dc/elements/1.1/"><metadata
     id="metadata41"><rdf:RDF><cc:Work
         rdf:about=""><dc:format>image/svg+xml</dc:format><dc:type
           rdf:resource="http://purl.org/dc/dcmitype/StillImage" /></cc:Work></rdf:RDF></metadata><defs
     id="defs39" /><sodipodi:namedview
     pagecolor="#ffffff"
     bordercolor="#666666"
     borderopacity="1"
     objecttolerance="10"
     gridtolerance="10"
     guidetolerance="10"
     inkscape:pageopacity="0"
     inkscape:pageshadow="2"
     inkscape:window-width="1920"
     inkscape:window-height="1009"
     id="namedview37"
     showgrid="false"
     inkscape:zoom="0.82507094"
     inkscape:cx="143.62401"
     inkscape:cy="143.62401"
     inkscape:window-x="-8"
     inkscape:window-y="-8"
     inkscape:window-maximized="1"
     inkscape:current-layer="Layer_1"
     inkscape:showpageshadow="2"
     inkscape:pagecheckerboard="0"
     inkscape:deskcolor="#d1d1d1" /><g
     id="g3"
     style="fill:#000000"><path
       style="fill:#000000"
       d="M231.641,113.009c-3.915-40.789-37.875-72.792-79.684-72.792c-32.351,0-60.053,19.201-72.819,46.752   c-3.844-1.216-7.849-2.056-12.095-2.056c-22.214,0-40.226,18.021-40.226,40.226c0,4.416,0.885,8.591,2.199,12.551   C11.737,147.765,0,166.269,0,187.705c0,32.092,26.013,58.105,58.105,58.105v0.009h160.896v-0.009   c37.035,0,67.035-30.009,67.035-67.044C286.036,146.075,262.615,118.927,231.641,113.009z M96.91,180.089l-16.627-16.511   c-2.396-3.915-0.438-7.107,4.336-7.107h7.276c0.635-29.741,24.619-53.68,54.189-53.68c14.991,0,28.543,6.15,38.358,16.082   l-12.148,11.764c-6.678-6.749-16.019-10.879-26.21-10.924c-20.515-0.098-36.597,16.645-37.16,36.758h8.966   c4.756,0,6.722,3.191,4.336,7.107l-16.636,16.511C103.203,184.004,99.296,184.004,96.91,180.089z M205.592,156.373h-7.294   c-0.635,29.75-24.699,53.689-54.341,53.689c-15.027,0-28.614-6.15-38.465-16.082l12.184-11.755   c6.695,6.749,16.073,10.87,26.272,10.915c20.578,0.116,36.686-16.645,37.259-36.758h-8.975c-4.791,0-6.749-3.191-4.353-7.107   l16.672-16.511c2.405-3.906,6.311-3.906,8.707,0l16.672,16.511C212.332,153.182,210.375,156.373,205.592,156.373z"
       id="path5" /></g><g
     id="g7" /><g
     id="g9" /><g
     id="g11" /><g
     id="g13" /><g
     id="g15" /><g
     id="g17" /><g
     id="g19" /><g
     id="g21" /><g
     id="g23" /><g
     id="g25" /><g
     id="g27" /><g
     id="g29" /><g
     id="g31" /><g
     id="g33" /><g
     id="g35" /></svg>
