<?xml version="1.0" encoding="iso-8859-1"?>
<!-- Generator: Adobe Illustrator 19.0.0, SVG Export Plug-In . SVG Version: 6.00 Build 0)  -->
<svg version="1.1" id="Layer_1" xmlns="http://www.w3.org/2000/svg" xmlns:xlink="http://www.w3.org/1999/xlink" x="0px" y="0px"
	 viewBox="0 0 286.036 286.036" style="enable-background:new 0 0 286.036 286.036;" xml:space="preserve">
<g>
	<path style="fill:#E2574C;" d="M231.641,113.009c-3.915-40.789-37.875-72.792-79.684-72.792c-32.351,0-60.053,19.201-72.819,46.752
		c-3.844-1.216-7.849-2.056-12.095-2.056c-22.214,0-40.226,18.021-40.226,40.226c0,4.416,0.885,8.591,2.199,12.551
		C11.737,147.765,0,166.269,0,187.705c0,32.092,26.013,58.105,58.105,58.105v0.009h160.896v-0.009
		c37.035,0,67.035-30.009,67.035-67.044C286.036,146.075,262.615,118.927,231.641,113.009z M184.237,197.627
		c-4.219,4.228-11.049,4.228-15.268,0l-21.678-21.669l-21.4,21.409c-4.21,4.201-11.013,4.201-15.223,0
		c-4.201-4.21-4.201-11.013,0-15.223l21.4-21.4l-21.669-21.669c-4.219-4.228-4.219-11.058,0-15.277
		c4.219-4.228,11.049-4.228,15.268,0l21.669,21.678l21.686-21.686c4.21-4.21,11.013-4.21,15.223,0c4.21,4.21,4.21,11.022,0,15.223
		L162.559,160.7l21.678,21.669C188.465,186.579,188.465,193.426,184.237,197.627z"/>
</g>
<g>
</g>
<g>
</g>
<g>
</g>
<g>
</g>
<g>
</g>
<g>
</g>
<g>
</g>
<g>
</g>
<g>
</g>
<g>
</g>
<g>
</g>
<g>
</g>
<g>
</g>
<g>
</g>
<g>
</g>
</svg>
