<?xml version="1.0" encoding="UTF-8"?>
<svg class="iconify iconify--fxemoji" width="800px" height="800px" aria-hidden="true" role="img" version="1.1" viewBox="0 0 512 512" xmlns="http://www.w3.org/2000/svg">
 <path d="M508.333 32.666C508.333 16.35 494.984 3 478.668 3H29.032C14.348 3 2.333 15.015 2.333 29.699v452.602C2.333 496.985 14.348 509 29.032 509h449.635c16.316 0 29.666-13.35 29.666-29.666V32.666z" fill="#d35f5f"/>
 <path d="m478.67 488.92h-449.64c-14.684 0-26.699-12.015-26.699-26.699v20.085c0 14.684 12.015 26.699 26.699 26.699h449.64c16.316 0 29.666-13.35 29.666-29.666v-20.085c0 16.316-13.349 29.666-29.665 29.666z" fill="#c83737"/>
 <path d="M317.727 256l96.059-96.059c5.488-5.488 5.488-14.385 0-19.872l-41.854-41.854c-5.488-5.488-14.385-5.488-19.872 0L256 194.273l-96.059-96.059c-5.488-5.488-14.385-5.488-19.872 0l-41.854 41.854c-5.488 5.488-5.488 14.385 0 19.872L194.273 256l-96.059 96.059c-5.488 5.488-5.488 14.385 0 19.872l41.854 41.854c5.488 5.488 14.385 5.488 19.872 0L256 317.727l96.059 96.059c5.488 5.488 14.385 5.488 19.872 0l41.854-41.854c5.488-5.488 5.488-14.385 0-19.872L317.727 256z" fill="#FFF"/>
</svg>
