<?xml version="1.0" encoding="UTF-8" standalone="no"?>
<!-- Generator: Adobe Illustrator 19.0.0, SVG Export Plug-In . SVG Version: 6.00 Build 0)  -->

<svg
   xmlns:dc="http://purl.org/dc/elements/1.1/"
   xmlns:cc="http://creativecommons.org/ns#"
   xmlns:rdf="http://www.w3.org/1999/02/22-rdf-syntax-ns#"
   xmlns:svg="http://www.w3.org/2000/svg"
   xmlns="http://www.w3.org/2000/svg"
   xmlns:sodipodi="http://sodipodi.sourceforge.net/DTD/sodipodi-0.dtd"
   xmlns:inkscape="http://www.inkscape.org/namespaces/inkscape"
   version="1.1"
   id="Layer_1"
   x="0px"
   y="0px"
   viewBox="0 0 381.136 381.136"
   style="enable-background:new 0 0 381.136 381.136;"
   xml:space="preserve"
   inkscape:version="0.91 r13725"
   sodipodi:docname="temp-celsius.svg"><metadata
     id="metadata4220"><rdf:RDF><cc:Work
         rdf:about=""><dc:format>image/svg+xml</dc:format><dc:type
           rdf:resource="http://purl.org/dc/dcmitype/StillImage" /><dc:title></dc:title></cc:Work></rdf:RDF></metadata><defs
     id="defs4218" /><sodipodi:namedview
     pagecolor="#ffffff"
     bordercolor="#666666"
     borderopacity="1"
     objecttolerance="10"
     gridtolerance="10"
     guidetolerance="10"
     inkscape:pageopacity="0"
     inkscape:pageshadow="2"
     inkscape:window-width="1920"
     inkscape:window-height="1018"
     id="namedview4216"
     showgrid="false"
     inkscape:zoom="1.2384031"
     inkscape:cx="134.44734"
     inkscape:cy="186.53053"
     inkscape:window-x="-8"
     inkscape:window-y="-8"
     inkscape:window-maximized="1"
     inkscape:current-layer="Layer_1" /><flowRoot
     xml:space="preserve"
     id="flowRoot4762"
     style="font-style:normal;font-weight:normal;font-size:180px;line-height:125%;font-family:sans-serif;letter-spacing:0px;word-spacing:0px;fill:#000000;fill-opacity:1;stroke:#000000;stroke-width:1px;stroke-linecap:butt;stroke-linejoin:miter;stroke-opacity:1"
     transform="matrix(3.5699185,0,0,2.5999593,2066.3714,847.93801)"><flowRegion
       id="flowRegion4764"><rect
         id="rect4766"
         width="541.01929"
         height="534.55939"
         x="-568.474"
         y="-360.1412"
         style="font-size:180px;fill:#000000;fill-opacity:1;stroke:#000000;stroke-opacity:1" /></flowRegion><flowPara
       id="flowPara4768" /></flowRoot><path
     inkscape:connector-curvature="0"
     id="path4182"
     d="m 59.453949,91.957322 c -25.130616,0 -45.574915,-20.264389 -45.574915,-45.17117 0,-24.90678 20.445515,-45.171169 45.574915,-45.171169 25.129401,0 45.574911,20.264389 45.574911,45.171169 0,24.906781 -20.444295,45.17117 -45.574911,45.17117 z m 0,-72.273871 c -15.078612,0 -27.344949,12.158874 -27.344949,27.102701 0,14.943828 12.267552,27.102702 27.344949,27.102702 15.077397,0 27.344949,-12.158874 27.344949,-27.102702 0,-14.943827 -12.266336,-27.102701 -27.344949,-27.102701 z"
     style="fill:#000000;fill-opacity:1" /><g
     id="g4186" /><g
     id="g4188" /><g
     id="g4190" /><g
     id="g4192" /><g
     id="g4194" /><g
     id="g4196" /><g
     id="g4198" /><g
     id="g4200" /><g
     id="g4202" /><g
     id="g4204" /><g
     id="g4206" /><g
     id="g4208" /><g
     id="g4210" /><g
     id="g4212" /><g
     id="g4214" /><path
     style="opacity:1;fill:none;fill-opacity:1;fill-rule:nonzero;stroke:#000000;stroke-width:0.80749154;stroke-opacity:1"
     d="m 225.12864,362.63929 c -35.41548,-4.25569 -63.83509,-17.05149 -86.62581,-39.00288 -12.89776,-12.42278 -20.97019,-23.36607 -28.71369,-38.92539 -8.46813,-17.01533 -13.450399,-33.38978 -16.802435,-55.22193 -2.402701,-15.64904 -2.631492,-51.28203 -0.430332,-67.0218 3.077368,-22.00524 8.082917,-39.22843 16.310277,-56.12066 19.28349,-39.592482 52.79016,-66.362401 95.49402,-76.294298 18.27687,-4.250763 43.50624,-5.90849 62.81498,-4.127335 28.1361,2.595445 57.69012,12.409986 79.27859,26.327482 l 5.85431,3.774117 0,22.54876 0,22.548754 -8.27679,-6.686993 C 316.15846,71.917664 285.33128,60.677653 251.60581,60.737353 184.58605,60.855991 144.6147,99.413407 137.46366,170.84185 c -1.43672,14.35077 -0.57099,47.46406 1.56497,59.85847 5.11621,29.688 14.81114,50.68721 31.05908,67.2739 12.87127,13.13962 26.78963,20.96893 46.15852,25.96491 24.92839,6.42999 57.49682,5.13879 81.64744,-3.237 16.21637,-5.62406 34.77368,-16.32521 48.15682,-27.76981 l 6.25806,-5.35157 0,22.60932 0,22.60933 -9.7958,5.79667 c -19.45561,11.51286 -39.8758,18.97224 -62.87844,22.96912 -9.13263,1.58687 -44.44712,2.28278 -54.50567,1.0741 z"
     id="path4454"
     inkscape:connector-curvature="0" /><path
     style="opacity:1;fill:#000000;fill-opacity:1;fill-rule:nonzero;stroke:#000000;stroke-width:0.80749154;stroke-opacity:1"
     d="m 226.74362,361.94032 c -16.46556,-1.51643 -37.1648,-7.17684 -52.08228,-14.24242 -17.94454,-8.49933 -38.21376,-25.18103 -50.8516,-41.8512 -14.02222,-18.49626 -24.496693,-44.00667 -29.031259,-70.70517 -3.756497,-22.11741 -3.807773,-59.76284 -0.109987,-80.74915 4.668183,-26.49367 13.782306,-49.36148 27.364966,-68.6601 8.03929,-11.422454 23.53715,-26.579882 34.86214,-34.096353 25.16626,-16.703003 50.12917,-24.030956 86.4016,-25.363498 35.15314,-1.291424 71.06707,7.657883 99.65464,24.832697 l 8.54922,5.136193 0,21.604166 0,21.604165 -6.6618,-5.378964 C 318.18362,72.548041 289.9825,61.620184 257.4283,60.199175 c -48.99548,-2.13868 -86.77972,17.803644 -105.75166,55.815165 -11.6768,23.39522 -16.46517,49.33308 -15.50744,84.00131 0.76068,27.53525 3.81958,45.44134 10.75711,62.96974 10.04291,25.37447 28.60789,45.53099 51.01271,55.3859 28.49187,12.53235 67.80673,13.76936 99.735,3.13806 14.80668,-4.93024 36.40418,-17.22406 48.17859,-27.4244 2.56108,-2.2187 4.87969,-4.034 5.15248,-4.034 0.27278,0 0.4956,9.53849 0.49514,21.19665 l -8.1e-4,21.19666 -9.57978,5.49186 c -21.43937,12.29067 -45.42568,20.75407 -65.51527,23.1166 -9.61295,1.13048 -40.94324,1.69046 -49.66073,0.8876 l -2e-5,0 z"
     id="path4456"
     inkscape:connector-curvature="0" /></svg>