<?xml version="1.0" encoding="UTF-8" standalone="no"?>
<!-- Generator: Adobe Illustrator 19.0.0, SVG Export Plug-In . SVG Version: 6.00 Build 0)  -->

<svg
   version="1.1"
   id="Layer_1"
   x="0px"
   y="0px"
   viewBox="0 0 381.136 381.136"
   style="enable-background:new 0 0 381.136 381.136;"
   xml:space="preserve"
   inkscape:version="1.4.2 (f4327f4, 2025-05-13)"
   sodipodi:docname="temp-fahrenheit.svg"
   xmlns:inkscape="http://www.inkscape.org/namespaces/inkscape"
   xmlns:sodipodi="http://sodipodi.sourceforge.net/DTD/sodipodi-0.dtd"
   xmlns="http://www.w3.org/2000/svg"
   xmlns:svg="http://www.w3.org/2000/svg"
   xmlns:rdf="http://www.w3.org/1999/02/22-rdf-syntax-ns#"
   xmlns:cc="http://creativecommons.org/ns#"
   xmlns:dc="http://purl.org/dc/elements/1.1/"><metadata
     id="metadata4220"><rdf:RDF><cc:Work
         rdf:about=""><dc:format>image/svg+xml</dc:format><dc:type
           rdf:resource="http://purl.org/dc/dcmitype/StillImage" /></cc:Work></rdf:RDF></metadata><defs
     id="defs4218" /><sodipodi:namedview
     pagecolor="#ffffff"
     bordercolor="#666666"
     borderopacity="1"
     objecttolerance="10"
     gridtolerance="10"
     guidetolerance="10"
     inkscape:pageopacity="0"
     inkscape:pageshadow="2"
     inkscape:window-width="1920"
     inkscape:window-height="1009"
     id="namedview4216"
     showgrid="false"
     inkscape:zoom="1.2384031"
     inkscape:cx="135.25483"
     inkscape:cy="186.1268"
     inkscape:window-x="-8"
     inkscape:window-y="-8"
     inkscape:window-maximized="1"
     inkscape:current-layer="Layer_1"
     inkscape:showpageshadow="2"
     inkscape:pagecheckerboard="0"
     inkscape:deskcolor="#d1d1d1" /><flowRoot
     xml:space="preserve"
     id="flowRoot4762"
     style="font-style:normal;font-weight:normal;line-height:0.01%;font-family:sans-serif;letter-spacing:0px;word-spacing:0px;fill:#000000;fill-opacity:1;stroke:#000000;stroke-width:1px;stroke-linecap:butt;stroke-linejoin:miter;stroke-opacity:1"
     transform="matrix(3.5699185,0,0,2.5999593,2066.3714,847.93801)"><flowRegion
       id="flowRegion4764"><rect
         id="rect4766"
         width="541.01929"
         height="534.55939"
         x="-568.474"
         y="-360.1412"
         style="font-size:180px;fill:#000000;fill-opacity:1;stroke:#000000;stroke-opacity:1" /></flowRegion><flowPara
       id="flowPara4768"
       style="font-size:180px;line-height:1.25"> </flowPara></flowRoot><path
     inkscape:connector-curvature="0"
     id="path4182"
     d="m 59.453949,91.957322 c -25.130616,0 -45.574915,-20.264389 -45.574915,-45.17117 0,-24.90678 20.445515,-45.171169 45.574915,-45.171169 25.129401,0 45.574911,20.264389 45.574911,45.171169 0,24.906781 -20.444295,45.17117 -45.574911,45.17117 z m 0,-72.273871 c -15.078612,0 -27.344949,12.158874 -27.344949,27.102701 0,14.943828 12.267552,27.102702 27.344949,27.102702 15.077397,0 27.344949,-12.158874 27.344949,-27.102702 0,-14.943827 -12.266336,-27.102701 -27.344949,-27.102701 z"
     style="fill:#000000;fill-opacity:1" /><g
     id="g4186" /><g
     id="g4188" /><g
     id="g4190" /><g
     id="g4192" /><g
     id="g4194" /><g
     id="g4196" /><g
     id="g4198" /><g
     id="g4200" /><g
     id="g4202" /><g
     id="g4204" /><g
     id="g4206" /><g
     id="g4208" /><g
     id="g4210" /><g
     id="g4212" /><g
     id="g4214" /><path
     style="opacity:1;fill:#000000;fill-opacity:1;fill-rule:nonzero;stroke:#000000;stroke-width:0.80749154;stroke-opacity:1"
     d="m 108.44611,203.64936 0,-159.883322 123.54621,0 123.5462,0 0,12.516119 0,12.516118 -100.94205,0 -100.94204,0 0.20748,55.111295 0.20747,55.1113 91.04467,0.20533 91.04467,0.20534 0,12.51266 0,12.51265 -91.24654,0 -91.24654,0 0,79.53792 0,79.53791 -22.60976,0 -22.60977,0 0,-159.88332 z"
     id="path4440"
     inkscape:connector-curvature="0" /></svg>
