<?xml version="1.0" encoding="utf-8"?><!-- Uploaded to: SVG Repo, www.svgrepo.com, Generator: SVG Repo Mixer Tools -->
<svg width="800px" height="800px" viewBox="0 0 512 512" xmlns="http://www.w3.org/2000/svg" xmlns:xlink="http://www.w3.org/1999/xlink" aria-hidden="true" role="img" class="iconify iconify--fxemoji" preserveAspectRatio="xMidYMid meet"><path fill="#00B89C" d="M508.333 32.666C508.333 16.35 494.984 3 478.668 3H29.032C14.348 3 2.333 15.015 2.333 29.699v452.602C2.333 496.985 14.348 509 29.032 509h449.635c16.316 0 29.666-13.35 29.666-29.666V32.666z"></path><path fill="#009E83" d="M478.668 488.915H29.032c-14.684 0-26.699-12.015-26.699-26.699v20.085C2.333 496.985 14.348 509 29.032 509h449.635c16.316 0 29.666-13.35 29.666-29.666v-20.085c0 16.316-13.349 29.666-29.665 29.666z"></path><path fill="#FFF" d="M423.55 117.761l-52.135-30.434c-6.421-3.749-14.666-1.582-18.414 4.84L225.179 311.129l-84.155-49.126c-5.206-3.039-11.89-1.282-14.929 3.924l-33.004 56.537c-3.039 5.206-1.282 11.89 3.924 14.929l150.112 87.629c5.206 3.039 11.89 1.282 14.929-3.924l1.217-2.085c.024-.041.053-.077.077-.118l165.04-282.72c3.748-6.421 1.581-14.665-4.84-18.414z"></path></svg>