<?xml version="1.0" encoding="UTF-8" standalone="no"?>
<svg
   xmlns:dc="http://purl.org/dc/elements/1.1/"
   xmlns:cc="http://creativecommons.org/ns#"
   xmlns:rdf="http://www.w3.org/1999/02/22-rdf-syntax-ns#"
   xmlns:svg="http://www.w3.org/2000/svg"
   xmlns="http://www.w3.org/2000/svg"
   xmlns:sodipodi="http://sodipodi.sourceforge.net/DTD/sodipodi-0.dtd"
   xmlns:inkscape="http://www.inkscape.org/namespaces/inkscape"
   height="480"
   width="480"
   viewBox="0 0 480 480"
   version="1.1"
   id="svg4"
   sodipodi:docname="01d.svg"
   inkscape:version="1.0.1 (3bc2e813f5, 2020-09-07)">
  <metadata
     id="metadata10">
    <rdf:RDF>
      <cc:Work
         rdf:about="">
        <dc:format>image/svg+xml</dc:format>
        <dc:type
           rdf:resource="http://purl.org/dc/dcmitype/StillImage" />
      </cc:Work>
    </rdf:RDF>
  </metadata>
  <defs
     id="defs8" />
  <sodipodi:namedview
     pagecolor="#ffffff"
     bordercolor="#666666"
     borderopacity="1"
     objecttolerance="10"
     gridtolerance="10"
     guidetolerance="10"
     inkscape:pageopacity="0"
     inkscape:pageshadow="2"
     inkscape:window-width="1600"
     inkscape:window-height="838"
     id="namedview6"
     showgrid="false"
     inkscape:zoom="1.3085938"
     inkscape:cx="200.52507"
     inkscape:cy="240.07164"
     inkscape:window-x="-8"
     inkscape:window-y="-8"
     inkscape:window-maximized="1"
     inkscape:current-layer="svg4"
     inkscape:document-rotation="0" />
  <g
     id="g831"
     transform="scale(10)">
    <path
       d="m 24.0014,42 c -1.108,0 -2,0.8918 -2,2 v 2 c 0,1.108 0.892,2 2,2 1.108,0 2,-0.892 2,-2 v -2 c 0,-1.1082 -0.892,-2 -2,-2 z M 38.142,36.1406 c -0.51124,0 -1.02232,0.194 -1.41406,0.5858 -0.78348,0.7834 -0.78348,2.0448 0,2.828 l 1.41406,1.4144 c 0.78348,0.7832 2.0446,0.7832 2.8282,0 0.78348,-0.7838 0.78348,-2.0448 0,-2.8282 L 39.55614,36.7264 C 39.1644,36.3348 38.65332,36.1406 38.14208,36.1406 Z m -28.282,0 c -0.51124,0 -1.02232,0.194 -1.41406,0.5858 l -1.41406,1.4142 c -0.78348,0.7836 -0.78348,2.0446 0,2.8282 0.78346,0.7832 2.0446,0.7832 2.8282,0 l 1.41406,-1.4144 c 0.78348,-0.7832 0.78348,-2.0446 0,-2.828 C 10.8824,36.3348 10.37132,36.1406 9.86008,36.1406 Z M 44,22 c -1.108,0 -2,0.8918 -2,2 0,1.108 0.892,2 2,2 h 2 c 1.108,0 2,-0.892 2,-2 0,-1.1082 -0.892,-2 -2,-2 z M 2,22 c -1.108,0 -2,0.8918 -2,2 0,1.108 0.892,2 2,2 H 4 C 5.108,26 6,25.108 6,24 6,22.8918 5.108,22 4,22 Z M 24,8 A 16,16 0 0 0 8,24 16,16 0 0 0 24,40 16,16 0 0 0 40,24 16,16 0 0 0 24,8 Z m 0,4 A 12,12 0 0 1 36,24 12,12 0 0 1 24,36 12,12 0 0 1 12,24 12,12 0 0 1 24,12 Z M 39.5546,6.4414 c -0.51122,0 -1.02232,0.198 -1.41406,0.5898 l -1.41406,1.4142 c -0.78348,0.7834 -0.78348,2.0446 0,2.828 0.78348,0.7836 2.0446,0.7836 2.8282,0 l 1.41406,-1.414 c 0.78348,-0.7834 0.78348,-2.0446 0,-2.8282 C 40.57702,6.6396 40.06592,6.4414 39.55468,6.4414 Z m -31.11,0 c -0.51124,0 -1.02234,0.198 -1.41406,0.5898 -0.78348,0.7836 -0.78348,2.0448 0,2.8282 l 1.41406,1.414 c 0.78346,0.7836 2.0446,0.7836 2.8282,0 0.78348,-0.7834 0.78348,-2.0446 0,-2.828 L 9.85874,7.0312 C 9.467,6.6396 8.9559,6.4414 8.44468,6.4414 Z M 23.9992,0 c -1.108,0 -2,0.8918 -2,2 v 2 c 0,1.108 0.892,2 2,2 1.108,0 2,-0.892 2,-2 V 2 c 0,-1.1082 -0.892,-2 -2,-2 z"
       id="path2"
       style="stroke-width:2" />
  </g>
</svg>
