<?xml version="1.0" encoding="UTF-8" standalone="no"?>
<svg
   xmlns:dc="http://purl.org/dc/elements/1.1/"
   xmlns:cc="http://creativecommons.org/ns#"
   xmlns:rdf="http://www.w3.org/1999/02/22-rdf-syntax-ns#"
   xmlns:svg="http://www.w3.org/2000/svg"
   xmlns="http://www.w3.org/2000/svg"
   xmlns:sodipodi="http://sodipodi.sourceforge.net/DTD/sodipodi-0.dtd"
   xmlns:inkscape="http://www.inkscape.org/namespaces/inkscape"
   height="480"
   width="480"
   viewBox="0 0 480 480"
   version="1.1"
   id="svg4"
   sodipodi:docname="02d.svg"
   inkscape:version="1.0.1 (3bc2e813f5, 2020-09-07)">
  <metadata
     id="metadata10">
    <rdf:RDF>
      <cc:Work
         rdf:about="">
        <dc:format>image/svg+xml</dc:format>
        <dc:type
           rdf:resource="http://purl.org/dc/dcmitype/StillImage" />
      </cc:Work>
    </rdf:RDF>
  </metadata>
  <defs
     id="defs8" />
  <sodipodi:namedview
     pagecolor="#ffffff"
     bordercolor="#666666"
     borderopacity="1"
     objecttolerance="10"
     gridtolerance="10"
     guidetolerance="10"
     inkscape:pageopacity="0"
     inkscape:pageshadow="2"
     inkscape:window-width="1600"
     inkscape:window-height="838"
     id="namedview6"
     showgrid="false"
     inkscape:zoom="0.46265776"
     inkscape:cx="134.87797"
     inkscape:cy="292.66239"
     inkscape:window-x="-8"
     inkscape:window-y="-8"
     inkscape:window-maximized="1"
     inkscape:current-layer="svg4"
     inkscape:document-rotation="0" />
  <g
     id="g831"
     transform="matrix(14.617969,0,0,14.617969,6.112496,49.966403)">
    <path
       d="m 11.9996,0 c -0.554,0 -1,0.446 -1,1 v 1 c 0,0.554 0.446,1 1,1 0.554,0 1,-0.446 1,-1 V 1 c 0,-0.554 -0.446,-1 -1,-1 z M 4.2223,3.2207 c -0.25562,0 -0.51117,0.099 -0.70703,0.2949 -0.39174,0.3918 -0.39174,1.0224 0,1.4141 l 0.70703,0.707 c 0.39173,0.3918 1.0223,0.3918 1.4141,0 0.39174,-0.3917 0.39174,-1.0223 0,-1.414 L 4.92937,3.5156 C 4.7335,3.3198 4.47795,3.2207 4.22234,3.2207 Z m 15.555,0 c -0.25561,0 -0.51116,0.099 -0.70703,0.2949 l -0.70703,0.7071 c -0.39174,0.3917 -0.39174,1.0223 0,1.414 0.39174,0.3918 1.0223,0.3918 1.4141,0 l 0.70704,-0.707 c 0.39173,-0.3917 0.39173,-1.0223 0,-1.4141 C 20.28851,3.3198 20.03296,3.2207 19.77734,3.2207 Z M 12,4 C 7.5817,4 4,7.5817 4,12 4,13.5899 4.4699,15.0672 5.2695,16.3125 4.47318,17.3327 4.0002,18.6137 4,20 c 0,3.3137 2.6863,6 6,6 H 25.5 C 29.0898,26 32,23.0899 32,19.5 32,15.9102 29.0898,13 25.5,13 25.00133,13 24.50457,13.062 24.0195,13.1777 23.04714,11.3899 21.4431,10.0867 19.5761,9.4473 18.5097,6.2825 15.5243,4 11.9999,4 Z m 0,2 c 2.2253,0 4.1633,1.2143 5.1992,3.0137 -0.067,0 -0.13195,-0.014 -0.19922,-0.014 -3.2637,0 -6.1985,1.9875 -7.416,5.0156 -1.0334,0.072 -1.9871,0.4063 -2.8066,0.9297 -0.49216,-0.8707 -0.77734,-1.8738 -0.77734,-2.9453 0,-3.3137 2.6863,-6 6,-6 z M 1,11 c -0.554,0 -1,0.446 -1,1 0,0.554 0.446,1 1,1 H 2 C 2.554,13 3,12.554 3,12 3,11.446 2.554,11 2,11 Z m 16,0 c 2.8668,0 5.3313,2.0325 5.8828,4.8457 C 23.64556,15.2976 24.5607,15.0019 25.5,15 27.9853,15 30,17.0147 30,19.5 30,21.9853 27.9853,24 25.5,24 H 10 c -2.2091,0 -4,-1.7909 -4,-4 0,-2.2091 1.7909,-4 4,-4 0.36119,0 0.72057,0.051 1.0684,0.1484 C 11.4916,13.1968 14.0182,11.0038 17,11 Z"
       id="path2" />
  </g>
</svg>
