<?xml version="1.0" encoding="UTF-8" standalone="no"?>
<svg
   xmlns:dc="http://purl.org/dc/elements/1.1/"
   xmlns:cc="http://creativecommons.org/ns#"
   xmlns:rdf="http://www.w3.org/1999/02/22-rdf-syntax-ns#"
   xmlns:svg="http://www.w3.org/2000/svg"
   xmlns="http://www.w3.org/2000/svg"
   xmlns:sodipodi="http://sodipodi.sourceforge.net/DTD/sodipodi-0.dtd"
   xmlns:inkscape="http://www.inkscape.org/namespaces/inkscape"
   height="480"
   width="480"
   viewBox="0 0 480 480"
   version="1.1"
   id="svg4"
   sodipodi:docname="02n.svg"
   inkscape:version="1.0.1 (3bc2e813f5, 2020-09-07)">
  <metadata
     id="metadata10">
    <rdf:RDF>
      <cc:Work
         rdf:about="">
        <dc:format>image/svg+xml</dc:format>
        <dc:type
           rdf:resource="http://purl.org/dc/dcmitype/StillImage" />
      </cc:Work>
    </rdf:RDF>
  </metadata>
  <defs
     id="defs8" />
  <sodipodi:namedview
     pagecolor="#ffffff"
     bordercolor="#666666"
     borderopacity="1"
     objecttolerance="10"
     gridtolerance="10"
     guidetolerance="10"
     inkscape:pageopacity="0"
     inkscape:pageshadow="2"
     inkscape:window-width="1600"
     inkscape:window-height="838"
     id="namedview6"
     showgrid="false"
     inkscape:zoom="0.65429688"
     inkscape:cx="132.96004"
     inkscape:cy="206.57313"
     inkscape:window-x="-8"
     inkscape:window-y="-8"
     inkscape:window-maximized="1"
     inkscape:current-layer="svg4"
     inkscape:document-rotation="0" />
  <g
     id="g831"
     transform="matrix(15.75,0,0,15.75,5.7345,51.291375)">
    <path
       d="m 8.4961,0 c 0.1649,0.6414 0.24953,1.3007 0.25195,1.9629 0,4.4183 -3.5817,8 -8,8 C 0.49826,9.9622 0.24864,9.9499 0,9.9259 c 0.45224,1.7708 1.4972,3.3334 2.9609,4.4277 -0.76071,1.0074 -1.2126,2.2576 -1.2129,3.6094 0,3.3137 2.6863,6 6,6 h 15.5 c 3.5898,0 6.5,-2.9101 6.5,-6.5 0,-3.5898 -2.9102,-6.5 -6.5,-6.5 -0.49867,0 -0.99543,0.062 -1.4805,0.1777 C 20.5195,8.846 18.2393,7.3315 15.6835,7.0275 15.24218,3.2844 12.2481,0.357 8.496,1e-4 Z m 2.0996,2.709 c 1.6249,0.8766 2.7857,2.4576 3.0762,4.3359 C 10.8531,7.4302 8.4137,9.2885 7.3321,11.9785 6.2728,12.0525 5.2979,12.4028 4.4649,12.9492 3.89148,12.5608 3.3855,12.0743 2.9688,11.5117 7.1286,10.5285 10.2524,7.0735 10.5958,2.709 Z m 4.1523,6.2539 c 2.8668,0 5.3313,2.0325 5.8828,4.8457 0.76276,-0.5481 1.6779,-0.8438 2.6172,-0.8457 2.4853,0 4.5,2.0147 4.5,4.5 0,2.4853 -2.0147,4.5 -4.5,4.5 h -15.5 c -2.2091,0 -4,-1.7909 -4,-4 0,-2.2091 1.7909,-4 4,-4 0.36119,0 0.72057,0.051 1.0684,0.1484 0.4232,-2.9516 2.9498,-5.1446 5.9316,-5.1484 z"
       id="path2" />
  </g>
</svg>
