<?xml version="1.0" encoding="UTF-8" standalone="no"?>
<svg
   xmlns:dc="http://purl.org/dc/elements/1.1/"
   xmlns:cc="http://creativecommons.org/ns#"
   xmlns:rdf="http://www.w3.org/1999/02/22-rdf-syntax-ns#"
   xmlns:svg="http://www.w3.org/2000/svg"
   xmlns="http://www.w3.org/2000/svg"
   xmlns:sodipodi="http://sodipodi.sourceforge.net/DTD/sodipodi-0.dtd"
   xmlns:inkscape="http://www.inkscape.org/namespaces/inkscape"
   height="480"
   width="480"
   viewBox="0 0 480 480"
   version="1.1"
   id="svg4"
   sodipodi:docname="03d.svg"
   inkscape:version="1.0.1 (3bc2e813f5, 2020-09-07)">
  <metadata
     id="metadata10">
    <rdf:RDF>
      <cc:Work
         rdf:about="">
        <dc:format>image/svg+xml</dc:format>
        <dc:type
           rdf:resource="http://purl.org/dc/dcmitype/StillImage" />
      </cc:Work>
    </rdf:RDF>
  </metadata>
  <defs
     id="defs8" />
  <sodipodi:namedview
     pagecolor="#ffffff"
     bordercolor="#666666"
     borderopacity="1"
     objecttolerance="10"
     gridtolerance="10"
     guidetolerance="10"
     inkscape:pageopacity="0"
     inkscape:pageshadow="2"
     inkscape:window-width="1600"
     inkscape:window-height="838"
     id="namedview6"
     showgrid="false"
     inkscape:zoom="1.35"
     inkscape:cx="240"
     inkscape:cy="240"
     inkscape:window-x="-8"
     inkscape:window-y="-8"
     inkscape:window-maximized="1"
     inkscape:current-layer="svg4"
     inkscape:document-rotation="0" />
  <g
     id="g831"
     transform="matrix(16,0,0,16,15.99976,40)">
    <path
       d="m 11.9996,0 c -0.554,0 -1,0.446 -1,1 v 1 c 0,0.554 0.446,1 1,1 0.554,0 1,-0.446 1,-1 V 1 c 0,-0.554 -0.446,-1 -1,-1 z M 4.2223,3.2207 c -0.25562,0 -0.51117,0.099 -0.70703,0.2949 -0.39174,0.3918 -0.39174,1.0224 0,1.4141 l 0.70703,0.707 c 0.39173,0.3918 1.0223,0.3918 1.4141,0 0.39174,-0.3917 0.39174,-1.0223 0,-1.414 L 4.92937,3.5156 C 4.7335,3.3198 4.47795,3.2207 4.22234,3.2207 Z m 15.555,0 c -0.25561,0 -0.51116,0.099 -0.70703,0.2949 l -0.70703,0.7071 c -0.39174,0.3917 -0.39174,1.0223 0,1.414 0.39174,0.3918 1.0223,0.3918 1.4141,0 l 0.70704,-0.707 c 0.39173,-0.3917 0.39173,-1.0223 0,-1.4141 C 20.28851,3.3198 20.03296,3.2207 19.77734,3.2207 Z M 12,4 C 7.5817,4 4,7.5817 4,12 4,14.1312 4.83867,16.0623 6.1973,17.4961 6.07284,17.9774 6.00003,18.4798 6.00003,19 c 0,3.3137 2.6863,6 6,6 h 8 c 4.4183,0 8,-3.5817 8,-8 0,-4.4183 -3.5817,-8 -8,-8 -0.19318,10e-5 -0.3814,0.025 -0.57227,0.039 -1.1778,-2.9509 -4.0566,-5.0391 -7.4277,-5.0391 z m 0,2 c 2.3988,0 4.4636,1.4109 5.4238,3.4453 -1.839,0.6283 -3.4242,1.9003 -4.4024,3.6485 -0.33719,-0.06 -0.67893,-0.092 -1.0215,-0.094 -2.0062,0 -3.7778,0.9876 -4.8672,2.5 -0.70997,-0.9858 -1.1328,-2.1926 -1.1328,-3.5001 0,-3.3137 2.6863,-6 6,-6 z M 1,11 c -0.554,0 -1,0.446 -1,1 0,0.554 0.446,1 1,1 H 2 C 2.554,13 3,12.554 3,12 3,11.446 2.554,11 2,11 Z m 19,0 c 3.3137,0 6,2.6863 6,6 0,3.3137 -2.6863,6 -6,6 h -8 c -2.2091,0 -4,-1.7909 -4,-4 0,-2.2091 1.7909,-4 4,-4 0.76723,0 1.5178,0.2242 2.1621,0.6406 C 14.7937,12.9254 17.2123,11.0028 20,11 Z M 6.869,15.9043 c -0.0178,0.03 -0.0374,0.058 -0.0547,0.088 0.0174,-0.03 0.0368,-0.058 0.0547,-0.088 z"
       id="path2" />
  </g>
</svg>
