<?xml version="1.0" encoding="UTF-8" standalone="no"?>
<svg
   xmlns:dc="http://purl.org/dc/elements/1.1/"
   xmlns:cc="http://creativecommons.org/ns#"
   xmlns:rdf="http://www.w3.org/1999/02/22-rdf-syntax-ns#"
   xmlns:svg="http://www.w3.org/2000/svg"
   xmlns="http://www.w3.org/2000/svg"
   xmlns:sodipodi="http://sodipodi.sourceforge.net/DTD/sodipodi-0.dtd"
   xmlns:inkscape="http://www.inkscape.org/namespaces/inkscape"
   height="480"
   width="480"
   viewBox="0 0 480 480"
   version="1.1"
   id="svg4"
   sodipodi:docname="03n.svg"
   inkscape:version="1.0.1 (3bc2e813f5, 2020-09-07)">
  <metadata
     id="metadata10">
    <rdf:RDF>
      <cc:Work
         rdf:about="">
        <dc:format>image/svg+xml</dc:format>
        <dc:type
           rdf:resource="http://purl.org/dc/dcmitype/StillImage" />
      </cc:Work>
    </rdf:RDF>
  </metadata>
  <defs
     id="defs8" />
  <sodipodi:namedview
     pagecolor="#ffffff"
     bordercolor="#666666"
     borderopacity="1"
     objecttolerance="10"
     gridtolerance="10"
     guidetolerance="10"
     inkscape:pageopacity="0"
     inkscape:pageshadow="2"
     inkscape:window-width="1600"
     inkscape:window-height="838"
     id="namedview6"
     showgrid="false"
     inkscape:zoom="1.35"
     inkscape:cx="240"
     inkscape:cy="240"
     inkscape:window-x="-8"
     inkscape:window-y="-8"
     inkscape:window-maximized="1"
     inkscape:current-layer="svg4"
     inkscape:document-rotation="0" />
  <g
     id="g831"
     transform="matrix(16,0,0,16,34.01576,55.9992)">
    <path
       d="m 8.4961,0 c 0.1649,0.6414 0.24953,1.3007 0.25195,1.9629 0,4.4183 -3.5817,8 -8,8 C 0.49826,9.9622 0.24864,9.9499 0,9.9259 c 0.56287,2.2142 2.0455,4.0821 4.0742,5.1328 -0.20846,0.6094 -0.32617,1.2614 -0.32617,1.9414 0,3.3137 2.6863,6 6,6 h 8 c 4.4183,0 8,-3.5817 8,-8 0,-4.4183 -3.5817,-8 -8,-8 -0.69611,2e-4 -1.3776,0.097 -2.0332,0.2695 C 15.37918,3.4215 12.34183,0.3627 8.49603,1e-4 Z m 2.0996,2.709 c 1.884,1.0163 3.1518,2.9775 3.1523,5.2539 0,0.04 -0.005,0.078 -0.006,0.1172 -1.2224,0.7081 -2.2584,1.737 -2.9727,3.0137 -0.33715,-0.06 -0.67889,-0.092 -1.0214,-0.094 -1.9128,0 -3.6122,0.8988 -4.7109,2.2929 -4.9e-4,-2e-4 -0.002,3e-4 -0.002,0 C 4.22382,12.8665 3.5188,12.2542 2.9686,11.5115 7.1284,10.5282 10.2522,7.0733 10.5956,2.7087 Z M 17.748,9 c 3.3137,0 6,2.6863 6,6 0,3.3137 -2.6863,6 -6,6 h -8 c -2.2091,0 -4,-1.7909 -4,-4 0,-2.2091 1.7909,-4 4,-4 0.76723,0 1.5178,0.2242 2.1621,0.6406 C 12.5417,10.9254 14.9603,9.0028 17.748,9 Z"
       id="path2" />
  </g>
</svg>
