<?xml version="1.0" encoding="UTF-8" standalone="no"?>
<svg
   xmlns:dc="http://purl.org/dc/elements/1.1/"
   xmlns:cc="http://creativecommons.org/ns#"
   xmlns:rdf="http://www.w3.org/1999/02/22-rdf-syntax-ns#"
   xmlns:svg="http://www.w3.org/2000/svg"
   xmlns="http://www.w3.org/2000/svg"
   xmlns:sodipodi="http://sodipodi.sourceforge.net/DTD/sodipodi-0.dtd"
   xmlns:inkscape="http://www.inkscape.org/namespaces/inkscape"
   height="480"
   width="480"
   viewBox="0 0 480 480"
   version="1.1"
   id="svg4"
   sodipodi:docname="04d.svg"
   inkscape:version="1.0.1 (3bc2e813f5, 2020-09-07)">
  <metadata
     id="metadata10">
    <rdf:RDF>
      <cc:Work
         rdf:about="">
        <dc:format>image/svg+xml</dc:format>
        <dc:type
           rdf:resource="http://purl.org/dc/dcmitype/StillImage" />
      </cc:Work>
    </rdf:RDF>
  </metadata>
  <defs
     id="defs8" />
  <sodipodi:namedview
     pagecolor="#ffffff"
     bordercolor="#666666"
     borderopacity="1"
     objecttolerance="10"
     gridtolerance="10"
     guidetolerance="10"
     inkscape:pageopacity="0"
     inkscape:pageshadow="2"
     inkscape:window-width="1600"
     inkscape:window-height="838"
     id="namedview6"
     showgrid="false"
     inkscape:zoom="0.63050355"
     inkscape:cx="240"
     inkscape:cy="11"
     inkscape:window-x="-8"
     inkscape:window-y="-8"
     inkscape:window-maximized="1"
     inkscape:current-layer="svg4"
     inkscape:document-rotation="0" />
  <g
     id="g831"
     transform="matrix(14.44,0,0,14.44,8.96,88.38)">
    <path
       d="M 18,0 C 14.9201,0 12.2511,1.744 10.9141,4.295 8.5333,4.9418 6.5338,6.6535 5.584,9.0157 2.4398,9.2342 6e-4,11.8483 0,15 c 0,3.3138 2.6863,6 6,6 h 15.5 c 3.1818,0 5.8239,-2.2873 6.3848,-5.3066 C 30.2745,14.9028 32,12.6549 32,10 32,6.6863 29.3137,4 26,4 25.65745,4 25.31571,4.033 24.9785,4.094 23.5646,1.5671 20.8956,0.0013 18,3e-4 Z m 0,2 c 2.7877,0 5.2063,1.9254 5.8379,4.6407 C 24.48225,6.2242 25.2328,6.0021 26,6 c 2.2091,0 4,1.7909 4,4 0,1.5118 -0.84848,2.8121 -2.0859,3.4922 C 27.42875,10.3822 24.7462,8 21.5,8 21.00133,8 20.50457,8.062 20.0195,8.1778 18.7021,5.7556 16.2338,4.2118 13.5058,4.0352 14.6052,2.7903 16.2085,2 17.9999,2 Z m -5,4 c 2.8668,0 5.3313,2.0326 5.8828,4.8458 C 19.64556,10.2976 20.5607,10.0019 21.5,10 23.9853,10 26,12.0148 26,14.5 26,16.9853 23.9853,19 21.5,19 H 6 C 3.7909,19 2,17.2092 2,15 2,12.7909 3.7909,11 6,11 6.36119,11.001 6.72057,11.051 7.0684,11.1485 7.4916,8.1968 10.0182,6.0038 13,6 Z"
       id="path2" />
  </g>
</svg>
