<?xml version="1.0" encoding="UTF-8" standalone="no"?>
<svg
   xmlns:dc="http://purl.org/dc/elements/1.1/"
   xmlns:cc="http://creativecommons.org/ns#"
   xmlns:rdf="http://www.w3.org/1999/02/22-rdf-syntax-ns#"
   xmlns:svg="http://www.w3.org/2000/svg"
   xmlns="http://www.w3.org/2000/svg"
   xmlns:sodipodi="http://sodipodi.sourceforge.net/DTD/sodipodi-0.dtd"
   xmlns:inkscape="http://www.inkscape.org/namespaces/inkscape"
   height="480"
   width="480"
   viewBox="0 0 480 480"
   version="1.1"
   id="svg4"
   sodipodi:docname="10n.svg"
   inkscape:version="1.0.1 (3bc2e813f5, 2020-09-07)">
  <metadata
     id="metadata10">
    <rdf:RDF>
      <cc:Work
         rdf:about="">
        <dc:format>image/svg+xml</dc:format>
        <dc:type
           rdf:resource="http://purl.org/dc/dcmitype/StillImage" />
      </cc:Work>
    </rdf:RDF>
  </metadata>
  <defs
     id="defs8" />
  <sodipodi:namedview
     pagecolor="#ffffff"
     bordercolor="#666666"
     borderopacity="1"
     objecttolerance="10"
     gridtolerance="10"
     guidetolerance="10"
     inkscape:pageopacity="0"
     inkscape:pageshadow="2"
     inkscape:window-width="1600"
     inkscape:window-height="838"
     id="namedview6"
     showgrid="false"
     inkscape:zoom="1.35"
     inkscape:cx="240"
     inkscape:cy="240"
     inkscape:window-x="-8"
     inkscape:window-y="-8"
     inkscape:window-maximized="1"
     inkscape:current-layer="svg4"
     inkscape:document-rotation="0" />
  <g
     id="g831"
     transform="matrix(15.45,0,0,15.45,2.4711592,16.257252)">
    <path
       d="m 8.4961,0 c 0.1649,0.6414 0.24953,1.3007 0.25195,1.9629 0,4.4183 -3.5817,8 -8,8 C 0.49826,9.9622 0.24864,9.9499 0,9.9259 c 0.52182,2.0468 1.8319,3.8042 3.6445,4.8887 -0.56746,0.9178 -0.89625,1.9961 -0.89648,3.1484 0,3.1616 2.4483,5.7416 5.5508,5.9727 L 9.43752,21.963 H 8.74807 c -2.2091,0 -4,-1.7908 -4,-4 0,-2.2091 1.7909,-4 4,-4 0.36119,0.001 0.72057,0.051 1.0684,0.1485 0.4232,-2.9517 2.9498,-5.1447 5.9316,-5.1485 2.8668,0 5.3313,2.0325 5.8828,4.8457 0.76276,-0.5481 1.6779,-0.8438 2.6172,-0.8457 2.4853,0 4.5,2.0147 4.5,4.5 0,2.4853 -2.0147,4.5 -4.5,4.5 h -0.5 l -1.1523,2 h 1.6523 c 3.5898,0 6.5,-2.9101 6.5,-6.5 0,-3.5898 -2.9102,-6.5 -6.5,-6.5 -0.49867,0 -0.99543,0.062 -1.4805,0.1777 -1.399,-2.5722 -4.0915,-4.1746 -7.0195,-4.1777 -0.0245,0 -0.0478,0.01 -0.0723,0.01 -0.46611,-3.7176 -3.4499,-6.6137 -7.1797,-6.9687 z m 2.0996,2.709 c 1.6836,0.9083 2.8667,2.5731 3.1016,4.541 -2.396,0.6394 -4.4109,2.3549 -5.3652,4.7285 -1.2582,0.087 -2.399,0.5632 -3.3203,1.2989 -0.80072,-0.4257 -1.4984,-1.0305 -2.043,-1.7657 4.1598,-0.9832 7.2836,-4.4382 7.627,-8.8027 z m 2.2754,17.262 c -0.38674,-0.049 -0.78249,0.1324 -0.99024,0.4922 l -1,1.7324 c -0.277,0.4799 -0.11259,1.0903 0.36719,1.3672 0.47978,0.277 1.0882,0.1126 1.3652,-0.3672 l 1,-1.7324 c 0.277,-0.4798 0.11455,-1.0882 -0.36523,-1.3652 -0.11995,-0.069 -0.24804,-0.1108 -0.37695,-0.127 z m 4,0 c -0.38674,-0.049 -0.78249,0.1324 -0.99024,0.4922 l -1,1.7324 c -0.277,0.4799 -0.11259,1.0903 0.36719,1.3672 0.47978,0.277 1.0882,0.1126 1.3652,-0.3672 l 1,-1.7324 c 0.277,-0.4798 0.11455,-1.0882 -0.36523,-1.3652 -0.11994,-0.069 -0.24804,-0.1108 -0.37695,-0.127 z m 4,0 c -0.38674,-0.049 -0.78249,0.1324 -0.99024,0.4922 l -1,1.7324 c -0.277,0.4799 -0.11259,1.0903 0.36719,1.3672 0.47978,0.277 1.0882,0.1126 1.3652,-0.3672 l 1,-1.7324 c 0.277,-0.4798 0.11455,-1.0882 -0.36523,-1.3652 -0.11995,-0.069 -0.24804,-0.1108 -0.37695,-0.127 z m -8,5.2657 c -0.38674,-0.049 -0.78053,0.1343 -0.98828,0.4941 l -1,1.7324 c -0.277,0.4798 -0.11455,1.0882 0.36523,1.3652 0.47978,0.277 1.0902,0.1146 1.3672,-0.3652 l 1,-1.7324 c 0.277,-0.4798 0.11259,-1.0902 -0.36719,-1.3672 -0.11994,-0.069 -0.24804,-0.1108 -0.37695,-0.1269 z m 4,0 c -0.38674,-0.049 -0.78053,0.1343 -0.98828,0.4941 l -1,1.7324 c -0.277,0.4798 -0.11455,1.0882 0.36523,1.3652 0.47978,0.277 1.0902,0.1146 1.3672,-0.3652 l 1,-1.7324 c 0.277,-0.4798 0.11259,-1.0902 -0.36719,-1.3672 -0.11994,-0.069 -0.24804,-0.1108 -0.37695,-0.1269 z"
       id="path2" />
  </g>
</svg>
