<?xml version="1.0" encoding="UTF-8" standalone="no"?>
<svg
   xmlns:dc="http://purl.org/dc/elements/1.1/"
   xmlns:cc="http://creativecommons.org/ns#"
   xmlns:rdf="http://www.w3.org/1999/02/22-rdf-syntax-ns#"
   xmlns:svg="http://www.w3.org/2000/svg"
   xmlns="http://www.w3.org/2000/svg"
   xmlns:sodipodi="http://sodipodi.sourceforge.net/DTD/sodipodi-0.dtd"
   xmlns:inkscape="http://www.inkscape.org/namespaces/inkscape"
   height="480"
   width="480"
   viewBox="0 0 480 480"
   version="1.1"
   id="svg4"
   sodipodi:docname="13n.svg"
   inkscape:version="1.0.1 (3bc2e813f5, 2020-09-07)">
  <metadata
     id="metadata10">
    <rdf:RDF>
      <cc:Work
         rdf:about="">
        <dc:format>image/svg+xml</dc:format>
        <dc:type
           rdf:resource="http://purl.org/dc/dcmitype/StillImage" />
      </cc:Work>
    </rdf:RDF>
  </metadata>
  <defs
     id="defs8" />
  <sodipodi:namedview
     pagecolor="#ffffff"
     bordercolor="#666666"
     borderopacity="1"
     objecttolerance="10"
     gridtolerance="10"
     guidetolerance="10"
     inkscape:pageopacity="0"
     inkscape:pageshadow="2"
     inkscape:window-width="1600"
     inkscape:window-height="838"
     id="namedview6"
     showgrid="false"
     inkscape:zoom="1.35"
     inkscape:cx="240"
     inkscape:cy="240"
     inkscape:window-x="-8"
     inkscape:window-y="-8"
     inkscape:window-maximized="1"
     inkscape:current-layer="svg4"
     inkscape:document-rotation="0" />
  <g
     id="g831"
     transform="matrix(15.45,0,0,15.45,2.4711592,31.710825)">
    <path
       d="m 8.4961,0 c 0.1649,0.6413 0.24953,1.3007 0.25195,1.9629 0,4.4183 -3.5817,8 -8,8 C 0.49826,9.9622 0.24864,9.9499 0,9.9259 c 0.52182,2.0469 1.8319,3.8043 3.6445,4.8887 -0.56746,0.9178 -0.89625,1.9962 -0.89648,3.1484 0,3.1616 2.4483,5.7417 5.5508,5.9728 L 9.43752,21.963 H 8.74807 c -2.2091,0 -4,-1.7908 -4,-4 0,-2.2091 1.7909,-4 4,-4 0.36119,0.001 0.72057,0.051 1.0684,0.1485 0.4232,-2.9517 2.9498,-5.1447 5.9316,-5.1485 2.8668,0 5.3313,2.0326 5.8828,4.8458 0.76276,-0.5481 1.6779,-0.8439 2.6172,-0.8458 2.4853,0 4.5,2.0148 4.5,4.5 0,2.4854 -2.0147,4.5 -4.5,4.5 h -0.5 l -1.1523,2 h 1.6523 c 3.5898,0 6.5,-2.9101 6.5,-6.5 0,-3.5897 -2.9102,-6.5 -6.5,-6.5 -0.49867,0 -0.99543,0.062 -1.4805,0.1778 -1.399,-2.5723 -4.0915,-4.1747 -7.0195,-4.1778 -0.0245,10e-5 -0.0478,0.01 -0.0723,0.01 -0.46611,-3.7175 -3.4499,-6.6137 -7.1797,-6.9686 z m 2.0996,2.709 c 1.6836,0.9083 2.8667,2.573 3.1016,4.541 -2.396,0.6395 -4.4109,2.3549 -5.3652,4.7285 -1.2582,0.087 -2.399,0.5632 -3.3203,1.2988 -0.80073,-0.4257 -1.4984,-1.0305 -2.043,-1.7655 4.1598,-0.9834 7.2836,-4.4384 7.627,-8.8028 z m 5.6523,17.254 c -0.277,0 -0.5,0.4459 -0.5,1 v 1.2929 l -0.91406,-0.9141 c -0.39174,-0.3916 -0.86468,-0.5492 -1.0606,-0.3535 -0.19587,0.1959 -0.0382,0.6688 0.35352,1.0607 l 0.91406,0.914 h -1.293 c -0.554,0 -1,0.2229 -1,0.5 0,0.277 0.446,0.5 1,0.5 h 1.293 l -0.91406,0.914 c -0.39174,0.3917 -0.54939,0.8648 -0.35352,1.0606 0.19587,0.1958 0.66881,0.038 1.0606,-0.3535 l 0.91406,-0.914 v 1.2929 c 0,0.554 0.223,1 0.5,1 0.277,0 0.5,-0.446 0.5,-1 v -1.2929 l 0.91406,0.914 c 0.39174,0.3918 0.86468,0.5494 1.0606,0.3535 0.19587,-0.1958 0.0382,-0.6688 -0.35352,-1.0606 l -0.91406,-0.914 h 1.293 c 0.554,0 1,-0.223 1,-0.5 0,-0.2771 -0.446,-0.5 -1,-0.5 h -1.293 l 0.91406,-0.914 c 0.39174,-0.3919 0.54939,-0.8648 0.35352,-1.0607 -0.19587,-0.1957 -0.66881,-0.038 -1.0606,0.3535 L 16.748,22.2559 V 20.963 c 0,-0.5541 -0.223,-1 -0.5,-1 z"
       id="path2" />
  </g>
</svg>
